<?xml version="1.0" encoding="utf-8"?>
<!-- Generator: Adobe Illustrator 19.0.0, SVG Export Plug-In . SVG Version: 6.00 Build 0)  -->
<svg version="1.1" id="Layer_1" xmlns="http://www.w3.org/2000/svg" xmlns:xlink="http://www.w3.org/1999/xlink" x="0px" y="0px"
	 viewBox="0 0 43.6 45.1" style="enable-background:new 0 0 43.6 45.1;" xml:space="preserve">
<style type="text/css">
	.st0{fill:#6DC22A;}
	.st1{fill:#38454F;}
	.st2{fill:#A9B0B5;}
	.st3{fill:#808F8E;}
	.st4{fill:#E7E4D4;}
	.st5{fill:#C8C3A8;}
</style>
<g id="XMLID_1786_">
	<path id="XMLID_1844_" class="st0" d="M31.9,3.9H5.2C2.3,3.9,0,6.2,0,9.1V14h43.6V9.1c0-2.9-2.3-5.2-5.2-5.2H31.9z M31.9,3.9"/>
	<path id="XMLID_1841_" class="st1" d="M16.3,7c0,0.9-0.7,1.6-1.6,1.6c-0.9,0-1.6-0.7-1.6-1.6s0.7-1.6,1.6-1.6
		C15.6,5.4,16.3,6.1,16.3,7L16.3,7z M16.3,7"/>
	<path id="XMLID_1838_" class="st1" d="M21,7c0,0.9-0.7,1.6-1.6,1.6c-0.9,0-1.6-0.7-1.6-1.6s0.7-1.6,1.6-1.6C20.3,5.4,21,6.1,21,7
		L21,7z M21,7"/>
	<path id="XMLID_1835_" class="st1" d="M25.7,7c0,0.9-0.7,1.6-1.6,1.6c-0.9,0-1.6-0.7-1.6-1.6s0.7-1.6,1.6-1.6
		C25,5.4,25.7,6.1,25.7,7L25.7,7z M25.7,7"/>
	<path id="XMLID_1832_" class="st1" d="M30.3,7c0,0.9-0.7,1.6-1.6,1.6c-0.9,0-1.6-0.7-1.6-1.6s0.7-1.6,1.6-1.6
		C29.6,5.4,30.3,6.1,30.3,7L30.3,7z M30.3,7"/>
	<path id="XMLID_1829_" class="st2" d="M28.8,0c-0.9,0-1.7,0.3-2.3,0.8c0.4,0.3,0.8,0.7,1,1.2c0.4-0.3,0.8-0.4,1.3-0.4
		c1.3,0,2.3,1,2.3,2.3c0,1.3-1,2.3-2.3,2.3C28.3,6.2,28,6.6,28,7c0,0.4,0.3,0.8,0.8,0.8c2.1,0,3.9-1.7,3.9-3.9
		C32.7,1.7,30.9,0,28.8,0L28.8,0z M28.8,0"/>
	<path id="XMLID_1826_" class="st3" d="M25.4,2c-0.3,0.6-0.5,1.2-0.5,1.9h1.6C26.4,3.1,26,2.4,25.4,2L25.4,2z M25.4,2"/>
	<path id="XMLID_1823_" class="st3" d="M20.8,2c-0.3,0.6-0.5,1.2-0.5,1.9h1.6C21.8,3.1,21.4,2.4,20.8,2L20.8,2z M20.8,2"/>
	<path id="XMLID_1820_" class="st2" d="M27.5,2c-0.3-0.5-0.6-0.8-1-1.2C25.8,0.3,25,0,24.1,0c-0.9,0-1.7,0.3-2.3,0.8
		c0.4,0.3,0.8,0.7,1,1.2c0.4-0.3,0.8-0.4,1.3-0.4c0.5,0,0.9,0.1,1.3,0.4c0.6,0.4,1,1.1,1,1.9c0,1.3-1,2.3-2.3,2.3
		c-0.4,0-0.8,0.3-0.8,0.8c0,0.4,0.3,0.8,0.8,0.8C26.3,7.8,28,6,28,3.9C28,3.2,27.8,2.5,27.5,2L27.5,2z M27.5,2"/>
	<path id="XMLID_1817_" class="st3" d="M16.1,2c-0.3,0.6-0.5,1.2-0.5,1.9h1.6C17.1,3.1,16.7,2.4,16.1,2L16.1,2z M16.1,2"/>
	<path id="XMLID_1814_" class="st2" d="M22.8,2c-0.3-0.5-0.6-0.8-1-1.2C21.1,0.3,20.3,0,19.4,0c-0.9,0-1.7,0.3-2.3,0.8
		c0.4,0.3,0.8,0.7,1,1.2c0.4-0.3,0.8-0.4,1.3-0.4c0.5,0,0.9,0.1,1.3,0.4c0.6,0.4,1,1.1,1,1.9c0,1.3-1,2.3-2.3,2.3
		c-0.4,0-0.8,0.3-0.8,0.8c0,0.4,0.3,0.8,0.8,0.8c2.1,0,3.9-1.7,3.9-3.9C23.3,3.2,23.1,2.5,22.8,2L22.8,2z M22.8,2"/>
	<path id="XMLID_1811_" class="st2" d="M18.1,2c-0.3-0.5-0.6-0.8-1-1.2C16.5,0.3,15.7,0,14.8,0c-2.1,0-3.9,1.7-3.9,3.9h1.6
		c0-1.3,1-2.3,2.3-2.3c0.5,0,0.9,0.1,1.3,0.4c0.6,0.4,1,1.1,1,1.9c0,1.3-1,2.3-2.3,2.3C14.3,6.2,14,6.6,14,7c0,0.4,0.3,0.8,0.8,0.8
		c2.1,0,3.9-1.7,3.9-3.9C18.7,3.2,18.5,2.5,18.1,2L18.1,2z M18.1,2"/>
	<path id="XMLID_1810_" class="st4" d="M0,14h43.6v25.9c0,2.9-2.3,5.2-5.2,5.2H5.2c-2.9,0-5.2-2.3-5.2-5.2V14z"/>
	<path id="XMLID_1807_" class="st5" d="M13.2,22.6c0,2.1-1.7,3.9-3.9,3.9c-2.1,0-3.9-1.7-3.9-3.9c0-2.1,1.7-3.9,3.9-3.9
		C11.5,18.7,13.2,20.4,13.2,22.6L13.2,22.6z M13.2,22.6"/>
	<path id="XMLID_1804_" class="st5" d="M25.7,22.6c0,2.1-1.7,3.9-3.9,3.9c-2.1,0-3.9-1.7-3.9-3.9c0-2.1,1.7-3.9,3.9-3.9
		C23.9,18.7,25.7,20.4,25.7,22.6L25.7,22.6z M25.7,22.6"/>
	<path id="XMLID_1801_" class="st5" d="M38.1,22.6c0,2.1-1.7,3.9-3.9,3.9c-2.1,0-3.9-1.7-3.9-3.9c0-2.1,1.7-3.9,3.9-3.9
		C36.4,18.7,38.1,20.4,38.1,22.6L38.1,22.6z M38.1,22.6"/>
	<path id="XMLID_1798_" class="st5" d="M13.2,35c0,2.1-1.7,3.9-3.9,3.9c-2.1,0-3.9-1.7-3.9-3.9c0-2.1,1.7-3.9,3.9-3.9
		C11.5,31.1,13.2,32.8,13.2,35L13.2,35z M13.2,35"/>
	<path id="XMLID_1795_" class="st5" d="M25.7,35c0,2.1-1.7,3.9-3.9,3.9c-2.1,0-3.9-1.7-3.9-3.9c0-2.1,1.7-3.9,3.9-3.9
		C23.9,31.1,25.7,32.8,25.7,35L25.7,35z M25.7,35"/>
	<path id="XMLID_1787_" class="st0" d="M38.1,35c0,2.1-1.7,3.9-3.9,3.9c-2.1,0-3.9-1.7-3.9-3.9c0-2.1,1.7-3.9,3.9-3.9
		C36.4,31.1,38.1,32.8,38.1,35L38.1,35z M38.1,35"/>
</g>
</svg>
