<?xml version="1.0" encoding="utf-8"?>
<!-- Generator: Adobe Illustrator 19.0.0, SVG Export Plug-In . SVG Version: 6.00 Build 0)  -->
<svg version="1.1" id="Layer_1" xmlns="http://www.w3.org/2000/svg" xmlns:xlink="http://www.w3.org/1999/xlink" x="0px" y="0px"
	 viewBox="0 0 89.8 78.6" style="enable-background:new 0 0 89.8 78.6;" xml:space="preserve">
<style type="text/css">
	.st0{fill:#C2CCD0;}
	.st1{fill:#2CB900;}
	.st2{fill:#424A60;}
</style>
<g id="XMLID_2632_">
	<g id="XMLID_2647_">
		<path id="XMLID_2650_" class="st0" d="M82.3,0H7.5C3.4,0,0,3.4,0,7.5v48.8c0,4.1,3.4,7.5,7.5,7.5h24.1L27,73.8
			c-0.5,1-0.4,2.3,0.2,3.2c0.6,1,1.7,1.5,2.8,1.5h29.6c0,0,0,0,0,0c1.9,0,3.4-1.5,3.4-3.4c0-0.6-0.1-1.1-0.4-1.6l-4.5-9.9h24.1
			c4.1,0,7.5-3.4,7.5-7.5V7.5C89.8,3.4,86.5,0,82.3,0L82.3,0z M83.1,56.3c0,0.4-0.3,0.7-0.7,0.7H7.5c-0.4,0-0.7-0.3-0.7-0.7V7.5
			c0-0.4,0.3-0.7,0.7-0.7h74.8c0.4,0,0.7,0.3,0.7,0.7V56.3z M83.1,56.3"/>
	</g>
	<path id="XMLID_2638_" class="st1" d="M16.4,30.9c2.1,0.2,4.1-0.5,5.5-1.9l18.4,6.6c0.2,3.2,2.7,6,6,6.3c3.7,0.4,7.1-2.3,7.5-6
		c0-0.3,0-0.5,0-0.8l15.5-11.3c0.8,0.4,1.6,0.7,2.6,0.8c3.7,0.4,7.1-2.3,7.5-6s-2.3-7.1-6-7.5c-3.7-0.4-7.1,2.3-7.5,6
		c-0.1,1.2,0.1,2.3,0.5,3.4L52.3,30.9c-1.1-1.3-2.7-2.2-4.5-2.4c-2.6-0.3-5,0.9-6.4,2.9l-17.6-6.3c0,0,0-0.1,0-0.1
		c0.4-3.7-2.3-7.1-6-7.5c-3.7-0.4-7.1,2.3-7.5,6C10,27.2,12.6,30.5,16.4,30.9L16.4,30.9z M70.3,17.7c0.1-1.3,1.3-2.3,2.7-2.1
		c1.3,0.1,2.3,1.3,2.1,2.7c-0.1,1.3-1.3,2.3-2.7,2.1C71.1,20.2,70.2,19,70.3,17.7L70.3,17.7z M44.7,35c0.1-1.3,1.3-2.3,2.7-2.1
		c1.3,0.1,2.3,1.3,2.1,2.7c-0.1,1.3-1.3,2.3-2.7,2.1C45.5,37.5,44.5,36.3,44.7,35L44.7,35z M14.7,23.9c0.1-1.3,1.3-2.3,2.7-2.1
		c1.3,0.1,2.3,1.3,2.1,2.7c-0.1,1.3-1.3,2.3-2.7,2.1C15.5,26.4,14.6,25.2,14.7,23.9L14.7,23.9z M14.7,23.9"/>
	<path id="XMLID_2634_" class="st2" d="M72.7,28.4c-0.3,0-0.7,0-1-0.1c-0.7-0.1-1.4-0.2-2.1-0.5L56,37.8c-0.6,4.5-4.4,7.8-8.9,7.8
		c-0.3,0-0.7,0-1-0.1c-3.8-0.4-6.9-3.2-7.7-6.9l-16-5.7c-1.5,1.1-3.3,1.7-5.2,1.7h0c-0.3,0-0.7,0-1-0.1c-2.3-0.3-4.4-1.4-5.8-3.1
		v22.1h69.2V25.3C77.8,27.2,75.4,28.4,72.7,28.4L72.7,28.4z M72.7,28.4"/>
</g>
</svg>
