<?xml version="1.0" encoding="utf-8"?>
<!-- Generator: Adobe Illustrator 19.0.0, SVG Export Plug-In . SVG Version: 6.00 Build 0)  -->
<svg version="1.1" id="Layer_1" xmlns="http://www.w3.org/2000/svg" xmlns:xlink="http://www.w3.org/1999/xlink" x="0px" y="0px"
	 viewBox="0 0 53.9 61.4" style="enable-background:new 0 0 53.9 61.4;" xml:space="preserve">
<style type="text/css">
	.st0{fill:#A3F700;}
</style>
<g id="XMLID_701_">
	<g id="XMLID_281_">
		<path id="XMLID_296_" class="st0" d="M3.6,43.8h0.2c2,0,3.6-1.6,3.6-3.6V24.8c0-2-1.6-3.6-3.6-3.6H3.6c-2,0-3.6,1.6-3.6,3.6v15.5
			C0,42.2,1.6,43.8,3.6,43.8L3.6,43.8z M3.6,43.8"/>
		<path id="XMLID_293_" class="st0" d="M10.4,46.2c0,1.8,1.5,3.3,3.3,3.3h1.8v8.4c0,2,1.6,3.6,3.6,3.6h0.1c2,0,3.6-1.6,3.6-3.6v-8.4
			H31v8.4c0,2,1.6,3.6,3.6,3.6h0.1c2,0,3.6-1.6,3.6-3.6v-8.4h1.8c1.8,0,3.3-1.5,3.3-3.3V21.8h-33V46.2z M10.4,46.2"/>
		<path id="XMLID_288_" class="st0" d="M43.4,18.6c0-0.3,0-0.6,0-1c0-5.3-3.4-9.9-8.4-12.4l2.8-4.3C38,0.7,38,0.3,37.7,0.1
			c-0.3-0.2-0.6-0.1-0.8,0.2L34,4.7c-2.2-0.9-4.6-1.4-7.1-1.4c-2.6,0-5,0.5-7.1,1.4l-2.9-4.4c-0.2-0.3-0.5-0.4-0.8-0.2
			c-0.3,0.2-0.4,0.5-0.2,0.8l2.8,4.3c-5,2.5-8.4,7.1-8.4,12.4c0,0.3,0,0.6,0.1,1H43.4z M34.5,9.7c0.9,0,1.6,0.7,1.6,1.6
			c0,0.9-0.7,1.6-1.6,1.6c-0.9,0-1.6-0.7-1.6-1.6C33,10.4,33.7,9.7,34.5,9.7L34.5,9.7z M19.2,9.7c0.9,0,1.6,0.7,1.6,1.6
			c0,0.9-0.7,1.6-1.6,1.6c-0.9,0-1.6-0.7-1.6-1.6C17.6,10.4,18.3,9.7,19.2,9.7L19.2,9.7z M19.2,9.7"/>
		<path id="XMLID_282_" class="st0" d="M50.2,43.8h0.2c2,0,3.6-1.6,3.6-3.6V24.8c0-2-1.6-3.6-3.6-3.6h-0.2c-2,0-3.6,1.6-3.6,3.6
			v15.5C46.7,42.2,48.3,43.8,50.2,43.8L50.2,43.8z M50.2,43.8"/>
	</g>
</g>
</svg>
