<?xml version="1.0" encoding="utf-8"?>
<!-- Generator: Adobe Illustrator 19.0.0, SVG Export Plug-In . SVG Version: 6.00 Build 0)  -->
<svg version="1.1" id="Layer_1" xmlns="http://www.w3.org/2000/svg" xmlns:xlink="http://www.w3.org/1999/xlink" x="0px" y="0px"
	 viewBox="0 0 93.4 96.9" style="enable-background:new 0 0 93.4 96.9;" xml:space="preserve">
<style type="text/css">
	.st0{fill:#2CB900;}
	.st1{fill:#25A600;}
	.st2{fill:#303E3F;}
	.st3{fill:#FFFFFF;}
</style>
<g id="XMLID_5_">
	<g id="XMLID_448_">
		<path id="XMLID_458_" class="st0" d="M23.3,25.3L23.3,25.3c-1.8,0.5-3.7-0.5-4.2-2.4L14.2,6c-0.5-1.8,0.5-3.7,2.4-4.2l0,0
			c1.8-0.5,3.7,0.5,4.2,2.4l4.8,17C26.2,22.9,25.1,24.8,23.3,25.3z"/>
		<path id="XMLID_456_" class="st0" d="M70,25.6L70,25.6c1.8,0.5,3.7-0.5,4.2-2.4L79.1,6c0.5-1.8-0.5-3.7-2.4-4.2l0,0
			c-1.8-0.5-3.7,0.5-4.2,2.4l-4.9,17.2C67.1,23.2,68.2,25.1,70,25.6z"/>
	</g>
	<g id="XMLID_627_">
		<g id="XMLID_902_">
			<g id="XMLID_903_">
				<g id="XMLID_905_">
					<g id="XMLID_910_">
						<g id="XMLID_2113_">
							<path id="XMLID_2118_" class="st0" d="M93.2,32.4c0.2,0.4,0.3,0.9,0.2,1.3c-0.1,0.4-0.4,0.8-0.8,1l-4.4,2.6
								c-0.6,0.3-0.9,1-0.7,1.6c0.7,3,1,6.1,1,9.2c0,3-0.4,6.1-1.1,9.2c-0.1,0.6,0.1,1.3,0.7,1.6l4.5,2.6c0.8,0.5,1.1,1.5,0.6,2.3
								l-9.6,16.6c-0.5,0.8-1.5,1.1-2.3,0.6l-4.5-2.6c-0.6-0.3-1.3-0.3-1.8,0.2c-4.6,4.2-10.1,7.4-15.9,9.2
								c-0.6,0.2-1.1,0.8-1.1,1.4v5.1c0,0.9-0.8,1.7-1.7,1.7H37.1c-0.9,0-1.7-0.8-1.7-1.7v-5.1c0-0.7-0.4-1.2-1.1-1.4
								c-5.9-1.8-11.4-5-16-9.2c-0.3-0.3-0.6-0.4-1-0.4c-0.3,0-0.5,0.1-0.8,0.2l-4.5,2.6c-0.8,0.5-1.8,0.2-2.3-0.6L0.2,63.8
								C-0.2,63,0,62,0.9,61.5L5.3,59c0.6-0.3,0.9-1,0.7-1.6c-0.7-3-1-6.1-1-9.2c0-3,0.4-6.1,1-9.2c0.2-0.6-0.1-1.3-0.7-1.6
								l-4.5-2.6c-0.4-0.2-0.7-0.6-0.8-1c-0.1-0.4-0.1-0.9,0.2-1.3l9.6-16.6c0.2-0.4,0.6-0.7,1-0.8c0.4-0.1,0.9,0,1.3,0.2l4.5,2.6
								c0.6,0.3,1.3,0.3,1.8-0.2c4.6-4.2,10.1-7.4,15.9-9.2c0.6-0.2,1.1-0.8,1.1-1.4V1.7c0-0.9,0.8-1.7,1.7-1.7h19.2
								C57.2,0,58,0.8,58,1.7v5.1c0,0.7,0.4,1.2,1.1,1.4c5.9,1.8,11.4,5,15.9,9.2c0.5,0.5,1.2,0.5,1.8,0.2l4.5-2.6
								c0.4-0.2,0.8-0.3,1.3-0.2c0.4,0.1,0.8,0.4,1,0.8L93.2,32.4z M77,48.1c0-16.7-13.6-30.3-30.3-30.3S16.4,31.4,16.4,48.1
								S30,78.4,46.7,78.4S77,64.8,77,48.1z"/>
						</g>
						<path id="XMLID_2008_" class="st1" d="M93.2,63.8l-9.6,16.6c-0.5,0.8-1.5,1.1-2.3,0.6l-4.5-2.6c-0.6-0.3-1.3-0.3-1.8,0.2
							c-4.6,4.2-10.5,7.4-16.4,9.2c-0.6,0.2-1.5,0.8-1.5,1.4v5.1c0,0.9,0.1,2.4-0.8,2.4H37.1c-0.9,0-2-1.4-2-2.4v-5.1
							c0-0.7-0.3-1.2-0.9-1.4c-5.9-1.8-11.3-5-15.9-9.2c-0.3-0.3-0.6-0.4-1-0.4c-0.3,0-0.5,0.1-0.7,0.2L15.8,79l9.5-9.5
							c5.5,5.5,13.1,8.9,21.4,8.9C63.4,78.4,77,64.8,77,48.1c0-8.3-3.4-15.9-8.9-21.4l9.5-9.5l3.7-2.1c0.4-0.2,0.9-0.3,1.3-0.2
							c0.4,0.1,0.8,0.4,1,0.8l9.6,16.6c0.2,0.4,0.3,0.8,0.2,1.3c-0.1,0.4-0.4,0.8-0.8,1l-4.5,2.6c-0.6,0.3-0.9,1-0.7,1.6
							c0.7,3,1,6.1,1,9.2c0,3-0.4,6.1-1.1,9.2c-0.1,0.6,0.1,1.3,0.7,1.6l4.5,2.6C93.3,62,93.6,63,93.2,63.8z"/>
					</g>
					<path id="XMLID_933_" class="st2" d="M62.6,41.7v12.8c0,0.8-0.7,1.5-1.5,1.5s-1.5-0.7-1.5-1.5V41.7c0-0.8,0.7-1.5,1.5-1.5
						S62.6,40.9,62.6,41.7z"/>
					<path id="XMLID_915_" class="st2" d="M52.3,40.2c3,0,5.5,2.5,5.5,5.5c0,3-2.5,5.5-5.5,5.5h-4.1v3.3c0,0.8-0.7,1.5-1.5,1.5
						s-1.5-0.7-1.5-1.5V41.7c0-0.8,0.7-1.5,1.5-1.5H52.3z M54.8,45.7c0-1.4-1.1-2.5-2.5-2.5h-4.1v5h4.1
						C53.7,48.2,54.8,47.1,54.8,45.7z"/>
					<path id="XMLID_911_" class="st2" d="M43.3,54c0.3,0.8-0.1,1.6-0.9,1.9C42.2,56,42.1,56,41.9,56c-0.6,0-1.2-0.4-1.4-1l-0.8-2.2
						h-6.7L32.1,55c-0.3,0.8-1.2,1.2-1.9,0.9c-0.8-0.3-1.2-1.2-0.9-1.9l4.8-12.8c0.2-0.6,0.8-1,1.4-1h1.6c0.6,0,1.2,0.4,1.4,1
						L43.3,54z M38.5,49.8l-2.2-6l-2.2,6H38.5z"/>
					<path id="XMLID_2350_" class="st3" d="M61.7,12.8c0.8,0.3,1.1,1.2,0.8,2c-0.3,0.6-0.8,0.9-1.4,0.9c-0.2,0-0.4,0-0.6-0.1
						c-1-0.4-2-0.8-3.1-1.1c-0.8-0.3-1.2-1.1-1-1.9s1.1-1.2,1.9-1C59.5,12,60.6,12.4,61.7,12.8z"/>
					<path id="XMLID_2349_" class="st3" d="M68.3,16.5c7.6,5.2,13,12.9,15.4,21.7c0.2,0.8-0.3,1.6-1.1,1.8c-0.1,0-0.3,0-0.4,0
						c-0.7,0-1.3-0.4-1.5-1.1c-2.2-8.1-7.2-15.2-14.2-20c-0.7-0.5-0.9-1.4-0.4-2.1C66.7,16.2,67.6,16,68.3,16.5z"/>
					<path id="XMLID_2348_" class="st3" d="M22.1,73.5c5.8,5.6,13.5,9.1,21.5,9.8c0.8,0.1,1.4,0.8,1.4,1.6c-0.1,0.8-0.7,1.4-1.5,1.4
						c0,0-0.1,0-0.1,0c-8.7-0.8-17-4.5-23.3-10.6c-0.6-0.6-0.6-1.5,0-2.1C20.6,72.9,21.5,72.9,22.1,73.5z"/>
					<path id="XMLID_2347_" class="st3" d="M15.1,69.8c-0.7-1.1-1.4-2.2-2.1-3.3c-0.4-0.7-0.1-1.6,0.6-2c0.7-0.4,1.6-0.1,2,0.6
						c0.6,1.1,1.2,2.1,1.9,3.1c0.5,0.7,0.3,1.6-0.4,2.1c-0.3,0.2-0.6,0.3-0.9,0.3C15.9,70.4,15.4,70.2,15.1,69.8z"/>
				</g>
			</g>
		</g>
		<g id="XMLID_630_">
			<g id="XMLID_97_">
				<path id="XMLID_102_" class="st3" d="M83.7,38.1c0.2,0.8-0.3,1.6-1.1,1.8c-0.1,0-0.3,0.1-0.4,0.1c-0.7,0-1.3-0.4-1.4-1.1
					c-2.2-8.1-7.2-15.2-14.2-20c-0.7-0.5-0.9-1.4-0.4-2.1c0.5-0.7,1.4-0.9,2.1-0.4C75.8,21.6,81.3,29.3,83.7,38.1z"/>
				<path id="XMLID_100_" class="st3" d="M61.7,12.8c0.8,0.3,1.1,1.2,0.8,2c-0.2,0.6-0.8,0.9-1.4,0.9c-0.2,0-0.4,0-0.6-0.1
					c-1-0.4-2-0.8-3.1-1.1c-0.8-0.3-1.2-1.1-1-1.9c0.3-0.8,1.1-1.2,1.9-1C59.5,12,60.6,12.4,61.7,12.8z"/>
				<path id="XMLID_99_" class="st3" d="M43.6,83.3c0.8,0.1,1.4,0.8,1.4,1.6c-0.1,0.8-0.7,1.4-1.5,1.4c0,0-0.1,0-0.1,0
					c-8.7-0.8-17-4.5-23.3-10.6c-0.6-0.6-0.6-1.5,0-2.1c0.6-0.6,1.5-0.6,2.1,0C27.9,79.1,35.6,82.6,43.6,83.3z"/>
				<path id="XMLID_98_" class="st3" d="M17.6,68.1c0.5,0.7,0.3,1.6-0.4,2.1c-0.3,0.2-0.6,0.3-0.8,0.3c-0.5,0-0.9-0.2-1.2-0.6
					c-0.7-1.1-1.4-2.2-2-3.3c-0.4-0.7-0.1-1.6,0.6-2c0.7-0.4,1.6-0.1,2,0.6C16.2,66,16.9,67.1,17.6,68.1z"/>
			</g>
		</g>
	</g>
</g>
</svg>
