<?xml version="1.0" encoding="utf-8"?>
<!-- Generator: Adobe Illustrator 19.0.0, SVG Export Plug-In . SVG Version: 6.00 Build 0)  -->
<svg version="1.1" id="Layer_1" xmlns="http://www.w3.org/2000/svg" xmlns:xlink="http://www.w3.org/1999/xlink" x="0px" y="0px"
	 viewBox="0 0 66.2 84.7" style="enable-background:new 0 0 66.2 84.7;" xml:space="preserve">
<style type="text/css">
	.st0{fill:#A3F700;}
	.st1{fill:#424A60;}
	.st2{fill:#556080;}
	.st3{fill:#7382BE;}
	.st4{fill:#259200;}
	.st5{fill:#2CB900;}
	.st6{fill:#87DC00;}
	.st7{fill:#FFFFFF;}
</style>
<g id="XMLID_7_">
	<g id="XMLID_3_">
		<path id="XMLID_2_" class="st0" d="M17.6,21.7L17.6,21.7c-1.3,0.4-2.7-0.4-3.1-1.7L9.7,3.1c-0.4-1.3,0.4-2.7,1.7-3.1l0,0
			c1.3-0.4,2.7,0.4,3.1,1.7l4.8,16.9C19.7,20,18.9,21.3,17.6,21.7z"/>
		<path id="XMLID_78_" class="st0" d="M48.7,21.7L48.7,21.7c1.3,0.4,2.7-0.4,3.1-1.7l4.8-16.9c0.4-1.3-0.4-2.7-1.7-3.1l0,0
			c-1.3-0.4-2.7,0.4-3.1,1.7L47,18.7C46.6,20,47.3,21.3,48.7,21.7z"/>
	</g>
	<g id="XMLID_912_">
		<path id="XMLID_2151_" class="st1" d="M0,55.7v0.7C0,56.2,0,55.9,0,55.7L0,55.7z M0,55.7"/>
		<path id="XMLID_2120_" class="st1" d="M66.2,55.7c0,0.2,0.1,0.5,0.1,0.7L66.2,55.7L66.2,55.7z M66.2,55.7"/>
		<path id="XMLID_2024_" class="st2" d="M0,39.2v0.7C0,39.6,0,39.4,0,39.2L0,39.2z M0,39.2"/>
		<path id="XMLID_1462_" class="st2" d="M66.2,39.2c0,0.2,0.1,0.5,0.1,0.7L66.2,39.2L66.2,39.2z M66.2,39.2"/>
		<path id="XMLID_952_" class="st3" d="M0,22.6v0.7C0,23.1,0,22.8,0,22.6L0,22.6z M0,22.6"/>
		<path id="XMLID_938_" class="st3" d="M66.2,22.6c0,0.2,0.1,0.5,0.1,0.7L66.2,22.6L66.2,22.6z M66.2,22.6"/>
	</g>
	<g id="XMLID_626_">
		<path id="XMLID_2319_" class="st4" d="M33.1,68.1C14.8,68.1,0,62.9,0,56.4v17.3h0.1c1,6.2,15.4,11,33.1,11c17.6,0,32-4.9,33.1-11
			h0.1V56.4C66.2,62.9,51.4,68.1,33.1,68.1L33.1,68.1z M33.1,68.1"/>
		<path id="XMLID_2083_" class="st5" d="M33.1,51.6C14.8,51.6,0,46.3,0,39.8v17.3h0.1c1,6.2,15.4,11,33.1,11c17.6,0,32-4.9,33.1-11
			h0.1V39.8C66.2,46.3,51.4,51.6,33.1,51.6L33.1,51.6z M33.1,51.6"/>
		<path id="XMLID_1244_" class="st0" d="M66.2,23.3c0,6.5-14.8,11.7-33.1,11.7C14.8,35,0,29.8,0,23.3c0-6.5,14.8-11.7,33.1-11.7
			C51.4,11.6,66.2,16.8,66.2,23.3L66.2,23.3z M66.2,23.3"/>
		<path id="XMLID_961_" class="st6" d="M33.1,35C14.8,35,0,29.8,0,23.3v17.3h0.1c1,6.2,15.4,11,33.1,11c17.6,0,32-4.9,33.1-11h0.1
			V23.3C66.2,29.8,51.4,35,33.1,35L33.1,35z M33.1,35"/>
	</g>
	<circle id="XMLID_4_" class="st7" cx="18.1" cy="42.1" r="3.3"/>
	<circle id="XMLID_6_" class="st7" cx="48.1" cy="42.1" r="3.3"/>
</g>
</svg>
