<?xml version="1.0" encoding="utf-8"?>
<!-- Generator: Adobe Illustrator 19.0.0, SVG Export Plug-In . SVG Version: 6.00 Build 0)  -->
<svg version="1.1" id="Layer_1" xmlns="http://www.w3.org/2000/svg" xmlns:xlink="http://www.w3.org/1999/xlink" x="0px" y="0px"
	 viewBox="92.2 -440.9 1564.3 1563.4" style="enable-background:new 92.2 -440.9 1564.3 1563.4;" xml:space="preserve">
<style type="text/css">
	.st0{fill:#38454F;}
	.st1{fill:#2CA500;}
	.st2{opacity:0.3;fill:#A3F700;enable-background:new    ;}
	.st3{fill:#E3E2E2;}
	.st4{fill:#FFFFFF;}
	.st5{fill:#006588;}
	.st6{fill:#40576D;}
	.st7{fill:#5C7C98;}
	.st8{fill:#A3F700;}
	.st9{fill:#FBFBFB;}
	.st10{fill:#C1D3D6;}
	.st11{fill:none;stroke:#006588;stroke-linecap:round;stroke-linejoin:round;stroke-miterlimit:10;}
	.st12{fill:#E2E5E4;}
	.st13{fill:#CCCBCB;}
	.st14{fill:#3E3B10;stroke:#FFFFFF;stroke-width:5;stroke-miterlimit:10;}
	.st15{fill:none;stroke:#FFFFFF;stroke-width:5;stroke-linecap:round;stroke-linejoin:round;stroke-miterlimit:10;}
	.st16{fill:#F6A61E;}
	.st17{fill:none;stroke:#FFFFFF;stroke-width:3;stroke-linecap:round;stroke-linejoin:round;stroke-dasharray:10.0415,10.0415;}
	.st18{fill:#3E1010;}
	.st19{fill:#354344;}
	.st20{fill:#445152;}
	.st21{fill:#E7E7E7;}
	.st22{fill:none;stroke:#38454F;stroke-width:5;stroke-miterlimit:10;}
	.st23{fill:none;}
</style>
<path id="XMLID_1952_" class="st0" d="M877.8,446.1c-79.6,0-144.3-64.7-144.3-144.3s64.7-144.3,144.3-144.3s144.3,64.7,144.3,144.3
	S957.4,446.1,877.8,446.1z M877.8,158.8c-78.9,0-143,64.2-143,143c0,78.9,64.2,143,143,143s143-64.2,143-143
	S956.7,158.8,877.8,158.8z"/>
<path id="XMLID_1945_" class="st0" d="M936.4,491.4l-0.2-0.5l-14.1-44.2l0.5-0.2c63.6-20.2,106.3-78.7,106.3-145.6
	c0-3.3-0.1-6.8-0.4-11v-0.5l46.9-3.5v0.5c0.3,4.9,0.5,9.7,0.5,14.4c0,43.1-13.6,84.2-39.3,118.8c-24.9,33.5-60.2,58.8-99.7,71.5
	L936.4,491.4z M923.4,447.3l13.7,42.8c82.5-26.7,137.8-102.6,137.8-189.2c0-4.5-0.2-9.1-0.5-13.9l-44.9,3.3c0.3,4,0.4,7.4,0.4,10.5
	C1029.9,368.2,987.1,426.9,923.4,447.3z M745.2,451.6l-0.4-0.3c-21.1-18.4-38.4-41.5-50.1-66.8l-0.2-0.5l0.5-0.2l42.2-19.3l0.2,0.5
	c9,19.5,21.8,36.7,38,50.9l0.4,0.3l-0.3,0.4L745.2,451.6z M695.9,384.5c11.6,24.8,28.6,47.5,49.3,65.7l29.2-33.9
	c-16-14.1-28.7-31.1-37.7-50.4L695.9,384.5z M739.5,232.5l-41.7-21.3l0.2-0.4c16.5-32.4,41.5-59.7,72.3-79.1
	c31.7-19.9,68.3-30.4,105.8-30.4c32,0,63.8,7.8,92,22.5l0.4,0.2l-0.2,0.4L947,165.6l-0.4-0.2c-21.9-11.4-45.6-17.2-70.5-17.2
	c-58.1,0-110.3,32.1-136.4,83.8L739.5,232.5z M699.1,210.7l39.9,20.4c26.3-51.8,78.8-83.9,137.1-83.9c24.9,0,48.6,5.7,70.6,17
	l20.6-39.8c-28-14.5-59.5-22.2-91.1-22.2C801.2,102.2,733.4,143.8,699.1,210.7z"/>
<path id="XMLID_1942_" class="st0" d="M872.1,605.7c-166.9,0-302.7-135.8-302.7-302.7S705.2,0.3,872.1,0.3s302.7,135.8,302.7,302.7
	S1039,605.7,872.1,605.7z M872.1,2.8c-165.6,0-300.3,134.7-300.3,300.3s134.7,300.3,300.3,300.3s300.3-134.7,300.3-300.3
	S1037.7,2.8,872.1,2.8z"/>
<path id="XMLID_1935_" class="st0" d="M872.5,598.2c-8.6,0-17.2-0.4-25.8-1.2l-1-0.1l6.5-68.4l1,0.1c31.1,2.9,62-0.8,91.7-10.9
	l0.9-0.3l22.6,64.8l-1,0.3C937.1,592.8,904.7,598.2,872.5,598.2z M847.9,595.1c39.5,3.4,80.3-1.5,118-14.2l-21.3-61
	c-29.4,9.8-59.8,13.5-90.6,10.8L847.9,595.1z M630.4,467.1l-0.5-0.8c-28.8-44.4-45.1-95.9-47-148.9c-2-54.5,11.4-108.3,38.7-155.6
	l0,0c23.3-40.3,56.3-74.8,95.5-99.7l0.8-0.5l37.1,57.8l-0.8,0.5c-30.3,19.3-54.8,45-72.9,76.3c-42.2,73.1-39.8,162.2,6.4,232.6
	l0.5,0.8L630.4,467.1z M717.2,64.4c-38.5,24.7-71,58.7-94,98.5l0,0c-54.4,94.3-51.4,209.7,7.8,301.5l54.3-35.2
	c-46-70.9-48.3-160.4-5.9-233.9c18.1-31.3,42.5-57,72.7-76.5L717.2,64.4z M1157.6,370.2l-67.2-14.7l0.2-1
	c20.8-94.7-21.8-190.9-106-239.6c-4.1-2.4-8.6-4.7-14.1-7.4l-0.9-0.4l30-62.1l0.9,0.4c6.4,3.1,12.6,6.4,18.6,9.8
	c54.4,31.4,96.3,78.5,121.2,136.1c24.1,55.7,30.4,118.9,17.6,177.8L1157.6,370.2z M1092.7,354.1l63.3,13.8
	c26.2-123.1-29.2-247.9-138.1-310.8c-5.6-3.3-11.5-6.4-17.5-9.3l-28.3,58.5c5.1,2.5,9.4,4.8,13.3,7
	C1070.2,162.2,1113.2,258.9,1092.7,354.1z"/>
<path id="XMLID_1928_" class="st0" d="M786.8,716.9l-1.1-0.2C711.1,700.9,642.1,665,586.1,613c-57.6-53.5-98.7-121.9-119.1-197.9
	c-17.4-64.8-18.8-133.5-4.3-198.8l0.2-1.1l96.1,21l-0.2,1.1c-11.2,50.6-10,101.9,3.5,152.3c31.7,117.6,125.1,206.1,244,230.8
	l1.1,0.2L786.8,716.9z M464.7,217.8c-14.2,64.6-12.7,132.6,4.5,196.7c40.7,151.8,161.7,266.6,315.9,299.8l19.7-91.9
	C685.6,597.1,592,508.2,560.3,390.1c-13.5-50.4-14.8-101.6-3.8-152.3L464.7,217.8z M1139,629.6l-62.7-75.9l0.8-0.7
	c34.7-28.9,62.5-64.1,82.5-104.7l0.5-1l1,0.5l87.4,42.2l-0.5,1c-25.9,52.7-63.3,100.4-108.2,137.9L1139,629.6z M1079.4,554
	l59.9,72.5c44-36.9,80.7-83.7,106.3-135.5l-84.5-40.8C1141.2,490.4,1113.7,525.3,1079.4,554z M1142.3,134.2l-0.6-0.9
	C1066.4,15.4,924.6-39.3,789-3c-6.6,1.8-13.6,3.9-22,6.8l-1,0.4l-32.5-93.3l1-0.4c9.7-3.3,19.5-6.3,29-8.8
	c87.3-23.4,178-18.2,262.2,15.2c81.3,32.2,152,90.2,199,163.2l0.6,0.9L1142.3,134.2z M873-16.3c107.6,0,209.7,53.8,270,147.5
	l79.2-50.9C1123.4-72.3,939.4-143.2,764-96.2c-9.1,2.4-18.4,5.3-27.7,8.5l31.1,89.1c8-2.7,14.7-4.8,21.1-6.5
	C816.6-12.6,845-16.3,873-16.3z"/>
<path id="XMLID_1921_" class="st0" d="M528.5,353.8h-41.4c-4.7,0-8.5-3.8-8.5-8.5v-26.4c0-4.7,3.8-8.5,8.5-8.5h41.4
	c4.7,0,8.5,3.8,8.5,8.5v26.4C537,350,533.2,353.8,528.5,353.8z M487.1,311.5c-4.1,0-7.4,3.3-7.4,7.4v26.4c0,4.1,3.3,7.4,7.4,7.4
	h41.4c4.1,0,7.4-3.3,7.4-7.4v-26.4c0-4.1-3.3-7.4-7.4-7.4H487.1z M526.7,340.1h-32.8c-2.2,0-4-1.8-4-4s1.8-4,4-4h32.8
	c2.2,0,4,1.8,4,4C530.7,338.2,528.9,340.1,526.7,340.1z M493.8,333c-1.7,0-3,1.4-3,3c0,1.7,1.4,3,3,3h32.8c1.7,0,3-1.4,3-3
	c0-1.7-1.4-3-3-3H493.8z M526.7,325.8h-37.9c-2.2,0-4-1.8-4-4s1.8-4,4-4h37.9c2.2,0,4,1.8,4,4S528.9,325.8,526.7,325.8z
	 M488.8,318.7c-1.7,0-3,1.4-3,3s1.4,3,3,3h37.9c1.7,0,3-1.4,3-3s-1.4-3-3-3H488.8z"/>
<path id="XMLID_1361_" class="st0" d="M537.6,372.3l-31.6-20h22.5l0.1,0.3L537.6,372.3z M509.6,353.4l25.6,16.3l-7.4-16.3H509.6z"/>
<path id="XMLID_1334_" class="st0" d="M829.6,88h-10.4l-0.9-5.6c-1.2-0.5-2.3-0.9-3.3-1.4l-4.6,3.1l-7.3-7.3l3.1-4.6
	c-0.7-1.2-1.2-2.2-1.5-3.4l-5.5-0.9V57.8l5.3-0.6c0.1-0.2,0.2-0.5,0.2-0.7c0.3-0.9,0.6-1.7,1.1-2.6l-3.1-4.6L810,42l4.6,3.4
	c1.1-0.7,2.2-1.1,3.3-1.5l0.9-5.5H829l0.6,5.5c1.1,0.3,2.2,0.8,3.3,1.4l4.6-3.4l7.3,7.3l-3.4,4.6c0.7,1.3,1.1,2.3,1.4,3.3l5.5,0.9
	v10.2l-4.6,0.9c-0.3,1.1-0.8,2.2-1.4,3.3l3.4,4.6l-7.3,7.3l-4.6-3.4c-1.1,0.7-2.2,1.1-3.3,1.5L829.6,88z M820.6,86.2h7.4l0.9-5.2
	l0.6-0.1c1.4-0.3,2.5-0.8,3.9-1.7l0.5-0.3l4.3,3.2l5.2-5.2l-3.2-4.3l0.3-0.5c0.8-1.3,1.4-2.7,1.7-3.9l0.1-0.5l4.3-0.9v-7.2l-5.2-0.9
	l-0.1-0.6c-0.3-1.1-0.8-2.2-1.7-3.9l-0.2-0.5l0.3-0.5l2.8-3.8l-5.2-5.2l-4.3,3.2l-0.5-0.3c-1.3-0.8-2.7-1.4-3.9-1.7l-0.6-0.1
	l-0.6-5.2h-7.1l-0.9,5.2l-0.6,0.1c-1.4,0.3-2.5,0.8-3.9,1.7l-0.5,0.3l-4.3-3.2l-5.2,5.2l2.9,4.3l-0.3,0.5c-0.6,1-0.9,1.8-1.3,2.8
	c-0.1,0.4-0.3,0.8-0.5,1.2l-0.2,0.5l-4.8,0.6v7.1l5.2,0.9l0.1,0.6c0.3,1.4,0.8,2.5,1.7,3.9l0.3,0.5l-2.9,4.3l5.2,5.2l4.3-2.9
	l0.5,0.2c1.1,0.6,2.6,1.2,4,1.7l0.5,0.2l0.1,0.5L820.6,86.2z M823.8,72.8c-5.5,0-9.8-4.3-9.8-9.8s4.3-9.8,9.8-9.8s9.8,4.3,9.8,9.8
	C833.5,68.6,829.3,72.8,823.8,72.8z M823.8,55c-4.6,0-8,3.5-8,8c0,4.6,3.5,8,8,8c4.6,0,8-3.5,8-8S828.3,55,823.8,55z"/>
<path id="XMLID_1236_" class="st0" d="M681,30h-7.8c-0.9,0-1.7-0.8-1.7-1.7v-2c0-0.9,0.8-1.7,1.7-1.7h7.8c0.9,0,1.7,0.8,1.7,1.7v2
	C682.7,29.3,681.9,30,681,30z M673.1,25.8c-0.3,0-0.5,0.2-0.5,0.5v2c0,0.3,0.2,0.5,0.5,0.5h7.8c0.3,0,0.5-0.2,0.5-0.5v-2
	c0-0.3-0.2-0.5-0.5-0.5H673.1z"/>
<path id="XMLID_1086_" class="st1" d="M919.4,988.8c-1.8,0-3.3-1.4-3.4-3.2c-0.1-1.9,1.3-3.5,3.2-3.6c2.2-0.1,4.5-0.3,6.7-0.4
	c1.9-0.1,3.5,1.3,3.6,3.1c0.1,1.9-1.3,3.5-3.1,3.6c-2.3,0.2-4.5,0.3-6.8,0.4C919.5,988.8,919.4,988.8,919.4,988.8z M838.3,988.8
	c-0.1,0-0.1,0-0.2,0c-2.3-0.1-4.5-0.3-6.8-0.4c-1.9-0.1-3.3-1.8-3.1-3.6c0.1-1.9,1.7-3.2,3.6-3.1c2.2,0.2,4.5,0.3,6.7,0.4
	c1.9,0.1,3.3,1.7,3.2,3.6C841.5,987.4,840,988.8,838.3,988.8z M1006.5,977.6c-1.6,0-3-1.1-3.3-2.7c-0.4-1.8,0.8-3.6,2.7-4
	c2.2-0.4,4.4-0.9,6.6-1.3c1.8-0.4,3.6,0.8,4,2.6c0.4,1.8-0.8,3.6-2.6,4c-2.2,0.5-4.4,0.9-6.7,1.3
	C1006.9,977.6,1006.7,977.6,1006.5,977.6z M751.1,977.6c-0.2,0-0.4,0-0.7-0.1c-2.2-0.4-4.4-0.9-6.7-1.3c-1.8-0.4-3-2.2-2.6-4
	s2.2-3,4-2.6c2.2,0.5,4.4,0.9,6.6,1.3c1.8,0.4,3,2.1,2.7,4C754.1,976.5,752.7,977.6,751.1,977.6z M1091.4,955
	c-1.4,0-2.7-0.9-3.2-2.3c-0.6-1.8,0.3-3.7,2.1-4.3c2.1-0.7,4.2-1.5,6.4-2.2c1.8-0.6,3.7,0.3,4.3,2.1c0.6,1.8-0.3,3.7-2.1,4.3
	c-2.1,0.8-4.3,1.5-6.4,2.2C1092.1,954.9,1091.7,955,1091.4,955z M666.2,954.9c-0.4,0-0.7-0.1-1.1-0.2c-2.2-0.7-4.3-1.5-6.5-2.2
	c-1.8-0.6-2.7-2.6-2.1-4.3c0.6-1.8,2.5-2.7,4.3-2.1c2.1,0.8,4.2,1.5,6.4,2.2c1.8,0.6,2.7,2.5,2.1,4.3
	C668.9,954,667.6,954.9,666.2,954.9z M1172.5,921.1c-1.2,0-2.4-0.7-3-1.9c-0.8-1.7-0.2-3.7,1.5-4.5c2-1,4-2,6-3
	c1.7-0.8,3.7-0.2,4.6,1.5c0.9,1.7,0.2,3.7-1.5,4.6c-2,1-4,2-6,3.1C1173.5,921,1173,921.1,1172.5,921.1z M585,921
	c-0.5,0-1-0.1-1.5-0.4c-2-1-4.1-2-6.1-3.1c-1.7-0.9-2.3-2.9-1.5-4.6c0.9-1.7,2.9-2.3,4.6-1.5c2,1,4,2,6,3c1.7,0.8,2.4,2.9,1.5,4.5
	C587.5,920.3,586.3,921,585,921z M1248.2,876.8c-1.1,0-2.1-0.5-2.8-1.5c-1.1-1.5-0.6-3.7,0.9-4.7c1.9-1.3,3.7-2.5,5.5-3.8
	c1.5-1.1,3.6-0.7,4.7,0.9c1.1,1.5,0.7,3.6-0.9,4.7c-1.9,1.3-3.7,2.6-5.6,3.8C1249.6,876.6,1248.9,876.8,1248.2,876.8z M509.2,876.6
	c-0.7,0-1.3-0.2-1.9-0.6c-1.9-1.3-3.7-2.6-5.6-3.9c-1.5-1.1-1.9-3.2-0.8-4.7s3.2-1.9,4.7-0.9c1.8,1.3,3.7,2.6,5.6,3.8
	c1.5,1.1,1.9,3.2,0.9,4.7C511.3,876.1,510.3,876.6,509.2,876.6z M1317.5,822.7c-0.9,0-1.9-0.4-2.5-1.1c-1.2-1.4-1.1-3.5,0.3-4.8
	c1.7-1.5,3.3-3,5-4.5c1.4-1.3,3.5-1.2,4.8,0.2s1.2,3.5-0.2,4.8c-1.7,1.5-3.4,3-5,4.6C1319.1,822.4,1318.3,822.7,1317.5,822.7z
	 M439.9,822.5c-0.8,0-1.6-0.3-2.3-0.9c-1.7-1.5-3.4-3-5-4.6c-1.4-1.3-1.5-3.4-0.2-4.8c1.3-1.4,3.4-1.5,4.8-0.2c1.7,1.5,3.3,3,5,4.5
	c1.4,1.2,1.5,3.4,0.3,4.8C441.8,822.1,440.9,822.5,439.9,822.5z M1379,760c-0.8,0-1.6-0.3-2.2-0.8c-1.4-1.2-1.6-3.4-0.4-4.8
	c1.5-1.7,2.9-3.4,4.4-5.1c1.2-1.4,3.3-1.6,4.8-0.4c1.4,1.2,1.6,3.3,0.4,4.8c-1.5,1.7-2.9,3.5-4.4,5.2
	C1380.9,759.6,1379.9,760,1379,760z M378.5,759.7c-1,0-1.9-0.4-2.6-1.2c-1.5-1.7-2.9-3.4-4.4-5.2c-1.2-1.4-1-3.6,0.4-4.8
	s3.6-1,4.8,0.4c1.4,1.7,2.9,3.4,4.4,5.1c1.2,1.4,1.1,3.6-0.4,4.8C380,759.4,379.3,759.7,378.5,759.7z M1431.6,689.6
	c-0.6,0-1.3-0.2-1.8-0.5c-1.6-1-2-3.1-1-4.7c1.2-1.9,2.4-3.8,3.6-5.7c1-1.6,3.1-2,4.7-1s2,3.1,1,4.7c-1.2,1.9-2.4,3.8-3.7,5.7
	C1433.8,689.1,1432.7,689.6,1431.6,689.6z M325.9,689.4c-1.1,0-2.2-0.5-2.8-1.5c-1.2-1.9-2.5-3.8-3.7-5.7c-1-1.6-0.5-3.7,1-4.7
	c1.6-1,3.7-0.5,4.7,1c1.2,1.9,2.4,3.8,3.6,5.7c1,1.6,0.6,3.7-1,4.7C327.1,689.2,326.5,689.4,325.9,689.4z M1474.5,612.9
	c-0.5,0-1-0.1-1.4-0.3c-1.7-0.8-2.4-2.8-1.6-4.5c1-2,1.9-4.1,2.9-6.1c0.8-1.7,2.8-2.4,4.5-1.7c1.7,0.8,2.4,2.8,1.7,4.5
	c-1,2.1-1.9,4.1-2.9,6.2C1477,612.2,1475.8,612.9,1474.5,612.9z M283.1,612.7c-1.3,0-2.5-0.7-3.1-1.9c-1-2-1.9-4.1-2.9-6.1
	c-0.8-1.7,0-3.7,1.7-4.5c1.7-0.8,3.7,0,4.5,1.7c0.9,2,1.9,4.1,2.8,6.1c0.8,1.7,0.1,3.7-1.6,4.5C284.1,612.6,283.6,612.7,283.1,612.7
	z M1506.7,531.1c-0.3,0-0.7-0.1-1-0.2c-1.8-0.6-2.8-2.5-2.2-4.2c0.7-2.1,1.4-4.3,2-6.4c0.5-1.8,2.4-2.8,4.2-2.2
	c1.8,0.5,2.8,2.4,2.2,4.2c-0.7,2.2-1.3,4.4-2,6.5C1509.5,530.1,1508.1,531.1,1506.7,531.1z M250.9,530.9c-1.4,0-2.8-0.9-3.2-2.4
	c-0.7-2.2-1.4-4.3-2-6.5c-0.5-1.8,0.5-3.7,2.2-4.2c1.8-0.5,3.7,0.5,4.2,2.2c0.7,2.1,1.3,4.3,2,6.4c0.6,1.8-0.4,3.7-2.2,4.2
	C251.6,530.9,251.3,530.9,250.9,530.9z M1527.6,445.7c-0.2,0-0.4,0-0.6,0c-1.8-0.3-3.1-2.1-2.8-3.9c0.4-2.2,0.8-4.4,1.1-6.6
	c0.3-1.8,2.1-3.1,3.9-2.8s3.1,2,2.8,3.9c-0.4,2.2-0.7,4.5-1.1,6.7C1530.7,444.5,1529.3,445.7,1527.6,445.7z M230,445.6
	c-1.6,0-3-1.2-3.3-2.8c-0.4-2.2-0.8-4.5-1.1-6.7c-0.3-1.8,0.9-3.6,2.8-3.9c1.8-0.3,3.6,0.9,3.9,2.8c0.4,2.2,0.7,4.4,1.1,6.6
	c0.3,1.8-0.9,3.6-2.7,3.9C230.4,445.6,230.2,445.6,230,445.6z M1537,358.4L1537,358.4c-2-0.1-3.4-1.7-3.3-3.5
	c0.1-2.2,0.2-4.5,0.2-6.7c0.1-1.8,1.6-3.3,3.4-3.3h0.1c1.9,0.1,3.3,1.6,3.3,3.5c-0.1,2.3-0.1,4.5-0.2,6.8
	C1540.3,356.9,1538.8,358.4,1537,358.4z M220.7,358.3c-1.8,0-3.3-1.4-3.4-3.2c-0.1-2.3-0.2-4.5-0.2-6.8c-0.1-1.9,1.4-3.4,3.3-3.5
	h0.1c1.8,0,3.3,1.4,3.4,3.3c0.1,2.2,0.1,4.5,0.2,6.7c0.1,1.9-1.4,3.4-3.2,3.5C220.8,358.3,220.7,358.3,220.7,358.3z M1534.8,270.5
	c-1.7,0-3.2-1.3-3.4-3.1c-0.2-2.2-0.4-4.5-0.6-6.7c-0.2-1.9,1.2-3.5,3-3.7c1.9-0.2,3.5,1.2,3.7,3c0.2,2.3,0.4,4.5,0.7,6.8
	c0.2,1.9-1.2,3.5-3.1,3.7C1535,270.5,1534.9,270.5,1534.8,270.5z M222.9,270.5c-0.1,0-0.2,0-0.3,0c-1.9-0.2-3.2-1.8-3.1-3.7
	c0.2-2.3,0.4-4.5,0.7-6.8c0.2-1.9,1.9-3.2,3.7-3c1.9,0.2,3.2,1.8,3,3.7c-0.2,2.2-0.4,4.5-0.6,6.7
	C226.1,269.1,224.7,270.5,222.9,270.5z M1520.9,183.8c-1.5,0-2.9-1.1-3.3-2.6c-0.5-2.2-1-4.4-1.5-6.5c-0.4-1.8,0.7-3.6,2.5-4.1
	c1.8-0.4,3.6,0.7,4.1,2.5c0.5,2.2,1,4.4,1.6,6.6c0.4,1.8-0.7,3.6-2.5,4.1C1521.4,183.7,1521.2,183.8,1520.9,183.8z M236.8,183.7
	c-0.3,0-0.5,0-0.8-0.1c-1.8-0.4-3-2.2-2.5-4.1c0.5-2.2,1-4.4,1.6-6.6c0.4-1.8,2.3-2.9,4.1-2.5s2.9,2.3,2.5,4.1
	c-0.5,2.2-1,4.4-1.5,6.6C239.7,182.6,238.3,183.7,236.8,183.7z M1495.6,99.6c-1.4,0-2.7-0.8-3.2-2.2c-0.8-2.1-1.6-4.2-2.4-6.3
	c-0.7-1.7,0.2-3.7,1.9-4.4c1.7-0.7,3.7,0.2,4.4,1.9c0.8,2.1,1.6,4.2,2.4,6.4c0.7,1.7-0.2,3.7-2,4.4
	C1496.4,99.6,1496,99.6,1495.6,99.6z M262.1,99.5c-0.4,0-0.8-0.1-1.2-0.2c-1.7-0.7-2.6-2.6-2-4.4c0.8-2.1,1.6-4.3,2.4-6.4
	c0.7-1.7,2.6-2.6,4.4-1.9c1.7,0.7,2.6,2.6,1.9,4.4c-0.8,2.1-1.6,4.2-2.4,6.3C264.7,98.7,263.5,99.5,262.1,99.5z M1459.3,19.7
	c-1.2,0-2.4-0.6-3-1.8c-1.1-2-2.1-3.9-3.2-5.9c-0.9-1.6-0.3-3.7,1.3-4.6c1.6-0.9,3.7-0.3,4.6,1.3c1.1,2,2.2,4,3.2,6
	c0.9,1.6,0.3,3.7-1.4,4.6C1460.4,19.6,1459.8,19.7,1459.3,19.7z M298.5,19.5c-0.5,0-1.1-0.1-1.6-0.4c-1.6-0.9-2.3-2.9-1.4-4.6
	c1.1-2,2.2-4,3.3-6c0.9-1.6,3-2.2,4.6-1.3c1.6,0.9,2.2,3,1.3,4.6c-1.1,2-2.2,3.9-3.2,5.9C300.9,18.8,299.7,19.5,298.5,19.5z
	 M1412.6-54.7c-1,0-2.1-0.5-2.7-1.4c-1.3-1.8-2.6-3.6-4-5.4c-1.1-1.5-0.8-3.6,0.7-4.7s3.6-0.8,4.7,0.7c1.3,1.8,2.7,3.6,4,5.5
	c1.1,1.5,0.8,3.6-0.8,4.7C1414-54.9,1413.3-54.7,1412.6-54.7z M345.2-55c-0.7,0-1.4-0.2-2-0.6c-1.5-1.1-1.8-3.2-0.8-4.7
	c1.3-1.8,2.7-3.7,4-5.5c1.1-1.5,3.2-1.8,4.7-0.7c1.5,1.1,1.8,3.2,0.7,4.7c-1.3,1.8-2.7,3.6-4,5.4C347.3-55.4,346.3-55,345.2-55z
	 M1356.5-122.2c-0.9,0-1.8-0.4-2.5-1.1c-1.5-1.6-3.1-3.2-4.7-4.9c-1.3-1.3-1.3-3.5,0.1-4.8c1.3-1.3,3.5-1.3,4.8,0.1
	c1.6,1.6,3.1,3.3,4.7,4.9c1.3,1.4,1.2,3.5-0.1,4.8C1358.2-122.6,1357.3-122.2,1356.5-122.2z M401.4-122.5c-0.8,0-1.7-0.3-2.3-0.9
	c-1.4-1.3-1.4-3.4-0.1-4.8c1.6-1.6,3.1-3.3,4.7-4.9c1.3-1.3,3.4-1.4,4.8-0.1c1.3,1.3,1.4,3.4,0.1,4.8c-1.6,1.6-3.1,3.2-4.7,4.9
	C403.2-122.9,402.3-122.5,401.4-122.5z M1291.9-181.8c-0.7,0-1.5-0.2-2.1-0.8c-1.7-1.4-3.5-2.8-5.3-4.2c-1.5-1.2-1.7-3.3-0.6-4.8
	c1.2-1.5,3.3-1.7,4.8-0.6c1.8,1.4,3.6,2.8,5.3,4.2c1.5,1.2,1.7,3.3,0.5,4.8C1293.9-182.2,1292.9-181.8,1291.9-181.8z M466.1-182
	c-1,0-2-0.4-2.6-1.3c-1.2-1.5-0.9-3.6,0.5-4.8c1.8-1.4,3.5-2.8,5.3-4.2c1.5-1.2,3.6-0.9,4.8,0.6c1.2,1.5,0.9,3.6-0.6,4.8
	c-1.8,1.4-3.5,2.8-5.3,4.2C467.6-182.3,466.8-182,466.1-182z M1219.9-232.3c-0.6,0-1.2-0.2-1.8-0.5c-1.9-1.2-3.8-2.3-5.8-3.5
	c-1.6-1-2.1-3-1.2-4.6c1-1.6,3-2.1,4.6-1.2c2,1.2,3.9,2.3,5.8,3.5c1.6,1,2.1,3.1,1.1,4.6C1222.2-232.9,1221.1-232.3,1219.9-232.3z
	 M538-232.4c-1.1,0-2.3-0.6-2.9-1.6c-1-1.6-0.5-3.7,1.1-4.6c1.9-1.2,3.9-2.3,5.8-3.5c1.6-1,3.7-0.4,4.6,1.2c1,1.6,0.4,3.7-1.2,4.6
	c-1.9,1.1-3.8,2.3-5.8,3.5C539.2-232.6,538.6-232.4,538-232.4z M1141.9-272.7c-0.5,0-0.9-0.1-1.4-0.3c-2.1-0.9-4.1-1.8-6.2-2.7
	c-1.7-0.7-2.5-2.7-1.8-4.4c0.7-1.7,2.7-2.5,4.4-1.8c2.1,0.9,4.2,1.8,6.3,2.7c1.7,0.7,2.5,2.7,1.7,4.5
	C1144.5-273.5,1143.2-272.7,1141.9-272.7z M615.9-272.8c-1.3,0-2.5-0.8-3.1-2c-0.7-1.7,0-3.7,1.7-4.5c2.1-0.9,4.1-1.8,6.2-2.7
	c1.7-0.7,3.7,0.1,4.4,1.8s-0.1,3.7-1.8,4.4c-2.1,0.9-4.1,1.8-6.2,2.6C616.9-272.9,616.4-272.8,615.9-272.8z M1059.1-302.4
	c-0.3,0-0.6,0-0.9-0.1c-2.2-0.6-4.3-1.2-6.5-1.8c-1.8-0.5-2.9-2.4-2.4-4.2s2.4-2.9,4.2-2.4c2.2,0.6,4.4,1.2,6.6,1.8
	c1.8,0.5,2.8,2.4,2.3,4.2C1062-303.4,1060.6-302.4,1059.1-302.4z M698.6-302.4c-1.5,0-2.8-1-3.3-2.5c-0.5-1.8,0.5-3.7,2.3-4.2
	c2.2-0.6,4.4-1.2,6.6-1.8c1.8-0.5,3.7,0.6,4.2,2.4s-0.6,3.7-2.4,4.2c-2.2,0.6-4.3,1.2-6.5,1.8C699.2-302.5,698.9-302.4,698.6-302.4z
	 M973.2-320.7c-0.2,0-0.3,0-0.5,0c-2.2-0.3-4.4-0.6-6.7-0.9c-1.9-0.2-3.2-1.9-2.9-3.8c0.2-1.9,2-3.2,3.8-2.9
	c2.2,0.3,4.5,0.6,6.7,0.9c1.9,0.3,3.1,2,2.9,3.8C976.3-321.9,974.9-320.7,973.2-320.7z M784.6-320.7c-1.7,0-3.1-1.2-3.3-2.9
	c-0.3-1.9,1-3.6,2.9-3.8c2.2-0.3,4.5-0.6,6.7-0.9c1.8-0.2,3.6,1.1,3.8,2.9c0.2,1.9-1.1,3.6-2.9,3.8c-2.2,0.3-4.4,0.6-6.7,0.9
	C784.9-320.7,784.7-320.7,784.6-320.7z M885.6-327.3L885.6-327.3c-4.5,0-9,0-13.4,0c-1.8,0-3.4-1.5-3.4-3.3c0-1.9,1.5-3.4,3.3-3.4
	c4.5,0,9,0,13.5,0c1.9,0,3.4,1.5,3.3,3.4C889-328.8,887.5-327.3,885.6-327.3z"/>
<path id="XMLID_979_" class="st1" d="M922.2,1122.5c-2.1,0-3.9-1.6-4-3.8c-0.1-2.2,1.5-4.1,3.7-4.2c2.6-0.2,5.3-0.3,7.9-0.5
	c2.2-0.2,4.1,1.5,4.3,3.7s-1.5,4.1-3.7,4.3c-2.7,0.2-5.3,0.4-8,0.5C922.4,1122.5,922.3,1122.5,922.2,1122.5z M826.3,1122.5
	c-0.1,0-0.2,0-0.2,0c-2.7-0.2-5.3-0.3-8-0.5c-2.2-0.2-3.9-2.1-3.7-4.3c0.2-2.2,2.1-3.9,4.3-3.7c2.6,0.2,5.3,0.4,7.9,0.5
	c2.2,0.1,3.9,2,3.7,4.2C830.2,1120.9,828.4,1122.5,826.3,1122.5z M1025.2,1109.4c-1.9,0-3.5-1.3-3.9-3.2c-0.4-2.2,1-4.3,3.2-4.7
	c2.6-0.5,5.2-1,7.8-1.6c2.2-0.4,4.3,0.9,4.7,3.1s-0.9,4.3-3.1,4.7c-2.6,0.5-5.2,1.1-7.9,1.6
	C1025.7,1109.3,1025.4,1109.4,1025.2,1109.4z M723.4,1109.4c-0.3,0-0.5,0-0.8-0.1c-2.6-0.5-5.3-1-7.9-1.6c-2.2-0.4-3.6-2.6-3.1-4.7
	c0.4-2.2,2.6-3.6,4.7-3.1c2.6,0.5,5.2,1.1,7.8,1.6c2.2,0.4,3.6,2.5,3.1,4.7C726.9,1108,725.2,1109.4,723.4,1109.4z M1125.5,1082.6
	c-1.7,0-3.2-1-3.8-2.7c-0.7-2.1,0.4-4.4,2.5-5.1c2.5-0.9,5-1.7,7.5-2.6c2.1-0.7,4.4,0.4,5.1,2.4c0.7,2.1-0.4,4.4-2.4,5.1
	c-2.5,0.9-5.1,1.8-7.6,2.6C1126.4,1082.5,1125.9,1082.6,1125.5,1082.6z M623,1082.5c-0.4,0-0.9-0.1-1.3-0.2
	c-2.5-0.9-5.1-1.7-7.6-2.6c-2.1-0.7-3.2-3-2.4-5.1c0.7-2.1,3-3.2,5.1-2.4c2.5,0.9,5,1.8,7.5,2.6c2.1,0.7,3.2,3,2.5,5.1
	C626.2,1081.5,624.6,1082.5,623,1082.5z M1221.3,1042.5c-1.5,0-2.9-0.8-3.6-2.2c-1-2-0.2-4.4,1.8-5.4c2.4-1.2,4.7-2.4,7.1-3.6
	c2-1,4.4-0.2,5.4,1.7c1,2,0.2,4.4-1.7,5.4c-2.4,1.2-4.8,2.4-7.1,3.6C1222.5,1042.4,1221.9,1042.5,1221.3,1042.5z M527.1,1042.4
	c-0.6,0-1.2-0.1-1.8-0.4c-2.4-1.2-4.8-2.4-7.2-3.6c-2-1-2.7-3.4-1.7-5.4s3.4-2.7,5.4-1.7c2.4,1.2,4.7,2.4,7.1,3.6
	c2,1,2.8,3.4,1.8,5.4C530,1041.6,528.6,1042.4,527.1,1042.4z M1310.9,990.1c-1.3,0-2.5-0.6-3.3-1.8c-1.2-1.8-0.8-4.3,1.1-5.6
	c2.2-1.5,4.4-3,6.5-4.5c1.8-1.3,4.3-0.8,5.6,1c1.3,1.8,0.8,4.3-1,5.6c-2.2,1.5-4.4,3-6.6,4.5
	C1312.4,989.9,1311.7,990.1,1310.9,990.1z M437.4,989.9c-0.8,0-1.6-0.2-2.2-0.7c-2.2-1.5-4.4-3-6.6-4.6c-1.8-1.3-2.3-3.7-1-5.6
	c1.3-1.8,3.7-2.3,5.6-1c2.2,1.5,4.4,3,6.6,4.5c1.8,1.2,2.3,3.7,1.1,5.6C440,989.3,438.7,989.9,437.4,989.9z M1392.7,926.3
	c-1.1,0-2.2-0.5-3-1.3c-1.5-1.6-1.3-4.2,0.3-5.6c2-1.8,3.9-3.5,5.9-5.3c1.6-1.5,4.2-1.4,5.6,0.3c1.5,1.6,1.4,4.2-0.3,5.6
	c-2,1.8-4,3.6-6,5.4C1394.6,925.9,1393.7,926.3,1392.7,926.3z M355.6,926c-0.9,0-1.9-0.3-2.7-1c-2-1.8-4-3.6-6-5.4
	c-1.6-1.5-1.7-4-0.3-5.6c1.5-1.6,4-1.8,5.6-0.3c2,1.8,3.9,3.6,5.9,5.3c1.6,1.5,1.8,4,0.3,5.6C357.8,925.5,356.7,926,355.6,926z
	 M1465.4,852.1c-0.9,0-1.8-0.3-2.6-1c-1.7-1.4-1.9-4-0.4-5.6c1.7-2,3.4-4,5.1-6.1c1.4-1.7,3.9-1.9,5.6-0.5s1.9,3.9,0.5,5.6
	c-1.7,2.1-3.5,4.1-5.2,6.1C1467.7,851.6,1466.5,852.1,1465.4,852.1z M283,851.8c-1.1,0-2.2-0.5-3-1.4c-1.7-2-3.5-4.1-5.2-6.1
	c-1.4-1.7-1.2-4.2,0.5-5.6c1.7-1.4,4.2-1.2,5.6,0.5c1.7,2,3.4,4,5.1,6.1c1.4,1.7,1.2,4.2-0.4,5.6C284.8,851.5,283.9,851.8,283,851.8
	z M1527.6,769c-0.7,0-1.5-0.2-2.2-0.6c-1.9-1.2-2.4-3.7-1.2-5.5c1.4-2.2,2.9-4.5,4.3-6.7c1.2-1.9,3.7-2.4,5.5-1.2
	c1.9,1.2,2.4,3.7,1.2,5.5c-1.4,2.3-2.9,4.5-4.3,6.8C1530.2,768.3,1529,769,1527.6,769z M220.8,768.7c-1.3,0-2.6-0.6-3.4-1.8
	c-1.5-2.2-2.9-4.5-4.3-6.7c-1.2-1.9-0.6-4.3,1.2-5.5c1.9-1.2,4.3-0.6,5.5,1.2c1.4,2.2,2.8,4.5,4.3,6.7c1.2,1.9,0.7,4.3-1.2,5.5
	C222.3,768.5,221.5,768.7,220.8,768.7z M1578.3,678.3c-0.6,0-1.2-0.1-1.7-0.4c-2-0.9-2.8-3.3-1.9-5.3c1.1-2.4,2.3-4.8,3.4-7.2
	c0.9-2,3.3-2.9,5.3-2s2.9,3.3,2,5.3c-1.1,2.4-2.3,4.9-3.4,7.3C1581.2,677.4,1579.8,678.3,1578.3,678.3z M170.2,678
	c-1.5,0-2.9-0.8-3.6-2.3c-1.1-2.4-2.3-4.8-3.4-7.3c-0.9-2,0-4.4,2-5.3c2-0.9,4.4,0,5.3,2c1.1,2.4,2.2,4.8,3.4,7.2
	c0.9,2,0.1,4.4-1.9,5.3C171.4,677.9,170.8,678,170.2,678z M1616.4,581.6c-0.4,0-0.8-0.1-1.2-0.2c-2.1-0.7-3.3-2.9-2.6-5
	c0.8-2.5,1.6-5.1,2.4-7.6c0.6-2.1,2.9-3.3,5-2.7s3.3,2.9,2.7,5c-0.8,2.6-1.6,5.1-2.4,7.7C1619.6,580.5,1618.1,581.6,1616.4,581.6z
	 M132.2,581.4c-1.7,0-3.3-1.1-3.8-2.8c-0.8-2.6-1.6-5.1-2.4-7.7c-0.6-2.1,0.5-4.3,2.7-5c2.1-0.6,4.3,0.5,5,2.7
	c0.8,2.5,1.6,5.1,2.4,7.6c0.7,2.1-0.5,4.4-2.6,5C133,581.4,132.6,581.4,132.2,581.4z M1641.1,480.7c-0.2,0-0.5,0-0.7-0.1
	c-2.2-0.4-3.6-2.5-3.2-4.6c0.5-2.6,0.9-5.2,1.3-7.8c0.4-2.2,2.4-3.7,4.6-3.3s3.7,2.4,3.3,4.6c-0.4,2.6-0.9,5.3-1.3,7.9
	C1644.7,479.3,1643,480.7,1641.1,480.7z M107.5,480.6c-1.9,0-3.6-1.4-3.9-3.3c-0.5-2.6-0.9-5.3-1.3-7.9c-0.4-2.2,1.1-4.2,3.3-4.6
	c2.2-0.4,4.2,1.1,4.6,3.3c0.4,2.6,0.9,5.2,1.3,7.8c0.4,2.2-1.1,4.2-3.2,4.6C108,480.6,107.7,480.6,107.5,480.6z M1652.2,377.4
	c-0.1,0-0.1,0-0.2,0c-2.2-0.1-3.9-2-3.8-4.2c0.1-2.6,0.2-5.3,0.3-7.9c0.1-2.2,1.8-3.9,4-3.9h0.1c2.2,0.1,3.9,1.9,3.9,4.1
	c-0.1,2.7-0.2,5.4-0.3,8C1656.1,375.8,1654.3,377.4,1652.2,377.4z M96.5,377.3c-2.1,0-3.9-1.7-4-3.8c-0.1-2.7-0.2-5.3-0.3-8
	c-0.1-2.2,1.7-4.1,3.9-4.1h0.1c2.2,0,3.9,1.7,4,3.9c0.1,2.6,0.2,5.3,0.3,7.9c0.1,2.2-1.6,4.1-3.8,4.2
	C96.6,377.3,96.5,377.3,96.5,377.3z M1649.5,273.7c-2,0-3.8-1.6-4-3.6c-0.2-2.6-0.5-5.3-0.8-7.9c-0.2-2.2,1.4-4.2,3.6-4.4
	c2.2-0.2,4.2,1.4,4.4,3.6c0.3,2.7,0.5,5.3,0.8,8c0.2,2.2-1.4,4.1-3.6,4.3C1649.8,273.6,1649.6,273.7,1649.5,273.7z M99.1,273.6
	c-0.1,0-0.2,0-0.4,0c-2.2-0.2-3.8-2.1-3.6-4.3c0.2-2.7,0.5-5.3,0.8-8c0.2-2.2,2.2-3.8,4.4-3.6c2.2,0.2,3.8,2.2,3.6,4.4
	c-0.3,2.6-0.5,5.3-0.8,7.9C102.9,272,101.2,273.6,99.1,273.6z M1633.2,171.1c-1.8,0-3.5-1.3-3.9-3.1c-0.6-2.6-1.2-5.2-1.8-7.7
	c-0.5-2.1,0.8-4.3,3-4.8c2.1-0.5,4.3,0.8,4.8,3c0.6,2.6,1.2,5.2,1.8,7.8c0.5,2.2-0.9,4.3-3,4.8
	C1633.8,171.1,1633.5,171.1,1633.2,171.1z M115.5,171c-0.3,0-0.6,0-0.9-0.1c-2.2-0.5-3.5-2.6-3-4.8c0.6-2.6,1.2-5.2,1.8-7.8
	c0.5-2.1,2.7-3.5,4.8-3c2.1,0.5,3.5,2.7,3,4.8c-0.6,2.6-1.2,5.2-1.8,7.7C118.9,169.8,117.3,171,115.5,171z M1603.3,71.7
	c-1.6,0-3.1-1-3.7-2.6c-0.9-2.5-1.9-5-2.8-7.4c-0.8-2.1,0.2-4.4,2.3-5.2c2.1-0.8,4.4,0.2,5.2,2.3c1,2.5,1.9,5,2.9,7.5
	c0.8,2.1-0.3,4.4-2.3,5.1C1604.2,71.6,1603.7,71.7,1603.3,71.7z M145.4,71.5c-0.5,0-0.9-0.1-1.4-0.3c-2.1-0.8-3.1-3.1-2.3-5.1
	c0.9-2.5,1.9-5,2.9-7.5c0.8-2.1,3.1-3.1,5.2-2.3s3.1,3.1,2.3,5.2c-1,2.5-1.9,5-2.8,7.5C148.5,70.6,147,71.5,145.4,71.5z
	 M1560.3-22.8c-1.4,0-2.8-0.8-3.5-2.1c-1.3-2.3-2.5-4.6-3.8-7c-1.1-1.9-0.4-4.4,1.6-5.4c1.9-1.1,4.4-0.4,5.4,1.6
	c1.3,2.3,2.6,4.7,3.8,7c1,1.9,0.3,4.4-1.6,5.4C1561.6-22.9,1561-22.8,1560.3-22.8z M188.4-23c-0.6,0-1.3-0.2-1.9-0.5
	c-1.9-1-2.7-3.5-1.6-5.4c1.3-2.4,2.6-4.7,3.9-7.1c1.1-1.9,3.5-2.6,5.4-1.6c1.9,1.1,2.6,3.5,1.6,5.4c-1.3,2.3-2.6,4.7-3.8,7
	C191.2-23.8,189.8-23,188.4-23z M1505.2-110.7c-1.2,0-2.5-0.6-3.2-1.7c-1.6-2.1-3.1-4.3-4.7-6.4c-1.3-1.8-0.9-4.3,0.8-5.6
	c1.8-1.3,4.3-0.9,5.6,0.8c1.6,2.1,3.2,4.3,4.7,6.5c1.3,1.8,0.9,4.3-0.9,5.6C1506.8-111,1506-110.7,1505.2-110.7z M243.7-111
	c-0.8,0-1.6-0.2-2.3-0.8c-1.8-1.3-2.2-3.8-0.9-5.6c1.6-2.2,3.2-4.3,4.8-6.5c1.3-1.8,3.8-2.1,5.6-0.8c1.8,1.3,2.1,3.8,0.8,5.6
	c-1.6,2.1-3.1,4.3-4.7,6.4C246.1-111.6,244.9-111,243.7-111z M1438.8-190.5c-1.1,0-2.1-0.4-2.9-1.2c-1.8-1.9-3.7-3.8-5.5-5.7
	c-1.5-1.6-1.5-4.1,0.1-5.7c1.6-1.5,4.1-1.5,5.7,0.1c1.9,1.9,3.7,3.9,5.6,5.8c1.5,1.6,1.5,4.1-0.1,5.7
	C1440.8-190.9,1439.8-190.5,1438.8-190.5z M310.1-190.9c-1,0-2-0.4-2.8-1.1c-1.6-1.5-1.7-4.1-0.1-5.7c1.8-1.9,3.7-3.9,5.6-5.8
	c1.5-1.6,4.1-1.6,5.7-0.1s1.6,4.1,0.1,5.7c-1.8,1.9-3.7,3.8-5.5,5.7C312.2-191.3,311.1-190.9,310.1-190.9z M1362.5-260.9
	c-0.9,0-1.8-0.3-2.5-0.9c-2.1-1.7-4.1-3.3-6.2-5c-1.7-1.4-2-3.9-0.7-5.6c1.4-1.7,3.9-2,5.6-0.7c2.1,1.7,4.2,3.3,6.3,5
	c1.7,1.4,2,3.9,0.6,5.6C1364.8-261.4,1363.6-260.9,1362.5-260.9z M386.5-261.2c-1.2,0-2.3-0.5-3.1-1.5c-1.4-1.7-1.1-4.2,0.6-5.6
	c2.1-1.7,4.2-3.3,6.3-5c1.7-1.4,4.2-1.1,5.6,0.7c1.4,1.7,1.1,4.2-0.7,5.6c-2.1,1.6-4.2,3.3-6.2,5
	C388.2-261.5,387.4-261.2,386.5-261.2z M1277.5-320.6c-0.7,0-1.4-0.2-2.1-0.6c-2.3-1.4-4.5-2.7-6.8-4.1c-1.9-1.1-2.5-3.6-1.4-5.5
	c1.1-1.9,3.6-2.5,5.5-1.4c2.3,1.4,4.6,2.7,6.9,4.1c1.9,1.1,2.5,3.6,1.3,5.5C1280.1-321.3,1278.8-320.6,1277.5-320.6z M471.5-320.8
	c-1.4,0-2.7-0.7-3.4-1.9c-1.1-1.9-0.5-4.3,1.3-5.5c2.3-1.4,4.6-2.8,6.9-4.1c1.9-1.1,4.4-0.5,5.5,1.4s0.5,4.4-1.4,5.5
	c-2.3,1.3-4.5,2.7-6.8,4.1C472.9-321,472.2-320.8,471.5-320.8z M1185.2-368.4c-0.5,0-1.1-0.1-1.6-0.3c-2.4-1.1-4.9-2.1-7.3-3.2
	c-2-0.9-3-3.2-2.1-5.2s3.2-3,5.2-2.1c2.5,1,4.9,2.1,7.4,3.2c2,0.9,2.9,3.2,2.1,5.3C1188.2-369.3,1186.8-368.4,1185.2-368.4z
	 M563.6-368.5c-1.5,0-3-0.9-3.7-2.4c-0.9-2,0-4.4,2.1-5.3c2.4-1.1,4.9-2.1,7.4-3.2c2-0.9,4.4,0.1,5.2,2.1c0.9,2-0.1,4.4-2.1,5.2
	c-2.4,1-4.9,2.1-7.3,3.1C564.7-368.6,564.1-368.5,563.6-368.5z M1087.4-403.5c-0.4,0-0.7,0-1.1-0.2c-2.5-0.7-5.1-1.4-7.7-2.1
	c-2.1-0.6-3.4-2.8-2.8-4.9s2.8-3.4,4.9-2.8c2.6,0.7,5.2,1.4,7.7,2.2c2.1,0.6,3.4,2.8,2.8,4.9
	C1090.7-404.6,1089.1-403.5,1087.4-403.5z M661.3-403.5c-1.7,0-3.3-1.1-3.8-2.9c-0.6-2.1,0.6-4.3,2.8-4.9c2.6-0.7,5.2-1.4,7.7-2.2
	c2.1-0.6,4.3,0.7,4.9,2.8c0.6,2.1-0.7,4.3-2.8,4.9c-2.6,0.7-5.1,1.4-7.7,2.1C662.1-403.5,661.7-403.5,661.3-403.5z M985.8-425.1
	c-0.2,0-0.4,0-0.6,0c-2.6-0.4-5.2-0.7-7.9-1.1c-2.2-0.3-3.7-2.3-3.4-4.5s2.3-3.7,4.5-3.4c2.7,0.4,5.3,0.7,8,1.1
	c2.2,0.3,3.7,2.3,3.4,4.5C989.5-426.5,987.8-425.1,985.8-425.1z M762.9-425.1c-2,0-3.7-1.4-4-3.4c-0.3-2.2,1.2-4.2,3.4-4.5
	c2.6-0.4,5.3-0.7,8-1.1c2.2-0.3,4.2,1.2,4.5,3.4c0.3,2.2-1.2,4.2-3.4,4.5c-2.6,0.4-5.3,0.7-7.9,1.1
	C763.3-425.1,763.1-425.1,762.9-425.1z M882.3-432.9L882.3-432.9c-2.8,0-5.5-0.1-8.3,0c-2.5,0-5.1,0-7.6,0l0,0c-2.2,0-4-1.8-4-4
	s1.8-4,4-4c2.6,0,5.3,0,7.9,0c2.7,0,5.4,0,8,0c2.2,0,4,1.8,4,4C886.3-434.7,884.5-432.9,882.3-432.9z"/>
<g id="g6748-2_2_" transform="matrix(2.233392,0,0,2.233392,-3660.6756,-3844.2218)">
	<g id="path6122-8-2_2_">
		<path id="XMLID_976_" class="st1" d="M2030.1,1960.3c-54.3,0-98.6-44.2-98.6-98.6c0-54.3,44.2-98.6,98.6-98.6
			c54.3,0,98.6,44.2,98.6,98.6S2084.5,1960.3,2030.1,1960.3z M2030.1,1763.8c-54,0-98,44-98,98s44,98,98,98s98-44,98-98
			S2084.2,1763.8,2030.1,1763.8z"/>
	</g>
	<g id="circle6167-0-5_2_">
		<path id="XMLID_936_" class="st1" d="M2070.3,1991.2l-0.1-0.2l-9.6-30.1l0.2-0.1c43.5-13.8,72.8-53.9,72.8-99.7
			c0-2.2-0.1-4.6-0.3-7.5v-0.2h0.2l31.6-2.3v0.2c0.2,3.3,0.4,6.6,0.4,9.9c0,29.4-9.3,57.5-26.9,81.2c-17,22.9-41.2,40.2-68.1,48.8
			L2070.3,1991.2z M2061.2,1961.2l9.4,29.5c56.5-18.2,94.5-70.2,94.5-129.5c0-3.1-0.1-6.4-0.3-9.6l-31,2.3c0.2,2.8,0.3,5.1,0.3,7.3
			c0,22.8-7.1,44.5-20.6,62.6C2100.2,1941.6,2082.2,1954.5,2061.2,1961.2z M1939.4,1964l-0.2-0.1c-14.4-12.6-26.2-28.4-34.2-45.7
			l-0.1-0.2l28.9-13.2l0.1,0.2c6.2,13.4,14.9,25.1,26,34.8l0.2,0.1l-0.1,0.2L1939.4,1964z M1905.5,1918.2
			c7.9,17.1,19.6,32.7,33.9,45.2l20.1-23.4c-11-9.7-19.7-21.4-25.9-34.6L1905.5,1918.2z M1935.5,1814.1l-28.3-14.5l0.1-0.2
			c11.3-22.1,28.4-40.8,49.4-54c21.7-13.6,46.7-20.8,72.3-20.8c21.8,0,43.6,5.3,62.9,15.4l0.2,0.1l-0.1,0.2l-14.5,28.1l-0.2-0.1
			c-15-7.8-31.3-11.8-48.3-11.8c-39.8,0-75.5,22-93.4,57.4L1935.5,1814.1z M1907.8,1799.5l27.5,14.1c18-35.4,53.8-57.4,93.7-57.4
			c17,0,33.3,3.9,48.3,11.7l14.2-27.5c-19.2-10-40.8-15.3-62.5-15.3C1977.7,1725.1,1931.2,1753.6,1907.8,1799.5z"/>
	</g>
	<g id="circle6182-1-8_2_">
		<path id="XMLID_932_" class="st1" d="M2026.2,2069.3c-114,0-206.8-92.7-206.8-206.8c0-114,92.7-206.8,206.8-206.8
			c114,0,206.8,92.7,206.8,206.8S2140.2,2069.3,2026.2,2069.3z M2026.2,1656.9c-113.4,0-205.7,92.3-205.7,205.7
			c0,113.4,92.3,205.7,205.7,205.7c113.4,0,205.7-92.3,205.7-205.7C2231.9,1749.2,2139.6,1656.9,2026.2,1656.9z"/>
	</g>
	<g id="path6186-7-8_2_">
		<path id="XMLID_923_" class="st1" d="M2026.5,2064.2c-5.9,0-11.8-0.3-17.6-0.8h-0.4l4.4-46.3h0.4c21.3,2,42.5-0.5,62.8-7.5
			l0.4-0.1l15.3,43.8l-0.4,0.1C2070.7,2060.6,2048.5,2064.2,2026.5,2064.2z M2009.4,2062.6c27.2,2.4,55.3-1,81.3-9.8l-14.7-42.2
			c-20.2,6.8-41.2,9.3-62.3,7.4L2009.4,2062.6z M1861,1974.5l-0.2-0.4c-19.7-30.3-30.8-65.5-32.1-101.7c-1.4-37.2,7.8-74,26.4-106.3
			l0.4,0.2l-0.4-0.2c15.9-27.5,38.5-51.1,65.2-68.1l0.4-0.2l25.1,39.2l-0.4,0.2c-20.7,13.2-37.5,30.8-49.9,52.3
			c-28.9,50.1-27.2,111.1,4.4,159.4l0.2,0.4L1861,1974.5z M1920.3,1699c-26.5,16.9-48.8,40.3-64.6,67.6
			c-37.3,64.6-35.2,143.8,5.5,206.7l37.6-24.3c-31.6-48.4-33.1-109.7-4.1-159.9c12.4-21.5,29.2-39.1,49.8-52.4L1920.3,1699z
			 M2221.3,1908.3l-45.5-9.9l0.1-0.4c14.3-64.8-14.9-130.8-72.6-164.1c-2.8-1.6-5.9-3.3-9.7-5.1l-0.4-0.2l20.3-42.1l0.4,0.2
			c4.4,2.1,8.6,4.4,12.7,6.7c37.1,21.4,65.8,53.6,82.8,93c16.5,38.1,20.7,81.2,12,121.5L2221.3,1908.3z M2176.8,1897.6l43.8,9.5
			c18.1-84.4-19.8-170-94.5-213.1c-3.9-2.3-8-4.4-12.2-6.5l-19.5,40.5c3.6,1.8,6.6,3.3,9.3,4.9
			C2161.6,1766.4,2191,1832.6,2176.8,1897.6z"/>
	</g>
	<g id="path6206-6-4_2_">
		<path id="XMLID_898_" class="st1" d="M1967.7,2145.3l-0.5-0.1c-51-10.8-98.1-35.3-136.4-70.9c-39.3-36.5-67.5-83.3-81.4-135.2l0,0
			c-11.9-44.3-12.9-91.2-2.9-135.9l0.1-0.5l65.2,14.2l-0.1,0.5c-7.7,34.7-6.8,69.8,2.4,104.3c21.6,80.6,85.6,141.2,167,158.1
			l0.5,0.1L1967.7,2145.3z M1747.4,1803.9c-9.8,44.3-8.8,91,3,134.9c27.9,104,110.8,182.7,216.5,205.3l13.6-63.4
			c-39.1-8.2-75.3-27-104.6-54.2c-30.2-28.1-51.9-64.3-62.7-104.5c-9.3-34.5-10.1-69.6-2.5-104.3L1747.4,1803.9z M2208.8,2085.6
			l-42.5-51.5l0.4-0.3c23.8-19.8,42.8-43.9,56.5-71.7l0.2-0.4l0.4,0.2l59.6,28.8l-0.2,0.4c-17.7,36-43.3,68.6-74,94.2L2208.8,2085.6
			z M2167.7,2034.2l41.3,50c30.3-25.4,55.6-57.6,73.1-93.1l-58.2-28.1C2210.1,1990.5,2191.2,2014.5,2167.7,2034.2z M2211.2,1746.7
			l-0.3-0.4c-51.6-80.7-148.7-118.2-241.5-93.3c-4.5,1.2-9.3,2.7-15,4.7l-0.5,0.2l-22.1-63.3l0.5-0.2c6.6-2.3,13.3-4.3,19.8-6.1
			c59.7-16,121.6-12.4,179.2,10.4c55.6,22,103.9,61.6,136,111.5l0.3,0.4L2211.2,1746.7z M2026.8,1644.4c27.4,0,54.6,5.2,80.5,15.4
			c43.2,17.1,79.2,46.7,104.2,85.6l54.6-35.1c-67.6-104.6-193.7-153.3-313.8-121.1c-6.3,1.7-12.8,3.7-19.2,5.9l21.4,61.5
			c5.6-1.9,10.2-3.3,14.6-4.5C1988.2,1646.9,2007.5,1644.4,2026.8,1644.4z"/>
	</g>
</g>
<g id="path5566-3-2-7_2_">
	<path id="XMLID_884_" class="st1" d="M799.6-13H784l-1.4-8.5c-1.7-0.7-3.6-1.5-5.2-2.2l-7,4.7l-10.9-10.9l4.7-7
		c-1.1-1.8-1.8-3.4-2.3-5.3l-8.4-1.4v-15.2l8.1-0.9c0.1-0.4,0.3-0.8,0.4-1.1c0.5-1.3,1-2.6,1.8-4.1l-4.7-7L770-82.8l7,5.1
		c1.8-1,3.4-1.8,5.2-2.3l1.4-8.4h15.2l0.9,8.4c1.7,0.5,3.5,1.3,5.2,2.2l7-5.1l11,11l-5.2,7c1,2.1,1.8,3.7,2.3,5.2l8.4,1.4v15.1
		l-7,1.4c-0.5,1.7-1.3,3.5-2.3,5.3l5.1,7l-11,11l-7-5.1c-1.8,1-3.4,1.8-5.2,2.3L799.6-13z M786-15.4h11.6l1.3-8l0.8-0.2
		c2.1-0.4,3.8-1.3,6-2.6l0.7-0.4l6.6,4.9l8.1-8.1l-4.9-6.6l0.4-0.7c1.2-2,2.1-4.1,2.6-6l0.2-0.7l6.6-1.3v-11.1l-7.9-1.3l-0.2-0.8
		c-0.4-1.7-1.3-3.4-2.6-6.1l-0.3-0.7l0.4-0.6l4.4-6l-8.1-8.1l-6.6,4.9l-0.7-0.4c-2-1.2-4.1-2.1-6-2.6l-0.8-0.2l-0.9-7.9h-11.1
		l-1.3,8l-0.8,0.2c-2.1,0.4-3.8,1.3-6,2.6l-0.7,0.4l-6.6-4.9l-8.1,8.1l4.4,6.6l-0.4,0.6c-0.9,1.5-1.4,2.8-1.9,4.3
		c-0.2,0.6-0.4,1.2-0.7,1.8l-0.3,0.7l-7.4,0.9v11.1l8,1.3l0.2,0.8c0.4,2.1,1.3,3.8,2.6,6l0.4,0.6l-4.4,6.6l8.1,8.1l6.6-4.4l0.6,0.3
		c1.8,0.9,4.2,1.8,6.3,2.7l0.6,0.2L786-15.4z M790.9-36.1c-8.4,0-14.8-6.4-14.8-14.8s6.4-14.8,14.8-14.8c4,0,7.8,1.5,10.5,4.3
		c2.7,2.7,4.3,6.5,4.3,10.5C805.7-42.5,799.3-36.1,790.9-36.1z M790.9-63.3c-7.1,0-12.4,5.3-12.4,12.4s5.3,12.4,12.4,12.4
		c7.1,0,12.4-5.3,12.4-12.4c0-3.4-1.3-6.6-3.6-8.9C797.4-62.1,794.3-63.3,790.9-63.3z"/>
</g>
<g id="path5772-0_2_">
	
		<rect id="XMLID_883_" x="1333.5" y="29.3" transform="matrix(-0.42 -0.9075 0.9075 -0.42 1833.2754 1308.0597)" class="st1" width="2.2" height="77.9"/>
</g>
<path id="XMLID_798_" class="st1" d="M907.4,744.3c-1.5,0-2.7-1.2-2.8-2.7c-0.1-1.6,1.1-2.9,2.7-3c1.9-0.1,3.7-0.2,5.6-0.4
	c1.6-0.1,2.9,1.1,3,2.6c0.1,1.6-1.1,2.9-2.6,3c-1.9,0.1-3.8,0.3-5.7,0.4C907.5,744.3,907.4,744.3,907.4,744.3z M839.6,743.1
	c-0.1,0-0.2,0-0.3,0c-1.9-0.2-3.8-0.4-5.7-0.6c-1.6-0.2-2.7-1.6-2.5-3.1c0.2-1.6,1.6-2.7,3.1-2.5c1.9,0.2,3.7,0.4,5.6,0.6
	c1.6,0.2,2.7,1.5,2.5,3.1C842.3,742,841,743.1,839.6,743.1z M980,733.7c-1.3,0-2.4-0.9-2.8-2.2c-0.4-1.5,0.6-3,2.1-3.4
	c1.8-0.4,3.6-0.9,5.5-1.3c1.5-0.4,3.1,0.5,3.4,2.1c0.4,1.5-0.5,3.1-2.1,3.4c-1.8,0.5-3.7,0.9-5.5,1.3
	C980.4,733.7,980.2,733.7,980,733.7z M767.4,729.8c-0.2,0-0.5,0-0.7-0.1c-1.8-0.5-3.7-1-5.5-1.5c-1.5-0.4-2.4-2-1.9-3.5
	c0.4-1.5,2-2.4,3.5-1.9c1.8,0.5,3.6,1,5.4,1.5c1.5,0.4,2.4,2,2,3.5C769.8,729,768.6,729.8,767.4,729.8z M1049.8,710.9
	c-1.1,0-2.1-0.6-2.6-1.7c-0.6-1.4,0.1-3.1,1.5-3.7c1.7-0.7,3.4-1.5,5.1-2.2c1.4-0.6,3.1,0,3.7,1.4c0.6,1.4,0,3.1-1.4,3.7
	c-1.7,0.8-3.5,1.5-5.2,2.3C1050.5,710.8,1050.2,710.9,1049.8,710.9z M698.5,704.5c-0.4,0-0.8-0.1-1.2-0.3c-1.7-0.8-3.4-1.6-5.2-2.5
	c-1.4-0.7-2-2.4-1.3-3.8c0.7-1.4,2.4-2,3.8-1.3c1.7,0.8,3.4,1.6,5.1,2.4c1.4,0.7,2,2.3,1.4,3.8C700.5,703.9,699.5,704.5,698.5,704.5
	z M1114.6,676.6c-0.9,0-1.8-0.5-2.4-1.3c-0.8-1.3-0.5-3.1,0.8-3.9c1.6-1,3.1-2,4.7-3.1c1.3-0.9,3.1-0.5,3.9,0.8
	c0.9,1.3,0.5,3.1-0.8,3.9c-1.6,1-3.2,2.1-4.8,3.1C1115.7,676.4,1115.1,676.6,1114.6,676.6z M634.9,667.7c-0.6,0-1.1-0.2-1.6-0.5
	c-1.6-1.1-3.1-2.2-4.7-3.3c-1.3-0.9-1.6-2.7-0.6-3.9c0.9-1.3,2.7-1.6,3.9-0.6c1.5,1.1,3.1,2.2,4.6,3.3c1.3,0.9,1.6,2.7,0.7,3.9
	C636.6,667.3,635.7,667.7,634.9,667.7z M1172.7,631.7c-0.8,0-1.5-0.3-2.1-0.9c-1.1-1.2-1-2.9,0.2-4c1.4-1.3,2.8-2.5,4.1-3.8
	c1.1-1.1,2.9-1,4,0.1s1,2.9-0.1,4c-1.4,1.3-2.8,2.6-4.2,3.9C1174.1,631.5,1173.4,631.7,1172.7,631.7z M578.4,620.7
	c-0.7,0-1.4-0.3-2-0.8c-1.4-1.3-2.7-2.7-4-4c-1.1-1.1-1.1-2.9,0-4c1.1-1.1,2.9-1.1,4,0c1.3,1.3,2.6,2.7,4,4c1.1,1.1,1.1,2.9,0,4
	C579.9,620.4,579.2,620.7,578.4,620.7z M1222.4,577.7c-0.6,0-1.2-0.2-1.7-0.6c-1.2-1-1.5-2.7-0.5-4c1.1-1.5,2.3-3,3.4-4.5
	c0.9-1.2,2.7-1.5,4-0.6c1.2,0.9,1.5,2.7,0.6,4c-1.1,1.5-2.3,3-3.5,4.5C1224.1,577.3,1223.3,577.7,1222.4,577.7z M530.7,564.9
	c-0.9,0-1.7-0.4-2.3-1.2c-1.1-1.5-2.2-3.1-3.3-4.6c-0.9-1.3-0.6-3,0.7-3.9s3-0.6,3.9,0.7c1.1,1.5,2.1,3.1,3.2,4.6
	c0.9,1.3,0.6,3-0.6,3.9C531.9,564.7,531.3,564.9,530.7,564.9z M1262.3,516c-0.4,0-0.9-0.1-1.3-0.3c-1.4-0.7-1.9-2.4-1.2-3.8
	c0.9-1.7,1.8-3.3,2.6-5c0.7-1.4,2.4-1.9,3.8-1.2s1.9,2.4,1.2,3.8c-0.9,1.7-1.8,3.4-2.6,5.1C1264.3,515.5,1263.3,516,1262.3,516z
	 M493.2,501.9c-1,0-2.1-0.6-2.5-1.6c-0.8-1.7-1.6-3.4-2.4-5.1c-0.7-1.4-0.1-3.1,1.4-3.8c1.4-0.7,3.1-0.1,3.8,1.4
	c0.8,1.7,1.6,3.4,2.4,5.1c0.7,1.4,0.1,3.1-1.3,3.8C494,501.8,493.6,501.9,493.2,501.9z M1291.1,448.4c-0.3,0-0.6,0-0.9-0.1
	c-1.5-0.5-2.3-2.1-1.8-3.6c0.6-1.8,1.2-3.6,1.7-5.4c0.5-1.5,2.1-2.3,3.5-1.9c1.5,0.5,2.3,2.1,1.9,3.5c-0.6,1.8-1.2,3.6-1.7,5.4
	C1293.4,447.7,1292.3,448.4,1291.1,448.4z M466.9,433.3c-1.2,0-2.4-0.8-2.7-2c-0.5-1.8-1-3.6-1.5-5.5c-0.4-1.5,0.5-3.1,2-3.5
	s3.1,0.5,3.5,2c0.5,1.8,1,3.6,1.5,5.4c0.4,1.5-0.4,3.1-1.9,3.5C467.4,433.3,467.2,433.3,466.9,433.3z M1308,377c-0.1,0-0.3,0-0.4,0
	c-1.5-0.2-2.6-1.7-2.4-3.2c0.3-1.9,0.5-3.7,0.8-5.6c0.2-1.6,1.7-2.6,3.2-2.4s2.6,1.6,2.4,3.2c-0.3,1.9-0.5,3.8-0.8,5.6
	C1310.5,375.9,1309.3,377,1308,377z M452.7,361.3c-1.4,0-2.6-1.1-2.8-2.5c-0.2-1.9-0.4-3.8-0.6-5.7c-0.2-1.6,1-2.9,2.5-3.1
	s2.9,1,3.1,2.5c0.2,1.9,0.4,3.7,0.6,5.6c0.2,1.6-1,2.9-2.5,3.1C452.9,361.3,452.8,361.3,452.7,361.3z M1312.4,303.7
	c-1.5,0-2.8-1.2-2.8-2.8c0-1.9-0.1-3.7-0.2-5.6c-0.1-1.6,1.2-2.9,2.7-2.9c1.5-0.1,2.9,1.2,2.9,2.7c0.1,1.9,0.1,3.8,0.2,5.7
	C1315.3,302.3,1314,303.6,1312.4,303.7C1312.5,303.7,1312.4,303.7,1312.4,303.7z M450.9,287.9c-0.1,0-0.1,0-0.2,0
	c-1.6-0.1-2.7-1.4-2.7-3c0.1-1.9,0.2-3.8,0.4-5.7c0.1-1.6,1.5-2.7,3-2.6c1.6,0.1,2.7,1.5,2.6,3c-0.1,1.9-0.3,3.7-0.4,5.6
	C453.7,286.7,452.4,287.9,450.9,287.9z M1304.5,230.7c-1.3,0-2.5-0.9-2.8-2.3c-0.4-1.8-0.7-3.7-1.1-5.5c-0.3-1.5,0.7-3,2.2-3.3
	s3,0.7,3.3,2.2c0.4,1.9,0.8,3.7,1.1,5.6c0.3,1.5-0.7,3-2.2,3.3C1304.9,230.7,1304.7,230.7,1304.5,230.7z M461.5,215.3
	c-0.2,0-0.4,0-0.6-0.1c-1.5-0.4-2.5-1.9-2.1-3.4c0.4-1.8,0.9-3.7,1.3-5.5c0.4-1.5,1.9-2.4,3.4-2.1c1.5,0.4,2.4,1.9,2.1,3.4
	c-0.5,1.8-0.9,3.6-1.3,5.5C463.9,214.4,462.8,215.3,461.5,215.3z M1284.3,160.1c-1.1,0-2.2-0.7-2.6-1.8c-0.7-1.8-1.3-3.5-2-5.2
	c-0.6-1.5,0.1-3.1,1.6-3.7c1.4-0.6,3.1,0.1,3.7,1.6c0.7,1.8,1.4,3.5,2.1,5.3c0.6,1.5-0.2,3.1-1.6,3.7
	C1285,160.1,1284.6,160.1,1284.3,160.1z M484.3,145.4c-0.4,0-0.7-0.1-1.1-0.2c-1.4-0.6-2.1-2.3-1.5-3.7c0.7-1.8,1.5-3.5,2.3-5.2
	c0.6-1.4,2.3-2.1,3.7-1.4c1.4,0.6,2.1,2.3,1.4,3.7c-0.8,1.7-1.5,3.4-2.2,5.2C486.5,144.8,485.4,145.4,484.3,145.4z M1252.4,94.1
	c-1,0-1.9-0.5-2.4-1.4c-1-1.6-1.9-3.2-2.9-4.8c-0.8-1.3-0.4-3.1,0.9-3.9c1.3-0.8,3.1-0.4,3.9,0.9c1,1.6,2,3.2,2.9,4.9
	c0.8,1.3,0.4,3.1-1,3.9C1253.4,93.9,1252.9,94.1,1252.4,94.1z M518.7,80.5c-0.5,0-1.1-0.1-1.5-0.5c-1.3-0.8-1.7-2.6-0.8-3.9
	c1-1.6,2.1-3.2,3.1-4.8c0.9-1.3,2.6-1.7,3.9-0.8s1.7,2.6,0.8,3.9c-1,1.6-2.1,3.1-3.1,4.7C520.5,80.1,519.6,80.5,518.7,80.5z
	 M1209.7,34.4c-0.8,0-1.6-0.3-2.2-1c-1.2-1.4-2.4-2.8-3.7-4.2c-1-1.2-0.9-3,0.3-4c1.2-1,3-0.9,4,0.3c1.2,1.4,2.5,2.9,3.7,4.3
	c1,1.2,0.9,3-0.3,4C1211,34.1,1210.3,34.4,1209.7,34.4z M563.6,22.4c-0.7,0-1.4-0.2-1.9-0.7c-1.2-1.1-1.2-2.8-0.2-4
	c1.3-1.4,2.6-2.8,3.9-4.2c1.1-1.1,2.9-1.2,4-0.1c1.1,1.1,1.2,2.9,0.1,4c-1.3,1.4-2.6,2.7-3.8,4.1C565.1,22.1,564.4,22.4,563.6,22.4z
	 M1157.5-17.3c-0.6,0-1.3-0.2-1.8-0.7c-1.4-1.2-2.9-2.4-4.3-3.6c-1.2-1-1.4-2.8-0.4-4s2.8-1.4,4-0.4c1.5,1.2,2.9,2.4,4.4,3.6
	c1.2,1,1.4,2.8,0.4,4C1159.1-17.6,1158.3-17.3,1157.5-17.3z M617.6-27.3c-0.8,0-1.7-0.4-2.2-1.1c-1-1.2-0.7-3,0.5-4
	c1.5-1.2,3-2.3,4.5-3.5c1.2-0.9,3-0.7,4,0.6c0.9,1.2,0.7,3-0.6,4c-1.5,1.1-3,2.3-4.5,3.4C618.9-27.5,618.3-27.3,617.6-27.3z
	 M1097.3-59.4c-0.5,0-1-0.1-1.4-0.4c-1.6-0.9-3.3-1.9-4.9-2.8c-1.4-0.8-1.8-2.5-1.1-3.9c0.8-1.4,2.5-1.8,3.9-1.1
	c1.7,0.9,3.3,1.9,5,2.8c1.4,0.8,1.8,2.5,1,3.9C1099.3-59.9,1098.3-59.4,1097.3-59.4z M679.3-67.1c-1,0-2-0.5-2.5-1.5
	c-0.7-1.4-0.2-3.1,1.2-3.8c1.7-0.9,3.3-1.8,5-2.6c1.4-0.7,3.1-0.2,3.8,1.2c0.7,1.4,0.2,3.1-1.2,3.8c-1.7,0.9-3.3,1.7-5,2.6
	C680.2-67.2,679.7-67.1,679.3-67.1z M1030.9-90.7c-0.3,0-0.7-0.1-1-0.2c-1.8-0.7-3.5-1.3-5.3-1.9c-1.5-0.5-2.2-2.1-1.7-3.6
	s2.1-2.2,3.6-1.7c1.8,0.6,3.6,1.3,5.4,1.9c1.5,0.5,2.2,2.2,1.7,3.6C1033.1-91.4,1032-90.7,1030.9-90.7z M746.8-95.9
	c-1.2,0-2.3-0.8-2.7-1.9c-0.5-1.5,0.3-3.1,1.8-3.6c1.8-0.6,3.6-1.2,5.4-1.7c1.5-0.5,3.1,0.4,3.5,1.9c0.5,1.5-0.4,3.1-1.9,3.5
	c-1.8,0.6-3.6,1.1-5.3,1.7C747.4-95.9,747.1-95.9,746.8-95.9z M960.1-110.1c-0.2,0-0.3,0-0.5,0c-1.8-0.3-3.7-0.7-5.5-1
	c-1.5-0.3-2.6-1.7-2.3-3.3c0.3-1.5,1.7-2.6,3.3-2.3c1.9,0.3,3.7,0.7,5.6,1c1.5,0.3,2.6,1.8,2.3,3.3
	C962.6-111.1,961.4-110.1,960.1-110.1z M818.3-112.7c-1.4,0-2.6-1-2.8-2.4c-0.2-1.5,0.8-3,2.4-3.2c1.9-0.3,3.8-0.5,5.6-0.8
	c1.6-0.2,3,0.9,3.2,2.4s-0.9,3-2.4,3.2c-1.9,0.2-3.7,0.5-5.6,0.8C818.5-112.7,818.4-112.7,818.3-112.7z M887-117.3L887-117.3
	c-1.9,0-3.8,0-5.7,0c-1.6,0-2.8-1.3-2.8-2.8s1.3-2.8,2.8-2.8c1.9,0,3.8,0,5.7,0c1.6,0,2.8,1.3,2.8,2.9
	C889.8-118.5,888.5-117.3,887-117.3z"/>
<path id="XMLID_727_" class="st1" d="M909.1,831.9c-1.8,0-3.2-1.4-3.3-3.1c-0.1-1.8,1.3-3.4,3.1-3.5c2.2-0.1,4.4-0.3,6.6-0.4
	c1.8-0.1,3.4,1.3,3.6,3.1c0.1,1.8-1.3,3.4-3.1,3.6c-2.2,0.2-4.5,0.3-6.7,0.4C909.3,831.9,909.2,831.9,909.1,831.9z M829,830.5
	c-0.1,0-0.2,0-0.3,0c-2.2-0.2-4.5-0.4-6.7-0.7c-1.8-0.2-3.2-1.9-3-3.7s1.9-3.2,3.7-3c2.2,0.2,4.4,0.5,6.6,0.7c1.8,0.2,3.2,1.8,3,3.6
	C832.2,829.2,830.7,830.5,829,830.5z M995,819.5c-1.5,0-2.9-1-3.3-2.6c-0.4-1.8,0.7-3.6,2.5-4c2.2-0.5,4.3-1,6.5-1.6
	c1.8-0.4,3.6,0.7,4,2.4c0.4,1.8-0.6,3.6-2.4,4c-2.2,0.5-4.4,1.1-6.5,1.6C995.5,819.4,995.2,819.5,995,819.5z M743.7,814.9
	c-0.3,0-0.6,0-0.9-0.1c-2.2-0.6-4.3-1.2-6.5-1.8c-1.8-0.5-2.8-2.4-2.3-4.1c0.5-1.8,2.4-2.8,4.1-2.3c2.1,0.6,4.3,1.2,6.4,1.8
	c1.8,0.5,2.8,2.3,2.3,4.1C746.5,813.9,745.2,814.9,743.7,814.9z M1077.5,792.5c-1.3,0-2.5-0.8-3.1-2c-0.7-1.7,0.1-3.7,1.8-4.4
	c2-0.9,4.1-1.7,6.1-2.6c1.7-0.8,3.7,0,4.4,1.7c0.7,1.7,0,3.7-1.7,4.4c-2,0.9-4.1,1.8-6.2,2.7
	C1078.3,792.4,1077.9,792.5,1077.5,792.5z M662.2,784.9c-0.5,0-1-0.1-1.4-0.3c-2-1-4.1-1.9-6.1-2.9c-1.7-0.8-2.4-2.8-1.5-4.5
	c0.8-1.7,2.8-2.4,4.5-1.5c2,1,4,1.9,6,2.9c1.7,0.8,2.4,2.8,1.6,4.4C664.7,784.2,663.5,784.9,662.2,784.9z M1154.1,751.9
	c-1.1,0-2.2-0.5-2.8-1.5c-1-1.6-0.6-3.6,1-4.6c1.9-1.2,3.7-2.4,5.5-3.6c1.5-1,3.6-0.6,4.6,0.9s0.6,3.6-0.9,4.6
	c-1.9,1.2-3.7,2.5-5.6,3.7C1155.3,751.7,1154.7,751.9,1154.1,751.9z M587.1,741.4c-0.7,0-1.3-0.2-1.9-0.6c-1.8-1.3-3.7-2.6-5.5-3.9
	c-1.5-1.1-1.8-3.2-0.8-4.7c1.1-1.5,3.2-1.8,4.7-0.8c1.8,1.3,3.6,2.6,5.4,3.8c1.5,1.1,1.9,3.1,0.8,4.7
	C589.2,740.9,588.1,741.4,587.1,741.4z M1222.7,698.9c-0.9,0-1.8-0.4-2.5-1.1c-1.3-1.4-1.2-3.5,0.2-4.7c1.6-1.5,3.3-3,4.9-4.5
	c1.3-1.3,3.5-1.2,4.7,0.1c1.3,1.3,1.2,3.5-0.1,4.7c-1.6,1.5-3.3,3.1-4.9,4.6C1224.4,698.6,1223.6,698.9,1222.7,698.9z M520.4,685.9
	c-0.8,0-1.7-0.3-2.3-1c-1.6-1.6-3.2-3.2-4.8-4.8c-1.3-1.3-1.3-3.4,0-4.7s3.4-1.3,4.7,0c1.6,1.6,3.1,3.1,4.7,4.7
	c1.3,1.3,1.3,3.4,0,4.7C522.1,685.6,521.2,685.9,520.4,685.9z M1281.5,635.1c-0.7,0-1.4-0.2-2-0.7c-1.5-1.1-1.7-3.2-0.6-4.7
	c1.4-1.7,2.7-3.5,4-5.3c1.1-1.5,3.2-1.8,4.7-0.7s1.8,3.2,0.7,4.7c-1.4,1.8-2.7,3.6-4.1,5.4C1283.5,634.6,1282.5,635.1,1281.5,635.1z
	 M464,620c-1,0-2.1-0.5-2.7-1.4c-1.3-1.8-2.6-3.6-3.9-5.5c-1.1-1.5-0.7-3.6,0.8-4.7c1.5-1.1,3.6-0.7,4.7,0.8
	c1.3,1.8,2.5,3.6,3.8,5.4c1.1,1.5,0.7,3.6-0.8,4.7C465.4,619.7,464.7,620,464,620z M1328.6,562.2c-0.5,0-1.1-0.1-1.6-0.4
	c-1.6-0.9-2.3-2.9-1.4-4.5c1-2,2.1-3.9,3.1-5.9c0.8-1.6,2.9-2.3,4.5-1.4c1.6,0.8,2.3,2.9,1.4,4.5c-1,2-2.1,4-3.1,6
	C1331,561.5,1329.8,562.2,1328.6,562.2z M419.6,545.4c-1.2,0-2.4-0.7-3-1.9c-1-2-1.9-4-2.9-6.1c-0.8-1.7-0.1-3.7,1.6-4.4
	c1.7-0.8,3.7-0.1,4.4,1.6c0.9,2,1.9,4,2.8,6c0.8,1.7,0.1,3.7-1.5,4.5C420.6,545.3,420.1,545.4,419.6,545.4z M1362.7,482.3
	c-0.3,0-0.7-0.1-1-0.2c-1.8-0.6-2.7-2.5-2.1-4.2c0.7-2.1,1.4-4.2,2-6.3c0.6-1.8,2.4-2.7,4.2-2.2c1.8,0.6,2.7,2.4,2.2,4.2
	c-0.7,2.2-1.4,4.3-2.1,6.4C1365.4,481.4,1364.1,482.3,1362.7,482.3z M388.6,464.4c-1.5,0-2.8-1-3.2-2.4c-0.6-2.2-1.2-4.3-1.8-6.5
	c-0.5-1.8,0.6-3.6,2.3-4.1c1.8-0.5,3.6,0.6,4.1,2.3c0.6,2.1,1.2,4.3,1.8,6.4c0.5,1.8-0.5,3.6-2.3,4.1
	C389.2,464.4,388.9,464.4,388.6,464.4z M1382.6,397.8c-0.2,0-0.3,0-0.5,0c-1.8-0.3-3.1-2-2.8-3.8c0.3-2.2,0.6-4.4,0.9-6.6
	c0.2-1.8,2-3.1,3.8-2.9s3.1,1.9,2.9,3.8c-0.3,2.2-0.6,4.5-0.9,6.7C1385.6,396.6,1384.2,397.8,1382.6,397.8z M371.8,379.3
	c-1.7,0-3.1-1.3-3.3-3c-0.2-2.2-0.5-4.5-0.7-6.7c-0.2-1.8,1.2-3.5,3-3.6c1.8-0.2,3.5,1.2,3.6,3c0.2,2.2,0.4,4.4,0.7,6.6
	c0.2,1.8-1.1,3.5-3,3.7C372.1,379.3,372,379.3,371.8,379.3z M1387.8,311.2c-1.8,0-3.3-1.4-3.3-3.3c0-2.2-0.1-4.4-0.2-6.6
	c-0.1-1.8,1.4-3.4,3.2-3.5c1.8-0.1,3.4,1.4,3.5,3.2c0.1,2.2,0.1,4.5,0.2,6.7C1391.2,309.6,1389.8,311.2,1387.8,311.2
	C1387.9,311.2,1387.9,311.2,1387.8,311.2z M369.7,292.6c-0.1,0-0.1,0-0.2,0c-1.8-0.1-3.2-1.7-3.1-3.5c0.1-2.2,0.3-4.5,0.4-6.7
	c0.1-1.8,1.7-3.2,3.6-3.1c1.8,0.1,3.2,1.7,3.1,3.6c-0.2,2.2-0.3,4.4-0.4,6.6C372.9,291.2,371.5,292.6,369.7,292.6z M1378.5,225
	c-1.6,0-3-1.1-3.3-2.7c-0.4-2.2-0.9-4.3-1.3-6.5c-0.4-1.8,0.8-3.6,2.6-4c1.8-0.4,3.6,0.8,4,2.6c0.5,2.2,0.9,4.4,1.3,6.6
	c0.4,1.8-0.8,3.6-2.6,3.9C1378.9,225,1378.7,225,1378.5,225z M382.2,206.7c-0.3,0-0.5,0-0.8-0.1c-1.8-0.4-2.9-2.2-2.5-4
	c0.5-2.2,1-4.4,1.6-6.5c0.4-1.8,2.3-2.9,4-2.4c1.8,0.4,2.9,2.3,2.4,4c-0.5,2.1-1.1,4.3-1.6,6.5C385.1,205.7,383.7,206.7,382.2,206.7
	z M1354.6,141.6c-1.3,0-2.6-0.8-3.1-2.1c-0.8-2.1-1.6-4.1-2.4-6.2c-0.7-1.7,0.2-3.7,1.9-4.3c1.7-0.7,3.7,0.2,4.3,1.9
	c0.8,2.1,1.6,4.2,2.4,6.3c0.7,1.7-0.2,3.7-1.9,4.3C1355.4,141.5,1355,141.6,1354.6,141.6z M409.1,124.2c-0.4,0-0.9-0.1-1.3-0.3
	c-1.7-0.7-2.5-2.7-1.8-4.4c0.9-2.1,1.8-4.1,2.7-6.2c0.7-1.7,2.7-2.5,4.4-1.7c1.7,0.7,2.5,2.7,1.7,4.4c-0.9,2-1.8,4.1-2.6,6.1
	C411.7,123.4,410.4,124.2,409.1,124.2z M1316.9,63.5c-1.1,0-2.3-0.6-2.9-1.6c-1.1-1.9-2.3-3.8-3.4-5.7c-1-1.6-0.5-3.6,1.1-4.6
	s3.6-0.5,4.6,1.1c1.2,1.9,2.3,3.8,3.5,5.8c0.9,1.6,0.4,3.6-1.2,4.6C1318,63.3,1317.5,63.5,1316.9,63.5z M449.8,47.5
	c-0.6,0-1.2-0.2-1.8-0.5c-1.6-1-2-3.1-1-4.6c1.2-1.9,2.4-3.8,3.7-5.6c1-1.5,3.1-2,4.6-0.9c1.5,1,2,3.1,0.9,4.6
	c-1.2,1.8-2.4,3.7-3.6,5.6C452,46.9,450.9,47.5,449.8,47.5z M1266.4-7.1c-0.9,0-1.9-0.4-2.5-1.2c-1.4-1.7-2.9-3.4-4.3-5
	c-1.2-1.4-1.1-3.5,0.3-4.7s3.5-1.1,4.7,0.3c1.5,1.7,2.9,3.4,4.4,5.1c1.2,1.4,1,3.5-0.4,4.7C1268-7.3,1267.2-7.1,1266.4-7.1z
	 M502.9-21.2c-0.8,0-1.6-0.3-2.3-0.9c-1.4-1.2-1.5-3.4-0.2-4.7c1.5-1.7,3-3.3,4.6-4.9c1.3-1.3,3.4-1.4,4.7-0.1
	c1.3,1.3,1.4,3.4,0.1,4.7c-1.5,1.6-3,3.2-4.5,4.9C504.7-21.6,503.8-21.2,502.9-21.2z M1204.8-68.1c-0.8,0-1.5-0.3-2.1-0.8
	c-1.7-1.4-3.4-2.8-5.1-4.2c-1.4-1.2-1.7-3.3-0.5-4.7c1.2-1.4,3.3-1.7,4.7-0.5c1.7,1.4,3.5,2.8,5.2,4.3c1.4,1.2,1.6,3.3,0.4,4.7
	C1206.7-68.5,1205.7-68.1,1204.8-68.1z M566.7-79.9c-1,0-2-0.4-2.6-1.3c-1.1-1.5-0.9-3.6,0.6-4.7c1.8-1.4,3.6-2.7,5.3-4.1
	c1.5-1.1,3.6-0.8,4.7,0.7c1.1,1.5,0.8,3.6-0.7,4.7c-1.8,1.3-3.5,2.7-5.3,4C568.2-80.2,567.4-79.9,566.7-79.9z M1133.7-117.9
	c-0.6,0-1.1-0.1-1.7-0.5c-1.9-1.1-3.8-2.2-5.8-3.3c-1.6-0.9-2.2-2.9-1.3-4.6c0.9-1.6,2.9-2.2,4.6-1.3c2,1.1,3.9,2.2,5.9,3.3
	c1.6,0.9,2.1,3,1.2,4.6C1135.9-118.5,1134.8-117.9,1133.7-117.9z M639.6-127c-1.2,0-2.4-0.6-3-1.8c-0.9-1.6-0.2-3.7,1.4-4.5
	c2-1,4-2.1,5.9-3.1c1.6-0.8,3.7-0.2,4.5,1.4s0.2,3.7-1.4,4.5c-2,1-3.9,2-5.9,3.1C640.6-127.1,640.1-127,639.6-127z M1055.1-154.9
	c-0.4,0-0.8-0.1-1.2-0.2c-2.1-0.8-4.2-1.5-6.3-2.3c-1.7-0.6-2.6-2.5-2-4.3c0.6-1.7,2.5-2.6,4.3-2c2.1,0.8,4.2,1.5,6.3,2.3
	c1.7,0.6,2.6,2.6,2,4.3C1057.7-155.7,1056.5-154.9,1055.1-154.9z M719.4-161c-1.4,0-2.7-0.9-3.2-2.3c-0.6-1.8,0.4-3.6,2.1-4.2
	c2.1-0.7,4.3-1.4,6.4-2.1c1.8-0.6,3.6,0.4,4.2,2.2c0.6,1.8-0.4,3.6-2.2,4.2c-2.1,0.7-4.2,1.3-6.3,2C720.1-161.1,719.7-161,719.4-161
	z M971.4-177.9c-0.2,0-0.4,0-0.6-0.1c-2.2-0.4-4.4-0.8-6.5-1.2c-1.8-0.3-3-2-2.7-3.9c0.3-1.8,2-3,3.9-2.7c2.2,0.4,4.4,0.8,6.6,1.2
	c1.8,0.3,3,2.1,2.7,3.9C974.4-179,973-177.9,971.4-177.9z M803.8-180.9c-1.6,0-3.1-1.2-3.3-2.9c-0.3-1.8,1-3.5,2.8-3.8
	c2.2-0.3,4.4-0.6,6.7-0.9c1.8-0.3,3.5,1,3.8,2.9c0.2,1.8-1,3.5-2.9,3.8c-2.2,0.3-4.4,0.6-6.6,0.9C804.1-180.9,804-180.9,803.8-180.9
	z M885.1-186.3C885.1-186.3,885-186.3,885.1-186.3c-2.3,0-4.5,0-6.7,0c-1.8,0-3.3-1.5-3.3-3.3s1.5-3.3,3.3-3.3c2.2,0,4.5,0,6.7,0
	c1.8,0,3.3,1.5,3.3,3.4C888.4-187.7,886.9-186.3,885.1-186.3z"/>
<rect id="XMLID_726_" x="1179" y="115.5" transform="matrix(-0.4194 -0.9078 0.9078 -0.4194 1546.6194 1271.0818)" class="st1" width="1.6" height="51"/>
<path id="XMLID_714_" class="st2" d="M871.1,654.3C678,654.3,520.9,497.2,520.9,304S678-46.2,871.1-46.2s350.3,157.1,350.3,350.3
	S1064.3,654.3,871.1,654.3z M871.1-2.7C702-2.7,564.4,134.9,564.4,304S702,610.7,871.1,610.7s306.7-137.6,306.7-306.7
	C1177.9,134.9,1040.3-2.7,871.1-2.7z"/>
<path id="XMLID_690_" class="st2" d="M871.1,779.2C609.1,779.2,396,566,396,304s213.1-475.1,475.1-475.1s475.2,213.2,475.2,475.2
	S1133.1,779.2,871.1,779.2z M871.1-133.7c-241.4,0-437.8,196.4-437.8,437.8s196.4,437.8,437.8,437.8s437.8-196.4,437.8-437.8
	S1112.5-133.7,871.1-133.7z"/>
<path id="XMLID_689_" class="st3" d="M1180.3,348.9c-3.9,3.7-9.9,3.8-13.3,0.2l-4.6-4.9c-3.4-3.6-3-9.6,0.9-13.3l2.4-2.3
	c3.9-3.7,9.9-3.8,13.3-0.2l4.6,4.9c3.4,3.6,3,9.6-0.9,13.3L1180.3,348.9z"/>
<rect id="XMLID_688_" x="1206.4" y="230.8" transform="matrix(-0.6896 -0.7242 0.7242 -0.6896 1846.1486 1381.0881)" class="st4" width="25.3" height="128.2"/>
<polygon id="XMLID_687_" class="st4" points="1256.9,241.7 1277.7,239 1274,259.7 "/>
<polygon id="XMLID_686_" class="st5" points="1278.4,238.4 1269.7,239.5 1276.8,246.9 "/>
<path id="XMLID_679_" class="st4" d="M1260.7,245.1h0.1H1260.7z"/>
<path id="XMLID_678_" class="st4" d="M1270.8,255.7v-0.1V255.7z"/>
<path id="XMLID_677_" class="st4" d="M1257.7,241.8"/>
<polygon id="XMLID_676_" class="st6" points="1274.5,259.5 1275,255.4 1270.5,256 1260.4,245.3 1261.2,240.9 1257.1,241.2 
	1257.1,241.2 1163.9,329.9 1181.3,348.2 "/>
<polygon id="XMLID_675_" class="st7" points="1270.4,255.9 1268.7,247.5 1260.5,245.5 1260.5,245.4 1167.6,333.8 1177.6,344.3 "/>
<path id="XMLID_666_" class="st8" d="M657.6,630.9c0.3,0.2,0.7,0.4,1,0.4c0,0,1.8,0.2,3.6,0.2c0.9,0,1.7,0,2.4,0s1.1-0.1,1.1-0.1
	c0.7,0,1.4,0.3,1.7,0.9c0,0,0.2,0.2,0.4,0.6c0.2,0.4,0.6,0.8,1,1.3c0.7,0.9,1.5,1.8,1.5,1.8s0.8,0.8,1.6,1.7
	c0.4,0.4,0.8,0.8,1.2,1.1c0.3,0.3,0.6,0.5,0.6,0.5c0.5,0.4,0.8,1.1,0.7,1.8c0,0-0.1,0.4-0.2,1.1c-0.1,0.6-0.2,1.5-0.3,2.4
	c-0.1,1.8-0.2,3.6-0.2,3.6c0,0.4,0.1,0.7,0.3,1s0.5,0.6,0.9,0.8c0,0,0.3,0.2,0.9,0.5c0.5,0.3,1.2,0.7,1.9,1c1.5,0.6,2.9,1.2,2.9,1.2
	c0.8,0.4,1.7,0.2,2.2-0.2c0,0,1.4-1.2,2.7-2.4c1.3-1.2,2.4-2.5,2.4-2.5c0.4-0.5,1.2-0.7,1.8-0.6c0,0,1.1,0.3,2.3,0.3
	c1.2,0.1,2.3,0.2,2.3,0.2s1.2,0,2.3,0c1.2,0,2.3-0.1,2.3-0.1c0.7-0.1,1.4,0.2,1.8,0.8c0,0,1,1.5,2.2,2.8c1.1,1.3,2.4,2.6,2.4,2.6
	c0.5,0.5,1.4,0.7,2.2,0.5c0,0,1.5-0.5,3-0.9c0.7-0.3,1.5-0.6,2-0.8s0.9-0.4,0.9-0.4c0.4-0.2,0.7-0.4,1-0.7c0.2-0.3,0.4-0.7,0.4-1
	c0,0,0.2-1.8,0.2-3.6c0-0.9,0-1.7,0-2.4s-0.1-1.1-0.1-1.1c0-0.7,0.3-1.4,0.9-1.7c0,0,0.2-0.2,0.6-0.4c0.4-0.2,0.8-0.6,1.3-1
	c0.9-0.7,1.8-1.5,1.8-1.5s0.8-0.8,1.7-1.6c0.4-0.4,0.8-0.8,1.1-1.2c0.3-0.3,0.5-0.6,0.5-0.6c0.4-0.5,1.1-0.8,1.8-0.7
	c0,0,0.4,0.1,1.1,0.2c0.6,0.1,1.5,0.2,2.4,0.3c1.8,0.1,3.6,0.2,3.6,0.2c0.3,0,0.7-0.1,1-0.3s0.6-0.5,0.8-0.9c0,0,0.2-0.3,0.5-0.9
	c0.3-0.5,0.7-1.2,1-1.9c0.6-1.5,1.2-2.9,1.2-2.9c0.4-0.8,0.2-1.7-0.2-2.2c0,0-1.2-1.4-2.4-2.7s-2.5-2.4-2.5-2.4
	c-0.5-0.4-0.8-1.2-0.6-1.8c0,0,0.3-1.1,0.3-2.3c0.1-1.2,0.2-2.3,0.2-2.3s0-1.2,0-2.3c0-1.2-0.1-2.3-0.1-2.3
	c-0.1-0.7,0.2-1.4,0.8-1.8c0,0,1.5-1,2.8-2.2c1.3-1.1,2.6-2.4,2.6-2.4c0.5-0.5,0.7-1.4,0.5-2.2c0,0-0.5-1.5-0.9-3
	c-0.3-0.7-0.6-1.5-0.8-2s-0.4-0.9-0.4-0.9c-0.2-0.4-0.4-0.7-0.7-1c-0.3-0.2-0.7-0.4-1-0.4c0,0-1.8-0.2-3.6-0.2c-0.9,0-1.7,0-2.4,0
	s-1.1,0.1-1.1,0.1c-0.7,0-1.4-0.3-1.7-0.9c0,0-0.2-0.2-0.4-0.6c-0.2-0.4-0.6-0.8-1-1.3c-0.7-0.9-1.5-1.8-1.5-1.8s-0.8-0.8-1.6-1.7
	c-0.4-0.4-0.8-0.8-1.2-1.1c-0.3-0.3-0.6-0.5-0.6-0.5c-0.5-0.4-0.8-1.1-0.7-1.8c0,0,0.1-0.4,0.2-1.1c0.1-0.6,0.2-1.5,0.3-2.4
	c0.1-1.8,0.2-3.6,0.2-3.6c0-0.3-0.1-0.7-0.3-1s-0.5-0.6-0.9-0.8c0,0-0.3-0.2-0.9-0.5c-0.5-0.3-1.2-0.7-1.9-1
	c-1.5-0.6-2.9-1.2-2.9-1.2c-0.8-0.4-1.7-0.2-2.2,0.2c0,0-1.4,1.2-2.7,2.4c-1.3,1.2-2.4,2.5-2.4,2.5c-0.4,0.5-1.2,0.8-1.8,0.6
	c0,0-1.1-0.3-2.3-0.3c-1.2-0.1-2.3-0.2-2.3-0.2s-1.2,0-2.3,0c-1.2,0-2.3,0.1-2.3,0.1c-0.7,0.1-1.4-0.2-1.8-0.8c0,0-1-1.5-2.2-2.8
	c-1.1-1.3-2.4-2.6-2.4-2.6c-0.5-0.5-1.4-0.7-2.2-0.5c0,0-1.5,0.5-3,0.9c-0.7,0.3-1.5,0.6-2,0.8s-0.9,0.4-0.9,0.4
	c-0.4,0.2-0.7,0.4-1,0.7c-0.2,0.3-0.4,0.7-0.4,1c0,0-0.2,1.8-0.2,3.6c0,0.9,0,1.7,0,2.4s0.1,1.1,0.1,1.1c0,0.7-0.3,1.4-0.9,1.7
	c0,0-0.2,0.2-0.6,0.4c-0.4,0.2-0.8,0.6-1.3,1c-0.9,0.7-1.8,1.5-1.8,1.5s-0.8,0.8-1.7,1.6c-0.4,0.4-0.8,0.8-1.1,1.2
	c-0.3,0.3-0.5,0.6-0.5,0.6c-0.4,0.5-1.1,0.8-1.8,0.7c0,0-0.4-0.1-1.1-0.2c-0.6-0.1-1.5-0.2-2.4-0.3c-1.8-0.1-3.6-0.2-3.6-0.2
	c-0.3,0-0.7,0.1-1,0.3s-0.6,0.5-0.8,0.9c0,0-0.2,0.3-0.5,0.9c-0.3,0.5-0.7,1.2-1,1.9c-0.6,1.5-1.2,2.9-1.2,2.9
	c-0.4,0.8-0.2,1.7,0.2,2.2c0,0,1.2,1.4,2.4,2.7c1.2,1.3,2.5,2.4,2.5,2.4c0.5,0.4,0.8,1.2,0.6,1.8c0,0-0.3,1.1-0.3,2.3
	c-0.1,1.2-0.2,2.3-0.2,2.3s0,1.2,0,2.3c0,1.2,0.1,2.3,0.1,2.3c0.1,0.7-0.2,1.4-0.8,1.8c0,0-1.5,1-2.8,2.2c-1.3,1.1-2.6,2.4-2.6,2.4
	c-0.5,0.5-0.7,1.4-0.5,2.2c0,0,0.5,1.5,0.9,3c0.3,0.7,0.6,1.5,0.8,2c0.2,0.5,0.4,0.9,0.4,0.9C657,630.3,657.3,630.6,657.6,630.9z
	 M676.2,626.5c-0.3-0.4-0.5-0.8-0.8-1.2s-0.5-0.9-0.8-1.4c-0.1-0.2-0.3-0.5-0.4-0.8c-0.1-0.3-0.2-0.5-0.3-0.8
	c-0.2-0.5-0.5-1.1-0.7-1.7c-0.2-0.6-0.3-1.1-0.5-1.7l-0.1-0.4l-0.1-0.4c-0.1-0.3-0.1-0.6-0.2-0.8c-0.3-1.1-0.3-2.1-0.4-3
	c-0.1-0.4-0.1-0.9,0-1.2c0-0.4,0-0.7,0-1c0-0.5,0-0.8,0-0.8s0-0.3,0.1-0.8c0-0.3,0.1-0.6,0.1-0.9c0-0.4,0.1-0.8,0.2-1.2
	c0.2-0.9,0.3-1.9,0.7-3c0.1-0.3,0.2-0.5,0.2-0.8l0.1-0.4l0.2-0.4c0.2-0.5,0.5-1.1,0.7-1.6c0.3-0.5,0.6-1.1,0.8-1.6
	c0.1-0.3,0.3-0.5,0.4-0.8c0.2-0.2,0.3-0.5,0.5-0.7c0.3-0.5,0.6-0.9,0.9-1.3c0.3-0.4,0.6-0.8,0.9-1.1c0.1-0.2,0.3-0.3,0.4-0.5
	c0.1-0.1,0.3-0.3,0.4-0.4c0.3-0.3,0.5-0.5,0.7-0.7c0.4-0.4,0.6-0.6,0.6-0.6s0.2-0.2,0.6-0.5c0.2-0.2,0.5-0.4,0.7-0.6
	c0.1-0.1,0.3-0.2,0.4-0.4c0.2-0.1,0.4-0.2,0.5-0.4c0.4-0.3,0.8-0.5,1.2-0.8c0.4-0.3,0.9-0.5,1.4-0.8c0.2-0.1,0.5-0.3,0.8-0.4
	c0.3-0.1,0.5-0.2,0.8-0.3c0.5-0.2,1.1-0.5,1.7-0.7c0.6-0.2,1.1-0.3,1.7-0.5l0.4-0.1l0.4-0.1c0.3-0.1,0.6-0.1,0.8-0.2
	c1.1-0.3,2.1-0.3,3-0.4c0.4-0.1,0.9-0.1,1.2,0c0.4,0,0.7,0,1,0c0.5,0,0.8,0,0.8,0s0.3,0,0.8,0.1c0.3,0,0.6,0.1,0.9,0.1
	c0.4,0,0.8,0.1,1.2,0.2c0.9,0.2,1.9,0.3,3,0.7c0.3,0.1,0.5,0.2,0.8,0.3l0.4,0.1l0.4,0.2c0.5,0.2,1.1,0.5,1.6,0.7
	c0.5,0.3,1.1,0.6,1.6,0.8c0.3,0.1,0.5,0.3,0.8,0.4c0.2,0.2,0.5,0.3,0.7,0.5c0.5,0.3,0.9,0.6,1.3,0.9c0.4,0.3,0.8,0.6,1.1,0.9
	c0.2,0.1,0.3,0.3,0.5,0.4c0.1,0.1,0.3,0.3,0.4,0.4c0.3,0.3,0.5,0.5,0.7,0.7c0.4,0.4,0.6,0.6,0.6,0.6s0.2,0.2,0.5,0.6
	c0.2,0.2,0.4,0.5,0.6,0.7c0.1,0.1,0.2,0.3,0.4,0.4c0.1,0.2,0.2,0.4,0.4,0.5c0.3,0.4,0.5,0.8,0.8,1.2s0.5,0.9,0.8,1.4
	c0.1,0.2,0.3,0.5,0.4,0.8c0.1,0.3,0.2,0.5,0.3,0.8c0.2,0.5,0.5,1.1,0.7,1.7c0.2,0.6,0.3,1.1,0.5,1.7l0.1,0.4l0.1,0.4
	c0.1,0.3,0.1,0.6,0.2,0.8c0.3,1.1,0.3,2.1,0.4,3c0.1,0.4,0.1,0.9,0,1.2c0,0.4,0,0.7,0,1c0,0.5,0,0.8,0,0.8s0,0.3-0.1,0.8
	c0,0.3-0.1,0.6-0.1,0.9c0,0.4-0.1,0.8-0.2,1.2c-0.2,0.9-0.3,1.9-0.7,3c-0.1,0.3-0.2,0.5-0.3,0.8l-0.1,0.4l-0.2,0.4
	c-0.2,0.5-0.5,1.1-0.7,1.6c-0.3,0.5-0.6,1.1-0.8,1.6c-0.1,0.3-0.3,0.5-0.4,0.8c-0.2,0.2-0.3,0.5-0.5,0.7c-0.3,0.5-0.6,0.9-0.9,1.3
	c-0.3,0.4-0.6,0.8-0.9,1.1c-0.1,0.2-0.3,0.3-0.4,0.5c-0.1,0.1-0.3,0.3-0.4,0.4c-0.3,0.3-0.5,0.5-0.7,0.7c-0.4,0.4-0.6,0.6-0.6,0.6
	s-0.2,0.2-0.6,0.5c-0.2,0.2-0.5,0.4-0.7,0.6c-0.1,0.1-0.3,0.2-0.4,0.4c-0.2,0.1-0.4,0.2-0.5,0.4c-0.4,0.3-0.8,0.5-1.2,0.8
	c-0.4,0.3-0.9,0.5-1.4,0.8c-0.2,0.1-0.5,0.3-0.8,0.4c-0.3,0.1-0.5,0.2-0.8,0.3c-0.5,0.2-1.1,0.5-1.7,0.7c-0.6,0.2-1.1,0.3-1.7,0.5
	L702,636l-0.4,0.1c-0.3,0.1-0.6,0.1-0.8,0.2c-1.1,0.3-2.1,0.3-3,0.4c-0.4,0.1-0.9,0.1-1.2,0c-0.4,0-0.7,0-1,0c-0.5,0-0.8,0-0.8,0
	s-0.3,0-0.8-0.1c-0.3,0-0.6-0.1-0.9-0.1c-0.4,0-0.8-0.1-1.2-0.2c-0.9-0.2-1.9-0.3-3-0.7c-0.3-0.1-0.5-0.2-0.8-0.3l-0.4-0.1l-0.4-0.2
	c-0.5-0.2-1.1-0.5-1.6-0.7c-0.5-0.3-1.1-0.6-1.6-0.8c-0.3-0.1-0.5-0.3-0.8-0.4c-0.2-0.2-0.5-0.3-0.7-0.5c-0.5-0.3-0.9-0.6-1.3-0.9
	c-0.4-0.3-0.8-0.6-1.1-0.9c-0.2-0.1-0.3-0.3-0.5-0.4c-0.1-0.1-0.3-0.3-0.4-0.4c-0.3-0.3-0.5-0.5-0.7-0.7c-0.4-0.4-0.6-0.6-0.6-0.6
	s-0.2-0.2-0.5-0.6c-0.2-0.2-0.4-0.5-0.6-0.7c-0.1-0.1-0.2-0.3-0.4-0.4C676.4,626.9,676.3,626.7,676.2,626.5z"/>
<path id="XMLID_659_" class="st6" d="M1050.2,583.8c-0.1,0.4,0,0.8,0.2,1.2c0,0,0.9,1.8,1.8,3.5c0.5,0.8,1,1.7,1.4,2.2
	c0.4,0.6,0.7,1,0.7,1c0.4,0.6,0.5,1.4,0.2,2.1c0,0-0.1,0.3-0.3,0.7c-0.2,0.4-0.4,1-0.7,1.6c-0.4,1.2-0.9,2.4-0.9,2.4
	s-0.3,1.2-0.6,2.5c-0.2,0.6-0.3,1.2-0.4,1.7s-0.1,0.8-0.1,0.8c-0.1,0.8-0.6,1.4-1.3,1.7c0,0-0.5,0.2-1.1,0.4
	c-0.6,0.3-1.5,0.7-2.4,1.1c-1.7,0.8-3.5,1.9-3.5,1.9c-0.3,0.2-0.6,0.5-0.8,0.9c-0.2,0.4-0.3,0.8-0.2,1.3c0,0,0,0.4,0,1.1
	c0,0.7,0,1.5,0.1,2.4c0.2,1.7,0.5,3.4,0.5,3.4c0.1,0.9,0.8,1.7,1.5,2c0,0,1.9,0.7,3.7,1.2c1.8,0.5,3.8,0.9,3.8,0.9
	c0.7,0.1,1.4,0.7,1.6,1.4c0,0,0.4,1.2,1,2.4c0.5,1.2,1.1,2.3,1.1,2.3s0.7,1.1,1.3,2.2c0.6,1.1,1.4,2.1,1.4,2.1
	c0.5,0.6,0.5,1.4,0.2,2.1c0,0-0.8,1.8-1.4,3.6c-0.6,1.8-1.1,3.8-1.1,3.8c-0.2,0.7,0.1,1.7,0.8,2.3c0,0,1.3,1.2,2.6,2.3
	c0.7,0.6,1.4,1.1,1.9,1.4c0.5,0.4,0.9,0.6,0.9,0.6c0.4,0.3,0.8,0.5,1.2,0.5c0.4,0.1,0.8,0,1.2-0.2c0,0,1.8-0.9,3.5-1.8
	c0.8-0.5,1.7-1,2.2-1.4c0.6-0.4,1-0.7,1-0.7c0.6-0.4,1.4-0.5,2.1-0.2c0,0,0.3,0.1,0.7,0.3s1,0.4,1.6,0.7c1.2,0.4,2.4,0.9,2.4,0.9
	s1.2,0.3,2.5,0.6c0.6,0.2,1.2,0.3,1.7,0.4c0.5,0.1,0.8,0.1,0.8,0.1c0.8,0.1,1.4,0.6,1.7,1.3c0,0,0.2,0.5,0.4,1.1
	c0.3,0.6,0.7,1.5,1.1,2.4c0.8,1.7,1.9,3.5,1.9,3.5c0.2,0.3,0.5,0.6,0.9,0.8s0.8,0.3,1.3,0.2c0,0,0.4,0,1.1,0c0.6,0,1.5,0,2.4-0.1
	c1.7-0.2,3.4-0.5,3.4-0.5c0.9-0.1,1.7-0.8,2-1.5c0,0,0.7-1.9,1.2-3.7s0.9-3.8,0.9-3.8c0.1-0.7,0.7-1.4,1.4-1.6c0,0,1.2-0.4,2.4-1
	c1.2-0.5,2.3-1.1,2.3-1.1s1.1-0.7,2.2-1.3s2.1-1.4,2.1-1.4c0.6-0.5,1.4-0.5,2.1-0.2c0,0,1.8,0.8,3.6,1.4c1.8,0.6,3.8,1.1,3.8,1.1
	c0.7,0.2,1.7-0.1,2.3-0.8c0,0,1.2-1.3,2.3-2.6c0.6-0.7,1.1-1.4,1.4-1.9c0.4-0.5,0.6-0.9,0.6-0.9c0.3-0.4,0.5-0.8,0.5-1.2
	c0.1-0.4,0-0.8-0.2-1.2c0,0-0.9-1.8-1.8-3.5c-0.5-0.8-1-1.7-1.4-2.2c-0.4-0.6-0.7-1-0.7-1c-0.4-0.6-0.5-1.4-0.2-2.1
	c0,0,0.1-0.3,0.3-0.7c0.2-0.4,0.4-1,0.7-1.6c0.4-1.2,0.9-2.4,0.9-2.4s0.3-1.2,0.6-2.5c0.2-0.6,0.3-1.2,0.4-1.7
	c0.1-0.5,0.1-0.8,0.1-0.8c0.1-0.8,0.6-1.4,1.3-1.7c0,0,0.5-0.2,1.1-0.4c0.6-0.3,1.5-0.7,2.4-1.1c1.7-0.8,3.5-1.9,3.5-1.9
	c0.3-0.2,0.6-0.5,0.8-0.9c0.2-0.4,0.3-0.8,0.2-1.3c0,0,0-0.4,0-1.1c0-0.6,0-1.5-0.1-2.4c-0.2-1.7-0.5-3.4-0.5-3.4
	c-0.1-0.9-0.8-1.7-1.5-2c0,0-1.9-0.7-3.7-1.2c-1.8-0.5-3.8-0.9-3.8-0.9c-0.7-0.1-1.4-0.7-1.6-1.4c0,0-0.4-1.2-1-2.4
	c-0.5-1.2-1.1-2.3-1.1-2.3s-0.7-1.1-1.3-2.2c-0.6-1.1-1.4-2.1-1.4-2.1c-0.5-0.6-0.5-1.4-0.2-2.1c0,0,0.8-1.8,1.4-3.6
	s1.1-3.8,1.1-3.8c0.2-0.7-0.1-1.7-0.8-2.3c0,0-1.3-1.2-2.6-2.3c-0.7-0.6-1.4-1.1-1.9-1.4c-0.5-0.4-0.9-0.6-0.9-0.6
	c-0.4-0.3-0.8-0.5-1.2-0.5c-0.4-0.1-0.8,0-1.2,0.2c0,0-1.8,0.9-3.5,1.8c-0.8,0.5-1.7,1-2.2,1.4c-0.6,0.4-1,0.7-1,0.7
	c-0.6,0.4-1.4,0.5-2.1,0.2c0,0-0.3-0.1-0.7-0.3s-1-0.4-1.6-0.7c-1.2-0.4-2.4-0.9-2.4-0.9s-1.2-0.3-2.5-0.6c-0.6-0.2-1.2-0.3-1.7-0.4
	c-0.5-0.1-0.8-0.1-0.8-0.1c-0.8-0.1-1.4-0.6-1.7-1.3c0,0-0.2-0.5-0.4-1.1c-0.3-0.6-0.7-1.5-1.1-2.4c-0.8-1.7-1.9-3.5-1.9-3.5
	c-0.2-0.3-0.5-0.6-0.9-0.8s-0.8-0.3-1.3-0.2c0,0-0.4,0-1.1,0c-0.6,0-1.5,0-2.4,0.1c-1.7,0.2-3.4,0.5-3.4,0.5c-0.9,0.1-1.7,0.8-2,1.5
	c0,0-0.7,1.9-1.2,3.7s-0.9,3.8-0.9,3.8c-0.1,0.7-0.7,1.4-1.4,1.6c0,0-1.2,0.4-2.4,1c-1.2,0.5-2.3,1.1-2.3,1.1s-1.1,0.7-2.2,1.3
	c-1.1,0.6-2.1,1.4-2.1,1.4c-0.6,0.5-1.4,0.5-2.1,0.2c0,0-1.8-0.8-3.6-1.4c-1.8-0.6-3.8-1.1-3.8-1.1c-0.7-0.2-1.7,0.1-2.3,0.8
	c0,0-1.2,1.3-2.3,2.6c-0.6,0.7-1.1,1.4-1.4,1.9c-0.4,0.5-0.6,0.9-0.6,0.9C1050.4,583,1050.3,583.4,1050.2,583.8z M1064.7,599
	c0.2-0.4,0.4-0.9,0.7-1.4c0.2-0.5,0.6-1,0.9-1.5c0.2-0.3,0.3-0.5,0.5-0.8c0.2-0.3,0.4-0.5,0.6-0.8c0.4-0.5,0.8-1.1,1.2-1.6
	s0.9-1,1.3-1.5l0.3-0.4l0.4-0.3c0.2-0.2,0.5-0.4,0.7-0.6c0.9-0.9,1.9-1.5,2.6-2.1c0.4-0.3,0.8-0.5,1.1-0.7c0.3-0.2,0.6-0.4,0.9-0.5
	c0.5-0.3,0.8-0.5,0.8-0.5s0.3-0.1,0.8-0.4c0.3-0.1,0.6-0.3,0.9-0.4c0.4-0.2,0.8-0.4,1.2-0.5c0.9-0.3,2-0.8,3.2-1
	c0.3-0.1,0.6-0.1,0.9-0.2l0.5-0.1l0.5-0.1c0.6-0.1,1.3-0.2,1.9-0.3c0.7-0.1,1.3,0,2-0.1c0.3,0,0.6,0,1,0c0.3,0,0.6,0,0.9,0.1
	c0.6,0.1,1.2,0,1.8,0.1s1.1,0.2,1.6,0.3c0.2,0,0.5,0.1,0.7,0.1c0.2,0.1,0.4,0.1,0.6,0.2c0.4,0.1,0.7,0.2,1,0.3
	c0.6,0.1,0.9,0.2,0.9,0.2s0.3,0.1,0.9,0.3c0.3,0.1,0.6,0.2,1,0.4c0.2,0.1,0.4,0.1,0.6,0.2c0.2,0.1,0.4,0.2,0.6,0.3
	c0.4,0.2,0.9,0.4,1.4,0.7c0.5,0.2,1,0.6,1.5,0.9c0.3,0.2,0.5,0.3,0.8,0.5c0.3,0.2,0.5,0.4,0.8,0.6c0.5,0.4,1.1,0.8,1.6,1.2
	s1,0.9,1.5,1.3l0.4,0.3l0.3,0.4c0.2,0.2,0.4,0.5,0.6,0.7c0.9,0.9,1.5,1.9,2.1,2.6c0.3,0.4,0.5,0.8,0.7,1.1c0.2,0.3,0.4,0.6,0.5,0.9
	c0.3,0.5,0.5,0.8,0.5,0.8s0.1,0.3,0.4,0.8c0.1,0.3,0.3,0.6,0.4,0.9c0.2,0.4,0.4,0.8,0.5,1.2c0.3,0.9,0.8,2,1,3.2
	c0.1,0.3,0.1,0.6,0.2,0.9l0.1,0.5l0.1,0.5c0.1,0.6,0.2,1.3,0.3,1.9c0.1,0.7,0,1.3,0.1,2c0,0.3,0,0.6,0,1c0,0.3,0,0.6-0.1,0.9
	c-0.1,0.6,0,1.2-0.1,1.8s-0.2,1.1-0.3,1.6c0,0.2-0.1,0.5-0.1,0.7c-0.1,0.2-0.1,0.4-0.2,0.6c-0.1,0.4-0.2,0.7-0.3,1
	c-0.1,0.6-0.2,0.9-0.2,0.9s-0.1,0.3-0.3,0.9c-0.1,0.3-0.2,0.6-0.4,1c-0.1,0.2-0.1,0.4-0.2,0.6c-0.1,0.2-0.2,0.4-0.3,0.6
	c-0.2,0.4-0.4,0.9-0.7,1.4c-0.2,0.5-0.6,1-0.9,1.5c-0.2,0.3-0.3,0.5-0.5,0.8c-0.2,0.3-0.4,0.5-0.6,0.8c-0.4,0.5-0.8,1.1-1.2,1.6
	s-0.9,1-1.3,1.5l-0.3,0.4l-0.4,0.3c-0.2,0.2-0.5,0.4-0.7,0.6c-0.9,0.9-1.9,1.5-2.6,2.1c-0.4,0.3-0.8,0.5-1.1,0.7
	c-0.3,0.2-0.6,0.4-0.9,0.5c-0.5,0.3-0.8,0.5-0.8,0.5s-0.3,0.1-0.8,0.4c-0.3,0.1-0.6,0.3-0.9,0.4c-0.4,0.2-0.8,0.4-1.2,0.5
	c-0.9,0.3-2,0.8-3.2,1c-0.3,0.1-0.6,0.1-0.9,0.2l-0.5,0.1l-0.5,0.1c-0.6,0.1-1.3,0.2-1.9,0.3c-0.7,0.1-1.3,0-2,0.1c-0.3,0-0.6,0-1,0
	c-0.3,0-0.6,0-0.9-0.1c-0.6-0.1-1.2,0-1.8-0.1s-1.1-0.2-1.6-0.3c-0.2,0-0.5-0.1-0.7-0.1c-0.2-0.1-0.4-0.1-0.6-0.2
	c-0.4-0.1-0.7-0.2-1-0.3c-0.6-0.1-0.9-0.2-0.9-0.2s-0.3-0.1-0.9-0.3c-0.3-0.1-0.6-0.2-1-0.4c-0.2-0.1-0.4-0.1-0.6-0.2
	c-0.2-0.1-0.4-0.2-0.6-0.3c-0.4-0.2-0.9-0.4-1.4-0.7c-0.5-0.2-1-0.6-1.5-0.9c-0.3-0.2-0.5-0.3-0.8-0.5c-0.3-0.2-0.5-0.4-0.8-0.6
	c-0.5-0.4-1.1-0.8-1.6-1.2s-1-0.9-1.5-1.3l-0.4-0.3l-0.3-0.4c-0.2-0.2-0.4-0.5-0.6-0.7c-0.9-0.9-1.5-1.9-2.1-2.6
	c-0.3-0.4-0.5-0.8-0.7-1.1c-0.2-0.3-0.4-0.6-0.5-0.9c-0.3-0.5-0.5-0.8-0.5-0.8s-0.1-0.3-0.4-0.8c-0.1-0.3-0.3-0.6-0.4-0.9
	c-0.2-0.4-0.4-0.8-0.5-1.2c-0.3-0.9-0.8-2-1-3.2c-0.1-0.3-0.1-0.6-0.2-0.9l-0.1-0.5l-0.1-0.5c-0.1-0.6-0.2-1.3-0.3-1.9
	c-0.1-0.7,0-1.3-0.1-2c0-0.3,0-0.6,0-1c0-0.3,0-0.6,0.1-0.9c0.1-0.6,0-1.2,0.1-1.8s0.2-1.1,0.3-1.6c0-0.2,0.1-0.5,0.1-0.7
	c0.1-0.2,0.1-0.4,0.2-0.6c0.1-0.4,0.2-0.7,0.3-1c0.1-0.6,0.2-0.9,0.2-0.9s0.1-0.3,0.3-0.9c0.1-0.3,0.2-0.6,0.4-1
	c0.1-0.2,0.1-0.4,0.2-0.6S1064.6,599.2,1064.7,599z"/>
<path id="XMLID_656_" class="st6" d="M553.8,610.7c0.6,0.2,1.2,0.1,1.7,0c0,0,2.7-0.9,5.2-2c1.3-0.5,2.5-1.1,3.4-1.5
	c0.9-0.4,1.5-0.8,1.5-0.8c0.9-0.5,2.1-0.4,3,0.1c0,0,0.4,0.2,1,0.6c0.6,0.4,1.4,0.8,2.2,1.2c1.6,0.8,3.2,1.6,3.2,1.6
	s1.7,0.7,3.4,1.3c0.8,0.3,1.7,0.7,2.4,0.8c0.7,0.2,1.1,0.3,1.1,0.3c1,0.3,1.9,1.1,2.1,2.2c0,0,0.2,0.7,0.4,1.7
	c0.3,1,0.7,2.3,1.1,3.6c0.9,2.6,2,5.2,2,5.2c0.2,0.5,0.6,1,1.1,1.3s1.1,0.5,1.8,0.6c0,0,0.6,0.1,1.5,0.1c0.9,0.1,2.1,0.2,3.4,0.2
	c2.5,0,4.9-0.1,4.9-0.1c1.4,0,2.5-0.8,3-1.7c0,0,1.3-2.5,2.3-5.1c1.1-2.5,1.9-5.2,1.9-5.2c0.3-1,1.2-1.8,2.3-2c0,0,1.8-0.3,3.5-1
	c1.7-0.6,3.5-1.1,3.5-1.1s1.7-0.7,3.3-1.5c1.7-0.7,3.3-1.6,3.3-1.6c1-0.5,2.1-0.5,3,0c0,0,2.4,1.5,4.8,2.6c2.4,1.2,5.1,2.3,5.1,2.3
	c1,0.4,2.4,0.2,3.4-0.7c0,0,1.9-1.6,3.7-3.2c0.9-0.8,1.7-1.8,2.4-2.4c0.6-0.7,1.1-1.1,1.1-1.1c0.5-0.5,0.8-1.1,1-1.6
	c0.2-0.6,0.1-1.2,0-1.7c0,0-0.9-2.7-1.9-5.2c-0.5-1.3-1.1-2.5-1.5-3.4c-0.4-0.9-0.8-1.5-0.8-1.5c-0.5-0.9-0.4-2.1,0.2-3
	c0,0,0.2-0.4,0.6-1c0.4-0.6,0.8-1.4,1.2-2.2c0.8-1.6,1.7-3.3,1.7-3.3s0.7-1.7,1.3-3.4c0.3-0.8,0.7-1.7,0.8-2.4
	c0.2-0.7,0.3-1.1,0.3-1.1c0.3-1.1,1.1-1.9,2.2-2.1c0,0,0.7-0.2,1.7-0.4c1-0.3,2.3-0.7,3.6-1.1c2.6-0.9,5.2-2,5.2-2
	c0.5-0.2,1-0.6,1.3-1.1s0.5-1.1,0.6-1.8c0,0,0.1-0.6,0.1-1.5c0.1-0.9,0.2-2.2,0.2-3.4c0-2.5,0-4.9,0-4.9c0-1.4-0.8-2.5-1.7-3
	c0,0-2.5-1.3-5.1-2.3c-2.5-1.1-5.1-1.9-5.1-1.9c-1-0.3-1.8-1.2-2-2.2c0,0-0.3-1.8-0.9-3.5c-0.6-1.7-1.1-3.5-1.1-3.5
	s-0.7-1.7-1.4-3.3c-0.7-1.7-1.6-3.3-1.6-3.3c-0.5-1-0.5-2.1,0-3c0,0,1.5-2.4,2.6-4.8c1.2-2.5,2.3-5.1,2.3-5.1c0.4-1,0.2-2.4-0.7-3.4
	c0,0-1.6-1.9-3.2-3.7c-0.8-0.9-1.8-1.7-2.4-2.4c-0.7-0.6-1.1-1.1-1.1-1.1c-0.5-0.5-1.1-0.8-1.6-1c-0.6-0.2-1.2-0.1-1.7,0
	c0,0-2.7,0.9-5.2,2c-1.3,0.5-2.5,1.1-3.4,1.5c-0.9,0.4-1.5,0.8-1.5,0.8c-0.9,0.5-2.1,0.4-3-0.1c0,0-0.4-0.2-1-0.6
	c-0.6-0.4-1.4-0.8-2.2-1.2c-1.6-0.8-3.2-1.6-3.2-1.6s-1.7-0.7-3.4-1.3c-0.8-0.3-1.7-0.7-2.4-0.8c-0.7-0.2-1.1-0.3-1.1-0.3
	c-1-0.3-1.9-1.1-2.1-2.2c0,0-0.2-0.7-0.4-1.7c-0.3-1-0.7-2.3-1.1-3.6c-0.9-2.6-2-5.2-2-5.2c-0.2-0.5-0.6-1-1.1-1.3s-1.1-0.5-1.8-0.6
	c0,0-0.6-0.1-1.5-0.1c-0.9-0.1-2.1-0.2-3.4-0.2c-2.5,0-4.9,0.1-4.9,0.1c-1.4,0-2.5,0.8-3,1.7c0,0-1.3,2.5-2.3,5.1
	c-1.1,2.5-1.9,5.2-1.9,5.2c-0.3,1-1.2,1.8-2.3,2c0,0-1.8,0.3-3.5,1c-1.7,0.6-3.5,1.1-3.5,1.1s-1.7,0.7-3.3,1.5
	c-1.7,0.7-3.3,1.6-3.3,1.6c-1,0.5-2.1,0.5-3,0c0,0-2.4-1.5-4.8-2.6c-2.4-1.2-5.1-2.3-5.1-2.3c-1-0.4-2.4-0.2-3.4,0.7
	c0,0-1.9,1.6-3.7,3.2c-0.9,0.8-1.7,1.8-2.4,2.4c-0.6,0.7-1.1,1.1-1.1,1.1c-0.5,0.5-0.8,1.1-1,1.6c-0.2,0.6-0.1,1.2,0,1.7
	c0,0,0.9,2.7,1.9,5.2c0.5,1.3,1.1,2.5,1.5,3.4c0.4,0.9,0.8,1.5,0.8,1.5c0.5,0.9,0.4,2.1-0.2,3c0,0-0.2,0.4-0.6,1
	c-0.4,0.6-0.8,1.4-1.2,2.2c-0.8,1.6-1.7,3.2-1.7,3.2s-0.7,1.7-1.3,3.4c-0.3,0.8-0.7,1.7-0.8,2.4c-0.2,0.7-0.3,1.1-0.3,1.1
	c-0.3,1.1-1.1,1.9-2.2,2.1c0,0-0.7,0.2-1.7,0.4c-1,0.3-2.3,0.7-3.6,1.1c-2.6,0.9-5.2,2-5.2,2c-0.5,0.2-1,0.6-1.3,1.1
	s-0.5,1.1-0.6,1.8c0,0-0.1,0.6-0.1,1.5c-0.1,0.9-0.2,2.2-0.2,3.4c0,2.5,0,4.9,0,4.9c0,1.4,0.8,2.5,1.7,3c0,0,2.5,1.3,5.1,2.3
	c2.5,1.1,5.1,1.9,5.1,1.9c1,0.3,1.8,1.2,2,2.2c0,0,0.3,1.8,0.9,3.5c0.6,1.7,1.1,3.5,1.1,3.5s0.7,1.7,1.4,3.3
	c0.7,1.7,1.6,3.3,1.6,3.3c0.5,1,0.5,2.1,0,3c0,0-1.5,2.4-2.6,4.8c-1.2,2.5-2.3,5.1-2.3,5.1c-0.4,1-0.2,2.4,0.7,3.4
	c0,0,1.6,1.9,3.2,3.7c0.8,0.9,1.8,1.7,2.4,2.4c0.7,0.6,1.1,1.1,1.1,1.1C552.6,610.2,553.2,610.5,553.8,610.7z M577.7,592.8
	c-0.6-0.4-1.2-0.8-1.9-1.2c-0.7-0.4-1.3-1-2-1.5c-0.3-0.3-0.7-0.5-1.1-0.8c-0.4-0.3-0.7-0.6-1-0.9c-0.6-0.6-1.4-1.3-2-1.9
	c-0.6-0.7-1.2-1.4-1.8-2.1l-0.5-0.5l-0.4-0.6c-0.3-0.4-0.5-0.7-0.8-1.1c-1.1-1.4-1.8-2.9-2.5-4.1c-0.4-0.6-0.6-1.2-0.8-1.7
	c-0.2-0.5-0.4-1-0.6-1.4c-0.3-0.8-0.5-1.2-0.5-1.2s-0.1-0.5-0.4-1.2c-0.1-0.4-0.3-0.9-0.5-1.4s-0.4-1.2-0.5-1.9
	c-0.2-1.4-0.7-3-0.8-4.7c-0.1-0.4-0.1-0.9-0.2-1.3l-0.1-0.7v-0.7c0-0.9,0-1.9,0-2.8c0-0.9,0.2-1.9,0.2-2.8c0-0.5,0-0.9,0.1-1.4
	c0.1-0.4,0.2-0.9,0.3-1.3c0.2-0.9,0.3-1.7,0.5-2.5s0.4-1.5,0.6-2.2c0.1-0.3,0.2-0.7,0.3-1c0.1-0.3,0.2-0.6,0.3-0.8
	c0.2-0.5,0.4-1,0.6-1.4c0.3-0.8,0.5-1.2,0.5-1.2s0.2-0.4,0.6-1.1c0.2-0.4,0.4-0.8,0.7-1.3c0.1-0.3,0.3-0.5,0.4-0.8
	c0.2-0.3,0.4-0.6,0.6-0.8c0.4-0.6,0.8-1.2,1.2-1.9s1-1.3,1.5-2c0.3-0.4,0.5-0.7,0.8-1.1c0.3-0.4,0.6-0.7,0.9-1
	c0.7-0.7,1.3-1.4,1.9-2c0.7-0.6,1.4-1.2,2.1-1.8l0.5-0.5l0.6-0.4c0.4-0.3,0.7-0.5,1.1-0.8c1.4-1.1,2.9-1.8,4.1-2.5
	c0.6-0.4,1.2-0.6,1.7-0.8s1-0.4,1.4-0.6c0.8-0.3,1.2-0.5,1.2-0.5s0.5-0.1,1.2-0.4c0.4-0.1,0.9-0.3,1.4-0.5s1.2-0.4,1.9-0.5
	c1.4-0.3,3-0.7,4.7-0.8c0.4-0.1,0.9-0.1,1.3-0.2l0.7-0.1h0.7c0.9,0,1.9,0,2.8,0c0.9,0,1.9,0.2,2.8,0.2c0.5,0,0.9,0,1.4,0.1
	c0.4,0.1,0.9,0.2,1.3,0.3c0.9,0.2,1.7,0.3,2.5,0.5s1.5,0.4,2.2,0.6c0.3,0.1,0.7,0.2,1,0.3s0.6,0.2,0.8,0.3c0.5,0.2,1,0.4,1.4,0.5
	c0.8,0.3,1.2,0.5,1.2,0.5s0.4,0.2,1.1,0.6c0.4,0.2,0.8,0.4,1.3,0.7c0.3,0.1,0.5,0.3,0.8,0.4c0.3,0.2,0.5,0.4,0.8,0.6
	c0.6,0.4,1.2,0.8,1.9,1.2s1.3,1,2,1.5c0.3,0.3,0.7,0.5,1.1,0.8c0.4,0.3,0.7,0.6,1,0.9c0.6,0.7,1.4,1.3,2,1.9
	c0.6,0.7,1.2,1.4,1.8,2.1l0.5,0.5l0.4,0.6c0.3,0.4,0.5,0.7,0.8,1.1c1.1,1.4,1.8,2.9,2.5,4.1c0.4,0.6,0.6,1.2,0.8,1.7s0.4,1,0.6,1.4
	c0.3,0.8,0.5,1.2,0.5,1.2s0.1,0.5,0.4,1.2c0.1,0.4,0.3,0.9,0.5,1.4s0.4,1.2,0.5,1.9c0.2,1.4,0.7,3,0.8,4.7c0,0.4,0.1,0.9,0.2,1.3
	l0.1,0.7v0.7c0,0.9,0,1.9,0,2.8c0,0.9-0.2,1.9-0.2,2.8c0,0.5,0,0.9-0.1,1.4c-0.1,0.4-0.2,0.9-0.3,1.3c-0.2,0.9-0.3,1.7-0.5,2.5
	s-0.4,1.5-0.6,2.2c-0.1,0.3-0.2,0.7-0.3,1s-0.2,0.6-0.3,0.8c-0.2,0.5-0.4,1-0.6,1.4c-0.3,0.8-0.5,1.2-0.5,1.2s-0.2,0.4-0.6,1.1
	c-0.2,0.4-0.4,0.8-0.7,1.3c-0.1,0.3-0.3,0.5-0.4,0.8c-0.2,0.3-0.4,0.6-0.6,0.8c-0.4,0.6-0.8,1.2-1.2,1.9c-0.4,0.7-1,1.3-1.5,2
	c-0.3,0.3-0.5,0.7-0.8,1.1c-0.3,0.4-0.6,0.7-0.9,1c-0.7,0.7-1.3,1.4-1.9,2c-0.7,0.6-1.4,1.2-2.1,1.8l-0.5,0.5l-0.6,0.4
	c-0.4,0.3-0.7,0.5-1.1,0.8c-1.4,1.1-2.9,1.8-4.1,2.5c-0.6,0.4-1.2,0.6-1.7,0.8s-1,0.4-1.4,0.6c-0.8,0.3-1.2,0.5-1.2,0.5
	s-0.5,0.1-1.2,0.4c-0.4,0.1-0.9,0.3-1.4,0.5s-1.2,0.4-1.9,0.5c-1.4,0.3-3,0.7-4.7,0.8c-0.4,0.1-0.9,0.1-1.3,0.2l-0.7,0.1h-0.7
	c-0.9,0-1.9,0-2.8,0c-0.9,0-1.9-0.2-2.8-0.2c-0.5,0-0.9,0-1.4-0.1c-0.4-0.1-0.9-0.2-1.3-0.3c-0.9-0.2-1.7-0.3-2.5-0.5
	s-1.5-0.4-2.2-0.6c-0.3-0.1-0.7-0.2-1-0.3s-0.6-0.2-0.8-0.3c-0.5-0.2-1-0.4-1.4-0.5c-0.8-0.3-1.2-0.5-1.2-0.5s-0.4-0.2-1.1-0.6
	c-0.4-0.2-0.8-0.4-1.3-0.7c-0.3-0.1-0.5-0.3-0.8-0.4C578.3,593.2,578,593,577.7,592.8z"/>
<path id="XMLID_648_" class="st8" d="M880.9-39.3c0.4,0.5,1,0.9,1.5,1c0,0,3,0.9,5.9,1.5c1.5,0.3,2.9,0.6,4,0.8s1.9,0.3,1.9,0.3
	c1.2,0.1,2.2,0.9,2.6,2c0,0,0.2,0.5,0.5,1.1c0.3,0.7,0.7,1.6,1.2,2.4c0.9,1.7,1.9,3.5,1.9,3.5s1.1,1.7,2.2,3.3
	c0.5,0.8,1.1,1.7,1.6,2.2c0.5,0.6,0.8,1,0.8,1c0.8,0.9,0.9,2.2,0.5,3.3c0,0-0.3,0.7-0.7,1.8c-0.4,1-0.8,2.4-1.2,3.9
	c-0.8,2.9-1.5,5.9-1.5,5.9c-0.1,0.6-0.1,1.2,0.2,1.9c0.3,0.6,0.7,1.2,1.3,1.6c0,0,0.5,0.4,1.3,1.1c0.8,0.6,1.8,1.5,2.9,2.3
	c2.2,1.5,4.5,3,4.5,3c1.2,0.9,2.8,0.9,3.8,0.3c0,0,2.7-1.5,5.3-3.1c2.5-1.5,4.9-3.4,4.9-3.4c0.9-0.7,2.2-0.9,3.3-0.4
	c0,0,1.8,0.8,3.7,1.3c1.9,0.6,3.8,1.2,3.8,1.2s1.9,0.4,3.9,0.8c1.9,0.5,3.9,0.6,3.9,0.6c1.2,0.1,2.2,0.9,2.7,1.9
	c0,0,1.2,2.8,2.7,5.3c1.4,2.6,3.2,5.2,3.2,5.2c0.6,1,2,1.7,3.5,1.5c0,0,2.7-0.3,5.4-0.6c1.3-0.2,2.7-0.5,3.6-0.7
	c1-0.2,1.7-0.3,1.7-0.3c0.7-0.2,1.4-0.5,1.9-0.9s0.9-1,1-1.5c0,0,0.9-3,1.5-5.9c0.3-1.5,0.6-2.9,0.8-4s0.3-1.8,0.3-1.8
	c0.1-1.1,0.9-2.2,2-2.6c0,0,0.5-0.2,1.1-0.5c0.7-0.3,1.6-0.7,2.5-1.2c1.8-0.9,3.5-1.9,3.5-1.9s1.7-1.1,3.3-2.2
	c0.8-0.5,1.7-1.1,2.2-1.6c0.6-0.5,1-0.8,1-0.8c0.9-0.8,2.2-1,3.3-0.5c0,0,0.7,0.3,1.8,0.6c1,0.4,2.4,0.8,3.9,1.2
	c2.9,0.8,5.9,1.5,5.9,1.5c0.6,0.1,1.2,0.1,1.9-0.2c0.6-0.3,1.2-0.7,1.7-1.3c0,0,0.4-0.5,1.1-1.3c0.6-0.8,1.5-1.8,2.3-2.9
	c1.5-2.2,3.1-4.4,3.1-4.4c0.9-1.2,0.9-2.8,0.3-3.8c0,0-1.5-2.7-3.1-5.2c-1.5-2.5-3.4-4.9-3.4-4.9c-0.7-0.9-0.9-2.2-0.4-3.3
	c0,0,0.8-1.8,1.3-3.7c0.6-1.9,1.2-3.8,1.2-3.8s0.4-1.9,0.8-3.9c0.5-1.9,0.6-3.9,0.6-3.9c0.1-1.2,0.9-2.2,1.9-2.7
	c0,0,2.8-1.2,5.4-2.7c2.6-1.4,5.2-3.2,5.2-3.2c1-0.7,1.7-2,1.5-3.5c0,0-0.3-2.7-0.6-5.4c-0.2-1.3-0.5-2.6-0.7-3.6s-0.3-1.6-0.3-1.6
	c-0.1-0.7-0.5-1.4-0.9-1.9s-1-0.9-1.5-1c0,0-3-0.9-5.9-1.5c-1.5-0.3-2.9-0.6-4-0.8s-1.9-0.3-1.9-0.3c-1.2-0.1-2.2-0.9-2.6-2
	c0,0-0.2-0.5-0.5-1.1c-0.3-0.7-0.7-1.6-1.2-2.4c-0.9-1.7-1.9-3.5-1.9-3.5s-1.1-1.7-2.2-3.3c-0.5-0.8-1.1-1.7-1.6-2.2
	c-0.5-0.6-0.8-1-0.8-1c-0.8-0.9-0.9-2.2-0.5-3.3c0,0,0.3-0.7,0.7-1.8c0.4-1,0.8-2.4,1.2-3.9c0.8-2.9,1.5-5.9,1.5-5.9
	c0.1-0.6,0.1-1.2-0.2-1.9c-0.3-0.6-0.7-1.2-1.3-1.6c0,0-0.5-0.4-1.3-1.1c-0.8-0.6-1.8-1.5-2.9-2.3c-2.2-1.5-4.5-3-4.5-3
	c-1.2-0.9-2.8-0.9-3.8-0.3c0,0-2.7,1.5-5.3,3.1c-2.5,1.5-4.9,3.4-4.9,3.4c-0.9,0.7-2.2,0.9-3.3,0.4c0,0-1.8-0.8-3.7-1.3
	c-1.9-0.6-3.8-1.2-3.8-1.2s-1.9-0.4-3.9-0.8c-1.9-0.5-3.9-0.6-3.9-0.6c-1.2-0.1-2.2-0.9-2.7-1.9c0,0-1.2-2.8-2.7-5.3
	c-1.4-2.6-3.2-5.2-3.2-5.2c-0.7-1-2-1.7-3.5-1.5c0,0-2.7,0.3-5.4,0.6c-1.3,0.2-2.7,0.5-3.6,0.7c-1,0.2-1.7,0.3-1.7,0.3
	c-0.7,0.2-1.4,0.5-1.9,0.9s-0.9,1-1,1.5c0,0-0.9,3-1.5,5.9c-0.3,1.5-0.6,2.9-0.8,4c-0.2,1.1-0.3,1.9-0.3,1.9c-0.2,1.1-0.9,2.2-2,2.6
	c0,0-0.5,0.2-1.1,0.5c-0.7,0.3-1.6,0.7-2.5,1.2c-1.8,0.9-3.5,1.9-3.5,1.9s-1.7,1.1-3.3,2.2c-0.8,0.5-1.7,1.1-2.2,1.6
	c-0.6,0.5-1,0.8-1,0.8c-0.9,0.8-2.2,1-3.3,0.5c0,0-0.7-0.3-1.8-0.6c-1-0.4-2.4-0.8-3.9-1.2c-2.9-0.8-5.9-1.5-5.9-1.5
	c-0.6-0.1-1.2-0.1-1.9,0.2c-0.6,0.3-1.2,0.7-1.7,1.3c0,0-0.4,0.5-1.1,1.3c-0.6,0.8-1.5,1.8-2.3,2.9c-1.5,2.2-3.1,4.4-3.1,4.4
	c-0.9,1.2-0.9,2.8-0.3,3.8c0,0,1.5,2.7,3.1,5.2c1.5,2.5,3.4,4.9,3.4,4.9c0.7,0.9,0.9,2.2,0.4,3.3c0,0-0.8,1.8-1.3,3.7
	c-0.6,1.9-1.2,3.8-1.2,3.8s-0.4,1.9-0.8,3.9c-0.5,1.9-0.6,3.9-0.6,3.9c-0.1,1.2-0.9,2.2-1.9,2.7c0,0-2.8,1.2-5.4,2.7
	c-2.6,1.4-5.2,3.2-5.2,3.2c-1,0.7-1.7,2-1.5,3.5c0,0,0.3,2.7,0.6,5.4c0.2,1.3,0.5,2.6,0.7,3.6s0.3,1.6,0.3,1.6
	C880.2-40.4,880.5-39.8,880.9-39.3z M913.5-40.3c-0.3-0.7-0.6-1.5-1-2.3c-0.3-0.8-0.5-1.7-0.8-2.6c-0.1-0.5-0.3-0.9-0.4-1.4
	c-0.1-0.5-0.2-1-0.3-1.5c-0.2-1-0.4-2-0.6-3c-0.1-1-0.2-2-0.3-3l-0.1-0.7v-0.7c0-0.5,0-1,0-1.5c-0.1-1.9,0.2-3.7,0.3-5.2
	c0-0.8,0.2-1.5,0.3-2.1s0.2-1.1,0.3-1.6c0.2-0.9,0.3-1.4,0.3-1.4s0.2-0.5,0.4-1.3c0.1-0.4,0.3-1,0.5-1.5c0.2-0.6,0.4-1.3,0.7-2
	c0.6-1.4,1.2-3.1,2.2-4.7c0.2-0.4,0.5-0.8,0.7-1.3l0.3-0.7l0.4-0.6c0.6-0.8,1.2-1.7,1.7-2.5c0.6-0.8,1.3-1.6,1.9-2.3
	c0.3-0.4,0.6-0.8,1-1.1s0.7-0.7,1.1-1c0.7-0.7,1.3-1.4,2-1.9c0.7-0.6,1.3-1.1,1.9-1.6c0.3-0.2,0.6-0.5,0.9-0.7
	c0.3-0.2,0.6-0.4,0.8-0.5c0.5-0.3,1-0.6,1.4-0.9c0.7-0.5,1.2-0.8,1.2-0.8s0.5-0.2,1.3-0.7c0.4-0.2,0.9-0.5,1.4-0.8
	c0.3-0.2,0.6-0.3,0.9-0.5c0.3-0.1,0.7-0.3,1-0.4c0.7-0.3,1.5-0.6,2.3-1c0.8-0.3,1.7-0.5,2.6-0.8c0.5-0.1,0.9-0.3,1.4-0.4
	s1-0.2,1.5-0.3c1-0.2,2-0.4,3-0.6c1-0.1,2-0.2,3-0.3l0.7-0.1h0.7c0.5,0,1,0,1.5,0c1.9-0.1,3.7,0.2,5.2,0.3c0.8,0,1.5,0.2,2.1,0.3
	c0.6,0.1,1.2,0.2,1.6,0.3c0.9,0.2,1.4,0.3,1.4,0.3s0.5,0.2,1.3,0.4c0.4,0.1,1,0.3,1.6,0.5c0.6,0.2,1.3,0.3,2,0.7
	c1.4,0.6,3.1,1.2,4.7,2.2c0.4,0.2,0.8,0.5,1.3,0.7l0.7,0.3l0.6,0.4c0.8,0.6,1.7,1.1,2.5,1.7c0.8,0.6,1.6,1.3,2.3,1.9
	c0.4,0.3,0.8,0.6,1.1,1s0.7,0.7,1,1c0.7,0.7,1.4,1.3,1.9,2c0.6,0.7,1.1,1.3,1.6,1.9c0.2,0.3,0.5,0.6,0.7,0.8
	c0.2,0.3,0.4,0.6,0.5,0.8c0.3,0.5,0.6,1,0.9,1.3c0.5,0.7,0.8,1.2,0.8,1.2s0.2,0.5,0.6,1.2c0.2,0.4,0.5,0.9,0.8,1.4
	c0.2,0.3,0.3,0.6,0.5,0.9c0.1,0.3,0.3,0.7,0.4,1c0.3,0.7,0.6,1.5,1,2.3c0.3,0.8,0.5,1.7,0.8,2.6c0.1,0.5,0.3,0.9,0.4,1.4
	c0.1,0.5,0.2,1,0.3,1.5c0.2,1,0.4,2,0.6,3c0.1,1,0.2,2,0.3,3l0.1,0.7v0.7c0,0.5,0,1,0,1.5c0.1,1.9-0.2,3.7-0.3,5.2
	c0,0.8-0.2,1.5-0.3,2.1s-0.2,1.1-0.3,1.6c-0.2,0.9-0.3,1.4-0.3,1.4s-0.2,0.5-0.4,1.3c-0.1,0.4-0.3,1-0.5,1.5c-0.2,0.6-0.4,1.3-0.7,2
	c-0.6,1.4-1.2,3.1-2.2,4.7c-0.2,0.4-0.5,0.8-0.7,1.3l-0.3,0.7l-0.4,0.6c-0.6,0.8-1.2,1.7-1.7,2.5c-0.6,0.8-1.3,1.6-1.9,2.3
	c-0.3,0.4-0.6,0.8-1,1.1s-0.7,0.7-1.1,1c-0.7,0.7-1.3,1.4-2,1.9c-0.7,0.6-1.3,1.1-1.9,1.6c-0.3,0.2-0.6,0.5-0.9,0.7
	c-0.3,0.2-0.6,0.4-0.8,0.5c-0.5,0.3-1,0.6-1.4,0.9c-0.7,0.5-1.2,0.8-1.2,0.8s-0.5,0.2-1.3,0.7c-0.4,0.2-0.9,0.5-1.4,0.8
	c-0.3,0.2-0.6,0.3-0.9,0.5c-0.3,0.1-0.7,0.3-1,0.4c-0.7,0.3-1.5,0.6-2.3,1c-0.8,0.3-1.7,0.5-2.6,0.8c-0.5,0.1-0.9,0.3-1.4,0.4
	s-1,0.2-1.5,0.3c-1,0.2-2,0.4-3,0.6c-1,0.1-2,0.2-3,0.3l-0.7,0.1h-0.7c-0.5,0-1,0-1.5,0c-1.9,0.1-3.7-0.2-5.2-0.3
	c-0.8,0-1.5-0.2-2.1-0.3c-0.6-0.1-1.2-0.2-1.6-0.3c-0.9-0.2-1.4-0.3-1.4-0.3s-0.5-0.2-1.3-0.4c-0.4-0.1-1-0.3-1.6-0.5
	s-1.3-0.3-2-0.7c-1.4-0.6-3.1-1.2-4.7-2.2c-0.4-0.2-0.8-0.5-1.3-0.7l-0.7-0.3l-0.6-0.4c-0.8-0.6-1.7-1.1-2.5-1.7
	c-0.8-0.6-1.6-1.3-2.3-1.9c-0.4-0.3-0.8-0.6-1.1-1s-0.7-0.7-1-1c-0.7-0.7-1.4-1.3-1.9-2c-0.6-0.7-1.1-1.3-1.6-1.9
	c-0.2-0.3-0.5-0.6-0.7-0.8c-0.2-0.3-0.4-0.6-0.5-0.8c-0.3-0.5-0.6-1-0.9-1.3c-0.5-0.7-0.8-1.2-0.8-1.2s-0.2-0.5-0.6-1.2
	c-0.2-0.4-0.5-0.9-0.8-1.4c-0.2-0.3-0.3-0.6-0.5-0.9C913.7-39.6,913.6-40,913.5-40.3z"/>
<path id="XMLID_619_" class="st6" d="M796.8,2.5c0.3,0.3,0.6,0.6,1,0.7c0,0,1.9,0.6,3.8,1c0.9,0.2,1.9,0.4,2.5,0.5
	c0.7,0.1,1.2,0.2,1.2,0.2c0.7,0.1,1.4,0.6,1.7,1.3c0,0,0.1,0.3,0.3,0.7c0.2,0.4,0.5,1,0.8,1.6c0.6,1.1,1.2,2.2,1.2,2.2
	s0.7,1.1,1.4,2.1c0.3,0.5,0.7,1.1,1,1.4c0.3,0.4,0.5,0.6,0.5,0.6c0.5,0.6,0.6,1.4,0.3,2.1c0,0-0.2,0.4-0.4,1.1s-0.5,1.6-0.8,2.5
	c-0.5,1.8-0.9,3.8-0.9,3.8c-0.1,0.4,0,0.8,0.1,1.2c0.2,0.4,0.4,0.7,0.8,1c0,0,0.3,0.3,0.8,0.7c0.5,0.4,1.1,1,1.8,1.5
	c1.4,1,2.8,1.9,2.8,1.9c0.8,0.5,1.8,0.6,2.4,0.2c0,0,1.7-0.9,3.4-2c1.6-1,3.1-2.2,3.1-2.2c0.6-0.4,1.4-0.6,2.1-0.3
	c0,0,1.2,0.5,2.4,0.8c1.2,0.4,2.4,0.7,2.4,0.7s1.2,0.2,2.5,0.5c1.2,0.3,2.5,0.4,2.5,0.4c0.8,0.1,1.4,0.5,1.7,1.2
	c0,0,0.8,1.8,1.7,3.4c0.9,1.7,2,3.3,2,3.3c0.4,0.6,1.3,1.1,2.2,1c0,0,1.7-0.2,3.4-0.4c0.9-0.1,1.7-0.3,2.3-0.4s1.1-0.2,1.1-0.2
	c0.5-0.1,0.9-0.3,1.2-0.5c0.3-0.3,0.6-0.6,0.7-1c0,0,0.6-1.9,1-3.8c0.2-0.9,0.4-1.9,0.5-2.5c0.1-0.7,0.2-1.2,0.2-1.2
	c0.1-0.7,0.6-1.4,1.3-1.7c0,0,0.3-0.1,0.7-0.3c0.4-0.2,1-0.5,1.6-0.8c1.1-0.6,2.2-1.2,2.2-1.2s1.1-0.7,2.1-1.4
	c0.5-0.3,1.1-0.7,1.4-1c0.4-0.3,0.6-0.5,0.6-0.5c0.6-0.5,1.4-0.6,2.1-0.3c0,0,0.5,0.2,1.1,0.4c0.7,0.2,1.6,0.5,2.5,0.8
	c1.8,0.5,3.8,0.9,3.8,0.9c0.4,0.1,0.8,0,1.2-0.1c0.4-0.2,0.8-0.4,1.1-0.8c0,0,0.3-0.3,0.7-0.8s1-1.1,1.5-1.8c1-1.4,1.9-2.8,1.9-2.8
	c0.6-0.8,0.6-1.8,0.2-2.4c0,0-0.9-1.7-2-3.3c-1-1.6-2.2-3.1-2.2-3.1c-0.4-0.6-0.6-1.4-0.3-2.1c0,0,0.5-1.2,0.9-2.4
	c0.4-1.2,0.7-2.4,0.7-2.4s0.3-1.2,0.5-2.5c0.3-1.2,0.4-2.5,0.4-2.5c0.1-0.8,0.5-1.4,1.2-1.7c0,0,1.8-0.8,3.4-1.7
	c1.7-0.9,3.3-2,3.3-2c0.6-0.4,1.1-1.3,1-2.2c0,0-0.2-1.7-0.4-3.4c-0.1-0.8-0.3-1.7-0.4-2.3c-0.1-0.6-0.2-1-0.2-1
	c-0.1-0.5-0.3-0.9-0.5-1.2c-0.3-0.3-0.6-0.6-1-0.7c0,0-1.9-0.6-3.8-1c-0.9-0.2-1.9-0.4-2.5-0.5c-0.7-0.1-1.2-0.2-1.2-0.2
	c-0.7-0.1-1.4-0.6-1.7-1.3c0,0-0.1-0.3-0.3-0.7s-0.5-1-0.8-1.6c-0.6-1.1-1.2-2.2-1.2-2.2s-0.7-1.1-1.4-2.1c-0.3-0.5-0.7-1.1-1-1.4
	c-0.3-0.4-0.5-0.6-0.5-0.6c-0.5-0.6-0.6-1.4-0.3-2.1c0,0,0.2-0.4,0.4-1.1c0.2-0.7,0.5-1.6,0.8-2.5c0.5-1.8,0.9-3.8,0.9-3.8
	c0.1-0.4,0-0.8-0.1-1.2c-0.2-0.4-0.4-0.7-0.8-1c0,0-0.3-0.3-0.8-0.7s-1.1-1-1.8-1.5c-1.4-1-2.8-1.9-2.8-1.9
	c-0.8-0.5-1.8-0.6-2.4-0.2c0,0-1.7,0.9-3.4,2c-1.6,1-3.1,2.2-3.1,2.2c-0.6,0.4-1.4,0.6-2.1,0.3c0,0-1.2-0.5-2.4-0.8
	c-1.2-0.4-2.4-0.7-2.4-0.7s-1.2-0.2-2.5-0.5c-1.2-0.3-2.5-0.4-2.5-0.4c-0.8-0.1-1.4-0.5-1.7-1.2c0,0-0.8-1.8-1.7-3.4
	c-0.9-1.7-2-3.3-2-3.3c-0.4-0.6-1.3-1.1-2.2-1c0,0-1.7,0.2-3.4,0.4c-0.9,0.1-1.7,0.3-2.3,0.4c-0.6,0.1-1.1,0.2-1.1,0.2
	c-0.5,0.1-0.9,0.3-1.2,0.5c-0.3,0.3-0.6,0.6-0.7,1c0,0-0.6,1.9-1,3.8c-0.2,0.9-0.4,1.9-0.5,2.5c-0.1,0.7-0.2,1.2-0.2,1.2
	c-0.1,0.7-0.6,1.4-1.3,1.7c0,0-0.3,0.1-0.7,0.3s-1,0.5-1.6,0.8c-1.1,0.6-2.2,1.2-2.2,1.2s-1.1,0.7-2.1,1.4c-0.5,0.3-1.1,0.7-1.4,1
	c-0.4,0.3-0.6,0.5-0.6,0.5c-0.6,0.5-1.4,0.6-2.1,0.3c0,0-0.5-0.2-1.1-0.4c-0.7-0.2-1.6-0.5-2.5-0.8c-1.8-0.5-3.8-0.9-3.8-0.9
	c-0.4-0.1-0.8,0-1.2,0.1c-0.4,0.2-0.8,0.4-1.1,0.8c0,0-0.3,0.3-0.7,0.8s-1,1.1-1.5,1.8c-1,1.4-1.9,2.8-1.9,2.8
	c-0.6,0.8-0.6,1.8-0.2,2.4c0,0,0.9,1.7,2,3.3c1,1.6,2.2,3.1,2.2,3.1c0.4,0.6,0.6,1.4,0.3,2.1c0,0-0.5,1.2-0.9,2.4s-0.7,2.4-0.7,2.4
	s-0.3,1.2-0.5,2.5c-0.3,1.2-0.4,2.5-0.4,2.5c-0.1,0.8-0.5,1.4-1.2,1.7c0,0-1.8,0.8-3.4,1.7c-1.7,0.9-3.3,2-3.3,2
	c-0.6,0.4-1.1,1.3-1,2.2c0,0,0.2,1.7,0.4,3.4c0.1,0.8,0.3,1.7,0.4,2.3c0.1,0.6,0.2,1,0.2,1C796.3,1.8,796.5,2.2,796.8,2.5z
	 M817.5,1.9c-0.2-0.5-0.4-0.9-0.6-1.5c-0.2-0.5-0.3-1.1-0.5-1.7c-0.1-0.3-0.2-0.6-0.3-0.9s-0.1-0.6-0.2-0.9
	c-0.1-0.6-0.3-1.3-0.4-1.9c-0.1-0.6-0.1-1.3-0.2-1.9l-0.1-0.5v-0.5c0-0.3,0-0.6,0-0.9c-0.1-1.2,0.1-2.3,0.2-3.3
	c0-0.5,0.1-0.9,0.2-1.3c0.1-0.4,0.1-0.7,0.2-1c0.1-0.6,0.2-0.9,0.2-0.9s0.1-0.3,0.3-0.9c0.1-0.3,0.2-0.6,0.3-1s0.2-0.8,0.4-1.3
	c0.4-0.9,0.8-2,1.4-3c0.1-0.3,0.3-0.5,0.4-0.8l0.2-0.4l0.3-0.4c0.4-0.5,0.7-1.1,1.1-1.6c0.4-0.5,0.8-1,1.2-1.5
	c0.2-0.2,0.4-0.5,0.6-0.7c0.2-0.2,0.5-0.4,0.7-0.6c0.4-0.4,0.8-0.9,1.3-1.2c0.4-0.4,0.9-0.7,1.2-1c0.2-0.2,0.4-0.3,0.5-0.4
	c0.2-0.1,0.4-0.2,0.5-0.3c0.3-0.2,0.6-0.4,0.9-0.6c0.5-0.3,0.7-0.5,0.7-0.5s0.3-0.2,0.8-0.4c0.3-0.1,0.6-0.3,0.9-0.5
	c0.2-0.1,0.4-0.2,0.6-0.3c0.2-0.1,0.4-0.2,0.7-0.3c0.5-0.2,0.9-0.4,1.5-0.6c0.5-0.2,1.1-0.3,1.7-0.5c0.3-0.1,0.6-0.2,0.9-0.3
	c0.3-0.1,0.6-0.1,0.9-0.2c0.6-0.1,1.3-0.3,1.9-0.4c0.6-0.1,1.3-0.1,1.9-0.2l0.5-0.1h0.5c0.3,0,0.6,0,0.9,0c1.2-0.1,2.4,0.1,3.3,0.2
	c0.5,0,0.9,0.1,1.3,0.2c0.4,0.1,0.7,0.1,1,0.2c0.6,0.1,0.9,0.2,0.9,0.2s0.3,0.1,0.9,0.3c0.3,0.1,0.6,0.2,1,0.3s0.8,0.2,1.3,0.4
	c0.9,0.4,2,0.8,3,1.4c0.3,0.1,0.5,0.3,0.8,0.4l0.4,0.2l0.4,0.3c0.5,0.4,1.1,0.7,1.6,1.1c0.5,0.4,1,0.8,1.5,1.2
	c0.2,0.2,0.5,0.4,0.7,0.6c0.2,0.2,0.4,0.4,0.6,0.7c0.4,0.4,0.9,0.8,1.2,1.3c0.4,0.4,0.7,0.8,1,1.2c0.2,0.2,0.3,0.4,0.4,0.5
	c0.1,0.2,0.2,0.4,0.3,0.5c0.2,0.3,0.4,0.6,0.6,0.9c0.3,0.5,0.5,0.7,0.5,0.7s0.1,0.3,0.4,0.8c0.1,0.3,0.3,0.6,0.5,0.9
	c0.1,0.2,0.2,0.4,0.3,0.6s0.2,0.4,0.3,0.7c0.2,0.5,0.4,0.9,0.6,1.5c0.2,0.5,0.3,1.1,0.5,1.7c0.1,0.3,0.2,0.6,0.3,0.9
	s0.1,0.6,0.2,0.9c0.1,0.6,0.3,1.3,0.4,1.9c0.1,0.6,0.1,1.3,0.2,1.9l0.1,0.5v0.5c0,0.3,0,0.6,0,0.9c0.1,1.2-0.1,2.3-0.2,3.3
	c0,0.5-0.1,0.9-0.2,1.3c-0.1,0.4-0.1,0.7-0.2,1c-0.1,0.6-0.2,0.9-0.2,0.9s-0.1,0.3-0.3,0.9c-0.1,0.3-0.2,0.6-0.3,1s-0.2,0.8-0.4,1.3
	c-0.4,0.9-0.8,2-1.4,3c-0.1,0.3-0.3,0.5-0.4,0.8l-0.2,0.4l-0.3,0.4c-0.4,0.5-0.7,1.1-1.1,1.6c-0.4,0.5-0.8,1-1.2,1.5
	c-0.2,0.2-0.4,0.5-0.6,0.7c-0.2,0.2-0.5,0.4-0.7,0.6c-0.4,0.4-0.8,0.9-1.3,1.2c-0.4,0.4-0.9,0.7-1.2,1c-0.2,0.2-0.4,0.3-0.5,0.4
	c-0.2,0.1-0.4,0.2-0.5,0.3c-0.3,0.2-0.6,0.4-0.9,0.6c-0.5,0.3-0.7,0.5-0.7,0.5s-0.3,0.2-0.8,0.4c-0.3,0.1-0.6,0.3-0.9,0.5
	c-0.2,0.1-0.4,0.2-0.6,0.3c-0.2,0.1-0.4,0.2-0.7,0.3c-0.5,0.2-0.9,0.4-1.5,0.6c-0.5,0.2-1.1,0.3-1.7,0.5c-0.3,0.1-0.6,0.2-0.9,0.3
	c-0.3,0.1-0.6,0.1-0.9,0.2c-0.6,0.1-1.3,0.3-1.9,0.4c-0.6,0.1-1.3,0.1-1.9,0.2l-0.5,0.1h-0.5c-0.3,0-0.6,0-0.9,0
	c-1.2,0.1-2.4-0.1-3.3-0.2c-0.5,0-0.9-0.1-1.3-0.2c-0.4-0.1-0.7-0.1-1-0.2c-0.6-0.1-0.9-0.2-0.9-0.2s-0.3-0.1-0.9-0.3
	c-0.3-0.1-0.6-0.2-1-0.3c-0.4-0.1-0.8-0.2-1.3-0.4c-0.9-0.4-2-0.8-3-1.4c-0.3-0.1-0.5-0.3-0.8-0.4l-0.4-0.2l-0.4-0.3
	c-0.5-0.4-1.1-0.7-1.6-1.1s-1-0.8-1.5-1.2c-0.2-0.2-0.5-0.4-0.7-0.6s-0.4-0.4-0.6-0.7c-0.4-0.4-0.9-0.8-1.2-1.3
	c-0.4-0.4-0.7-0.8-1-1.2c-0.2-0.2-0.3-0.4-0.4-0.5c-0.1-0.2-0.2-0.4-0.3-0.5c-0.2-0.3-0.4-0.6-0.6-0.9c-0.3-0.5-0.5-0.7-0.5-0.7
	s-0.2-0.3-0.4-0.8c-0.1-0.3-0.3-0.6-0.5-0.9c-0.1-0.2-0.2-0.4-0.3-0.6C817.7,2.3,817.6,2.1,817.5,1.9z"/>
<rect id="XMLID_618_" x="540.2" y="41.2" class="st9" width="87" height="131"/>
<rect id="XMLID_617_" x="554.2" y="71.2" class="st10" width="56" height="3"/>
<rect id="XMLID_614_" x="554.2" y="89.2" class="st10" width="56" height="5"/>
<rect id="XMLID_612_" x="554.2" y="102.2" class="st10" width="56" height="10"/>
<polygon id="XMLID_610_" class="st10" points="554.9,124.2 611.7,124.2 611.7,124.2 "/>
<rect id="XMLID_608_" x="554.2" y="140.2" class="st10" width="56" height="5"/>
<path id="XMLID_606_" class="st5" d="M563.2,50.5c0,1.5-1.2,2.7-2.7,2.7h-1.6c-1.5,0-2.7-1.2-2.7-2.7V35.9c0-1.5,1.2-2.7,2.7-2.7
	h1.6c1.5,0,2.7,1.2,2.7,2.7V50.5z"/>
<path id="XMLID_605_" class="st5" d="M588.2,50.5c0,1.5-1.2,2.7-2.7,2.7h-1.6c-1.5,0-2.7-1.2-2.7-2.7V35.9c0-1.5,1.2-2.7,2.7-2.7
	h1.6c1.5,0,2.7,1.2,2.7,2.7V50.5z"/>
<path id="XMLID_604_" class="st5" d="M603.2,50.5c0,1.5-1.2,2.7-2.7,2.7h-1.6c-1.5,0-2.7-1.2-2.7-2.7V35.9c0-1.5,1.2-2.7,2.7-2.7
	h1.6c1.5,0,2.7,1.2,2.7,2.7V50.5z"/>
<path id="XMLID_603_" class="st5" d="M613.2,50.5c0,1.5-1.2,2.7-2.7,2.7h-1.6c-1.5,0-2.7-1.2-2.7-2.7V35.9c0-1.5,1.2-2.7,2.7-2.7
	h1.6c1.5,0,2.7,1.2,2.7,2.7V50.5z"/>
<path id="XMLID_599_" class="st5" d="M576.2,50.5c0,1.5-1.2,2.7-2.7,2.7h-1.6c-1.5,0-2.7-1.2-2.7-2.7V35.9c0-1.5,1.2-2.7,2.7-2.7
	h1.6c1.5,0,2.7,1.2,2.7,2.7V50.5z"/>
<polygon id="XMLID_594_" class="st8" points="1314,280.9 1326.5,300.2 1185.1,388.2 1172.6,368.9 "/>
<polygon id="XMLID_593_" class="st0" points="1321.7,292.8 1326.5,300.2 1185.1,388.2 1180.3,380.8 "/>
<line id="XMLID_592_" class="st11" x1="1302.3" y1="291.8" x2="1305.4" y2="296.7"/>
<line id="XMLID_591_" class="st11" x1="1294.8" y1="296.5" x2="1298" y2="301.4"/>
<line id="XMLID_590_" class="st11" x1="1287.4" y1="301.2" x2="1290.6" y2="306.1"/>
<line id="XMLID_589_" class="st11" x1="1280" y1="305.9" x2="1283.2" y2="310.8"/>
<line id="XMLID_588_" class="st11" x1="1272.6" y1="310.6" x2="1275.8" y2="315.5"/>
<line id="XMLID_587_" class="st11" x1="1265.2" y1="315.3" x2="1268.4" y2="320.2"/>
<line id="XMLID_586_" class="st11" x1="1257.8" y1="320" x2="1261" y2="324.9"/>
<line id="XMLID_585_" class="st11" x1="1250.4" y1="324.7" x2="1253.6" y2="329.6"/>
<line id="XMLID_584_" class="st11" x1="1243" y1="329.4" x2="1246.2" y2="334.3"/>
<line id="XMLID_583_" class="st11" x1="1235.6" y1="334.1" x2="1238.8" y2="339"/>
<line id="XMLID_582_" class="st11" x1="1228.2" y1="338.8" x2="1231.4" y2="343.7"/>
<line id="XMLID_581_" class="st11" x1="1220.8" y1="343.5" x2="1224" y2="348.4"/>
<line id="XMLID_580_" class="st11" x1="1213.4" y1="348.2" x2="1216.6" y2="353.1"/>
<line id="XMLID_579_" class="st11" x1="1206" y1="352.9" x2="1209.1" y2="357.8"/>
<line id="XMLID_578_" class="st11" x1="1198.6" y1="357.6" x2="1201.7" y2="362.5"/>
<line id="XMLID_577_" class="st11" x1="1191.2" y1="362.3" x2="1194.3" y2="367.2"/>
<circle id="XMLID_575_" class="st12" cx="524.5" cy="352" r="99.3"/>
<circle id="XMLID_574_" class="st13" cx="524.5" cy="352" r="78.9"/>
<circle id="XMLID_573_" class="st14" cx="525.4" cy="351.1" r="48.3"/>
<line id="XMLID_572_" class="st15" x1="561.5" y1="383.3" x2="579.7" y2="399.5"/>
<path id="XMLID_571_" class="st16" d="M489.4,352.8c0.7-2.2,3-3.9,4.5-5.6c10-10.6,26.9-18,40.9-11.4c3.8,1.8,7.7,4.4,10.8,7.2
	c2.1,2,9.5,12,13,8.2c2.9-3.1,0.5-9.4-0.8-12.7c-2.9-7.6-7-14.4-14.7-17.9c-3.4-1.5-7.5-2.6-11.2-2.9c-13.1-1.3-26.6,0.7-34.4,12.3
	c-1.9,2.8-3.4,5.9-4.5,9.1C491.5,343.6,490.9,348.4,489.4,352.8z"/>
<path id="XMLID_570_" class="st16" d="M525.4,323.2c0,0,10.5-7,11.6,0C537.5,326.6,520,329.6,525.4,323.2z"/>
<path id="XMLID_569_" class="st16" d="M520.2,320.7c0,0,5.6-3.7,6.2,0C526.6,322.6,517.3,324.2,520.2,320.7z"/>
<path id="XMLID_568_" class="st16" d="M538.9,325.9c0,0,4.3-2.8,4.7,0C543.8,327.3,536.6,328.6,538.9,325.9z"/>
<path id="XMLID_567_" class="st16" d="M533.7,328.5c0,0,4.3-2.8,4.7,0C538.6,329.9,531.5,331.1,533.7,328.5z"/>
<path id="XMLID_566_" class="st16" d="M541.4,331.1c0,0,4.3-2.8,4.7,0C546.4,332.5,539.2,333.7,541.4,331.1z"/>
<g id="XMLID_562_">
	<circle id="XMLID_8_" class="st17" cx="871.7" cy="306.4" r="223.7"/>
</g>
<path id="XMLID_561_" class="st4" d="M1269.2,539.6c0,1.4-1.2,2.6-2.6,2.6h-112.8c-1.4,0-2.6-1.2-2.6-2.6v-59.8
	c0-1.4,1.2-2.6,2.6-2.6h112.8c1.4,0,2.6,1.2,2.6,2.6V539.6z"/>
<rect id="XMLID_560_" x="1151.2" y="485.2" class="st18" width="115" height="7"/>
<circle id="XMLID_559_" class="st0" cx="1252.9" cy="522.4" r="9.6"/>
<circle id="XMLID_556_" class="st8" cx="1240.7" cy="522.4" r="9.6"/>
<rect id="XMLID_555_" x="1156.2" y="502.2" class="st13" width="47" height="4"/>
<rect id="XMLID_554_" x="1203.2" y="502.2" class="st13" width="21" height="4"/>
<polygon id="XMLID_553_" class="st13" points="1161.2,519.2 1211.7,519.2 1211.7,519.2 "/>
<polygon id="XMLID_552_" class="st13" points="1161.2,522.2 1211.7,522.2 1211.7,522.2 "/>
<path id="XMLID_550_" class="st8" d="M1229.2,175.5c0,1.5-1.2,2.7-2.7,2.7h-93.6c-1.5,0-2.7-1.2-2.7-2.7V81.9c0-1.5,1.2-2.7,2.7-2.7
	h93.6c1.5,0,2.7,1.2,2.7,2.7V175.5z"/>
<path id="XMLID_549_" class="st4" d="M1223.2,155.5c0,1.5-1.2,2.7-2.7,2.7h-79.6c-1.5,0-2.7-1.2-2.7-2.7V89.9c0-1.5,1.2-2.7,2.7-2.7
	h79.6c1.5,0,2.7,1.2,2.7,2.7V155.5z"/>
<path id="XMLID_548_" class="st4" d="M1230.6,80.6c0,1.2-0.8,2.2-1.8,2.2h-94.6c-1,0-1.8-1-1.8-2.2V68.2c0-1.2,0.8-2.2,1.8-2.2h94.6
	c1,0,1.8,1,1.8,2.2V80.6z"/>
<circle id="XMLID_547_" class="st1" cx="1169" cy="75.8" r="3.2"/>
<circle id="XMLID_546_" class="st1" cx="1191.8" cy="75.8" r="3.2"/>
<rect id="XMLID_504_" x="1143.2" y="98.2" class="st1" width="19" height="16"/>
<rect id="XMLID_503_" x="1165.2" y="98.2" class="st1" width="20" height="16"/>
<rect id="XMLID_502_" x="1165.2" y="116.2" class="st1" width="20" height="13"/>
<rect id="XMLID_501_" x="1192.2" y="98.2" class="st1" width="18" height="16"/>
<rect id="XMLID_500_" x="1192.2" y="116.2" class="st1" width="18" height="13"/>
<rect id="XMLID_499_" x="1143.2" y="116.2" class="st1" width="19" height="13"/>
<rect id="XMLID_498_" x="1165.2" y="129.2" class="st1" width="20" height="18"/>
<rect id="XMLID_497_" x="1143.2" y="129.2" class="st1" width="19" height="18"/>
<path id="XMLID_493_" class="st19" d="M1002.5,524.1c0,8.6-7.1,16.1-15,16.1h-239c-7.9,0-14.9-7.5-14.9-16.1v-440
	c0-8.6,7-13.8,14.9-13.8h239.1c7.9,0,15,5.3,15,13.8L1002.5,524.1L1002.5,524.1z"/>
<path id="XMLID_490_" class="st20" d="M911.5,101.1c0,2.2-1.8,4.1-4.1,4.1h-78.9c-2.2,0-4.1-1.8-4.1-4.1v-4.9c0-2.2,1.8-4.1,4.1-4.1
	h78.9c2.2,0,4.1,1.8,4.1,4.1V101.1z"/>
<path id="XMLID_405_" class="st20" d="M887.2,526.4h-38.3c-5,0-9-4-9-9l0,0c0-5,4-9,9-9h38.3c5,0,9,4,9,9l0,0
	C896.2,522.4,892.2,526.4,887.2,526.4z"/>
<rect id="XMLID_403_" x="757.2" y="116.2" class="st21" width="220" height="381"/>
<rect id="XMLID_395_" x="757.5" y="116.2" class="st8" width="220" height="37.7"/>
<rect id="XMLID_394_" x="757.5" y="153.9" class="st0" width="220" height="87"/>
<rect id="XMLID_393_" x="770.2" y="308.3" class="st4" width="194.7" height="123.9"/>
<rect id="XMLID_388_" x="821.4" y="321.5" class="st6" width="75.7" height="18.4"/>
<rect id="XMLID_383_" x="780.5" y="365.9" class="st21" width="174.5" height="51.9"/>
<rect id="XMLID_377_" x="821.4" y="343.9" class="st8" width="42" height="11"/>
<circle id="XMLID_324_" class="st1" cx="798.5" cy="339.5" r="18"/>
<circle id="XMLID_321_" class="st1" cx="863.5" cy="240.5" r="53.8"/>
<path id="XMLID_311_" class="st1" d="M944.7,484.5H790.3c-11.1,0-20.1-9-20.1-20.1l0,0c0-11.1,9-20.1,20.1-20.1h154.4
	c11.1,0,20.1,9,20.1,20.1l0,0C964.9,475.5,955.9,484.5,944.7,484.5z"/>
<circle id="XMLID_309_" class="st22" cx="863.4" cy="226.7" r="14.1"/>
<path id="XMLID_305_" class="st22" d="M842.2,261.7c0-11.7,9.5-21.2,21.2-21.2s21.2,9.5,21.2,21.2"/>
<rect id="XMLID_174_" x="197" y="-86.8" class="st23" width="1354.6" height="733.8"/>
</svg>
