<?xml version="1.0" encoding="utf-8"?>
<!-- Generator: Adobe Illustrator 19.0.0, SVG Export Plug-In . SVG Version: 6.00 Build 0)  -->
<svg version="1.1" id="Layer_1" xmlns="http://www.w3.org/2000/svg" xmlns:xlink="http://www.w3.org/1999/xlink" x="0px" y="0px"
	 viewBox="0 0 71.9 69.4" style="enable-background:new 0 0 71.9 69.4;" xml:space="preserve">
<style type="text/css">
	.st0{fill:#87DC00;}
	.st1{fill:#259200;}
	.st2{fill:#FFFFFF;}
</style>
<g id="XMLID_1390_">
	<path id="XMLID_2355_" class="st0" d="M59.5,23.5v26.2c0,3.4-2.7,6.1-6.1,6.1H27.3L14.9,69.4V55.8H6.1C2.7,55.8,0,53,0,49.7V23.5
		c0-3.4,2.7-6.1,6.1-6.1h47.3C56.7,17.3,59.5,20.1,59.5,23.5L59.5,23.5z M59.5,23.5"/>
	<path id="XMLID_2352_" class="st1" d="M65.8,0H18.5c-3.4,0-6.1,2.7-6.1,6.1v11.2h41c3.4,0,6.1,2.7,6.1,6.1v15h6.3
		c3.4,0,6.1-2.7,6.1-6.1V6.1C71.9,2.7,69.1,0,65.8,0L65.8,0z M65.8,0"/>
	<path id="XMLID_2325_" class="st2" d="M47.1,38.4H13.6c-0.7,0-1.2-0.6-1.2-1.2c0-0.7,0.6-1.2,1.2-1.2h33.4c0.7,0,1.2,0.6,1.2,1.2
		C48.3,37.9,47.8,38.4,47.1,38.4L47.1,38.4z M47.1,38.4"/>
	<path id="XMLID_2322_" class="st2" d="M47.1,45.9H13.6c-0.7,0-1.2-0.6-1.2-1.2c0-0.7,0.6-1.2,1.2-1.2h33.4c0.7,0,1.2,0.6,1.2,1.2
		C48.3,45.3,47.8,45.9,47.1,45.9L47.1,45.9z M47.1,45.9"/>
	<path id="XMLID_67_" class="st2" d="M47.1,31H13.6c-0.7,0-1.2-0.6-1.2-1.2c0-0.7,0.6-1.2,1.2-1.2h33.4c0.7,0,1.2,0.6,1.2,1.2
		C48.3,30.4,47.8,31,47.1,31L47.1,31z M47.1,31"/>
</g>
</svg>
