<?xml version="1.0" encoding="utf-8"?>
<!-- Generator: Adobe Illustrator 19.0.0, SVG Export Plug-In . SVG Version: 6.00 Build 0)  -->
<svg version="1.1" id="Layer_1" xmlns="http://www.w3.org/2000/svg" xmlns:xlink="http://www.w3.org/1999/xlink" x="0px" y="0px"
	 viewBox="0 0 80.7 77.7" style="enable-background:new 0 0 80.7 77.7;" xml:space="preserve">
<style type="text/css">
	.st0{fill:#2CB900;}
	.st1{fill:#A3F700;}
	.st2{fill:#259200;}
</style>
<g id="XMLID_2380_">
	<rect id="XMLID_2376_" x="3" y="40.4" class="st0" width="16.4" height="34.4"/>
	<rect id="XMLID_2374_" x="3" y="3" class="st1" width="35.9" height="34.4"/>
	<rect id="XMLID_2362_" x="22.4" y="40.4" class="st1" width="16.4" height="34.4"/>
	<rect id="XMLID_2328_" x="61.3" y="3" class="st1" width="16.4" height="71.8"/>
	<rect id="XMLID_2047_" x="41.9" y="3" class="st0" width="16.4" height="71.8"/>
	<path id="XMLID_2385_" class="st2" d="M79.2,0H1.5C0.7,0,0,0.7,0,1.5v74.8c0,0.8,0.7,1.5,1.5,1.5h77.7c0.8,0,1.5-0.7,1.5-1.5V1.5
		C80.7,0.7,80.1,0,79.2,0L79.2,0z M3,3h35.9v34.4H3V3z M3,40.4h16.4v34.4H3V40.4z M22.4,40.4h16.4v34.4H22.4V40.4z M41.9,38.9V3
		h16.4v71.8H41.9V38.9z M77.7,74.8H61.3V3h16.4V74.8z M77.7,74.8"/>
</g>
</svg>
