<?xml version="1.0" encoding="utf-8"?>
<!-- Generator: Adobe Illustrator 19.0.0, SVG Export Plug-In . SVG Version: 6.00 Build 0)  -->
<svg version="1.1" id="Layer_1" xmlns="http://www.w3.org/2000/svg" xmlns:xlink="http://www.w3.org/1999/xlink" x="0px" y="0px"
	 viewBox="0 0 77.3 83.4" style="enable-background:new 0 0 77.3 83.4;" xml:space="preserve">
<style type="text/css">
	.st0{fill:#424A60;}
	.st1{clip-path:url(#XMLID_64_);fill:none;stroke:#E6EBEC;stroke-width:1.6;stroke-miterlimit:10;}
	.st2{fill:#FFF100;}
	.st3{fill:#E6EBEC;}
	.st4{fill:#2CB900;}
	.st5{fill:#A3F700;}
</style>
<g id="XMLID_2401_">
	<rect id="XMLID_2396_" x="1.6" y="2.3" class="st0" width="74.5" height="77.6"/>
	<g id="XMLID_2591_">
		<defs>
			<rect id="XMLID_2387_" width="77.3" height="83.4"/>
		</defs>
		<clipPath id="XMLID_64_">
			<use xlink:href="#XMLID_2387_"  style="overflow:visible;"/>
		</clipPath>
		<rect id="XMLID_2394_" x="1.6" y="2.3" class="st1" width="74.5" height="77.6"/>
	</g>
	<path id="XMLID_2587_" class="st2" d="M27.3,21.8c0,3.9-3.2,7.1-7.1,7.1c-3.9,0-7.1-3.2-7.1-7.1c0-3.9,3.2-7.1,7.1-7.1
		C24.1,14.7,27.3,17.9,27.3,21.8L27.3,21.8z M27.3,21.8"/>
	<rect id="XMLID_2121_" x="1.6" y="64.4" class="st3" width="74.5" height="15.5"/>
	<path id="XMLID_2583_" class="st4" d="M75.1,50.6l-1.5-1.7L55,31.8l-27,24l11.9,8.6h13.6h21.7V50.6z M75.1,50.6"/>
	<path id="XMLID_2406_" class="st5" d="M46.6,58.2l-17-17L3.1,64.4h49.7L46.6,58.2z M46.6,58.2"/>
</g>
</svg>
