<?xml version="1.0" encoding="utf-8"?>
<!-- Generator: Adobe Illustrator 19.0.0, SVG Export Plug-In . SVG Version: 6.00 Build 0)  -->
<svg version="1.1" id="Layer_1" xmlns="http://www.w3.org/2000/svg" xmlns:xlink="http://www.w3.org/1999/xlink" x="0px" y="0px"
	 viewBox="0 0 59.3 87.7" style="enable-background:new 0 0 59.3 87.7;" xml:space="preserve">
<style type="text/css">
	.st0{fill:#2CA500;}
	.st1{fill:#2CB900;}
	.st2{fill:#256800;}
	.st3{fill:#255E00;}
</style>
<g id="XMLID_1_">
	<path id="XMLID_308_" class="st0" d="M59.3,29.7c0,16.4-29.7,58-29.7,58S0,46.1,0,29.7S13.3,0,29.7,0S59.3,13.3,59.3,29.7z"/>
	<path id="XMLID_908_" class="st1" d="M59.3,29.7c0,16.4-29.7,58-29.7,58s-0.1-0.2-0.3-0.5V0c0.1,0,0.2,0,0.3,0
		C46.1,0,59.3,13.3,59.3,29.7z"/>
	<circle id="XMLID_625_" class="st2" cx="29.7" cy="29.3" r="14.7"/>
	<path id="XMLID_904_" class="st3" d="M44.3,29.3c0,0.9-0.1,1.7-0.2,2.5c-1.2-6.9-7.2-12.2-14.4-12.2s-13.3,5.3-14.4,12.2
		C15.1,31,15,30.2,15,29.3c0-8.1,6.6-14.7,14.7-14.7C37.8,14.7,44.3,21.2,44.3,29.3z"/>
</g>
</svg>
