<?xml version="1.0" encoding="utf-8"?>
<!-- Generator: Adobe Illustrator 19.0.0, SVG Export Plug-In . SVG Version: 6.00 Build 0)  -->
<svg version="1.1" id="Layer_1" xmlns="http://www.w3.org/2000/svg" xmlns:xlink="http://www.w3.org/1999/xlink" x="0px" y="0px"
	 viewBox="0 0 72.5 84.6" style="enable-background:new 0 0 72.5 84.6;" xml:space="preserve">
<style type="text/css">
	.st0{fill:#A3F700;}
	.st1{fill:#F5C897;}
</style>
<g id="XMLID_951_">
	<circle id="XMLID_940_" class="st0" cx="14.4" cy="58.4" r="14.4"/>
	<circle id="XMLID_955_" class="st0" cx="29.4" cy="14.4" r="14.4"/>
	<g id="XMLID_939_">
		<path id="XMLID_2582_" class="st1" d="M48.6,47.2c0.6,0,1.1-0.6,1.1-1.3V39c0-3,2.3-5.5,5.1-5.5c2.8,0,5.1,2.5,5.1,5.5v1v5.9
			c0,0.7,0.5,1.3,1.1,1.3c0.3,0,0.6-0.1,0.8-0.4c0,0,0.1-0.1,0.1-0.2c0.1-0.2,0.2-0.5,0.2-0.7V40c0-2.5,2.4-4.5,5.1-4.5
			c2.8,0,5.1,3,5.1,6.6v19.2v1.5v12.7c0,5.1-3.5,9.2-7.8,9.2H28.9L18.6,72.5l-5.9-7c-1.5-1.8-2.5-4-2.9-6.1c-0.3-2,0-3.6,1-4.7
			c2-2.4,5.3-2.3,7.4,0.2l4.6,5.4c0.4,0.5,1.1,0.5,1.6,0c0.2-0.3,0.3-0.6,0.3-0.9V46.7V29.9V16.4c0-3.6,2.3-6.6,5.1-6.6
			c2.8,0,5.1,3,5.1,6.6v13.1c-0.1,0.2-0.1,0.5,0,0.7v7.6v6.5v1.5c0,0.7,0.5,1.3,1.1,1.3c0.6,0,1.1-0.6,1.1-1.3v-1.5v-6.5
			c0-3.6,2.3-6.6,5.1-6.6c2.8,0,5.1,2.9,5.1,6.6V39v6.8C47.5,46.6,48,47.2,48.6,47.2z"/>
	</g>
</g>
</svg>
