<?xml version="1.0" encoding="utf-8"?>
<!-- Generator: Adobe Illustrator 19.0.0, SVG Export Plug-In . SVG Version: 6.00 Build 0)  -->
<svg version="1.1" id="Layer_1" xmlns="http://www.w3.org/2000/svg" xmlns:xlink="http://www.w3.org/1999/xlink" x="0px" y="0px"
	 viewBox="0 0 85.1 77.8" style="enable-background:new 0 0 85.1 77.8;" xml:space="preserve">
<style type="text/css">
	.st0{fill:#F4D00B;}
	.st1{fill:#FAB700;}
	.st2{fill:#F0C30F;}
</style>
<g id="XMLID_2609_">
	<path id="XMLID_2645_" class="st0" d="M53.6,65.8c0,6.6-5.4,12-12,12s-12-5.4-12-12c0-6.6,5.4-12,12-12S53.6,59.2,53.6,65.8
		L53.6,65.8z M53.6,65.8"/>
	<path id="XMLID_2642_" class="st1" d="M41.6,53.8C41.6,53.8,41.6,53.8,41.6,53.8l0,24c0,0,0,0,0,0c6.6,0,12-5.4,12-12
		C53.6,59.2,48.2,53.8,41.6,53.8L41.6,53.8z M41.6,53.8"/>
	<path id="XMLID_2639_" class="st1" d="M53.4,67.7c0.1-0.6,0.2-1.3,0.2-2c0-6.6-5.4-12-12-12c-6.6,0-12,5.4-12,12
		c0,0.7,0.1,1.3,0.2,2H53.4z M53.4,67.7"/>
	<path id="XMLID_2636_" class="st0" d="M48.3,15.5c-1.7,1.9-4.2,3.1-6.9,3.1c-2.6,0-5-1.1-6.6-2.8C16.5,20.2,9,40.1,8,56.5h68.7
		C75.5,39.7,66.9,19.1,48.3,15.5L48.3,15.5z M48.3,15.5"/>
	<path id="XMLID_2633_" class="st0" d="M81.2,56.5h-4.5l-46.7-1l-22,1h-4c-2.2,0-3.9,1.8-3.9,3.9c0,2.2,1.8,3.9,3.9,3.9h77.3
		c2.2,0,3.9-1.8,3.9-3.9C85.1,58.3,83.4,56.5,81.2,56.5L81.2,56.5z M81.2,56.5"/>
	<path id="XMLID_2629_" class="st0" d="M48.3,15.5c1.5-1.6,2.4-3.8,2.4-6.2c0-5.1-4.2-9.3-9.3-9.3C36.2,0,32,4.2,32,9.3
		c0,2.5,1,4.8,2.7,6.5c1.7,1.7,3,3,5.6,3C43,18.8,46.6,17.4,48.3,15.5L48.3,15.5z M36.2,9.3c0-2.8,2.3-5.1,5.1-5.1
		c2.8,0,5.1,2.3,5.1,5.1c0,2.8-2.3,5.1-5.1,5.1C38.5,14.4,36.2,12.1,36.2,9.3L36.2,9.3z M36.2,9.3"/>
	<path id="XMLID_2626_" class="st1" d="M41.7,56.5h35c-1.1-16.8-9.8-37.4-28.4-41c-1.6,1.8-4,3-6.6,3.1V56.5z M41.7,56.5"/>
	<path id="XMLID_2619_" class="st2" d="M81.2,56.5H41.7v7.8h39.5c2.2,0,3.9-1.8,3.9-3.9C85.1,58.3,83.4,56.5,81.2,56.5L81.2,56.5z
		 M81.2,56.5"/>
	<path id="XMLID_2612_" class="st1" d="M41.7,0v4.2c2.7,0.2,4.8,2.4,4.8,5.1c0,2.7-2.1,4.9-4.8,5.1v4.2c2.6-0.1,4.9-1.3,6.6-3.1
		c1.5-1.6,2.4-3.8,2.4-6.2C50.6,4.3,46.7,0.2,41.7,0L41.7,0z M41.7,0"/>
</g>
</svg>
