<?xml version="1.0" encoding="utf-8"?>
<!-- Generator: Adobe Illustrator 19.0.0, SVG Export Plug-In . SVG Version: 6.00 Build 0)  -->
<svg version="1.1" id="Layer_1" xmlns="http://www.w3.org/2000/svg" xmlns:xlink="http://www.w3.org/1999/xlink" x="0px" y="0px"
	 viewBox="0 0 523.9 947.7" style="enable-background:new 0 0 523.9 947.7;" xml:space="preserve">
<style type="text/css">
	.st0{fill:#84DA00;}
	.st1{fill:#E1E6E7;}
	.st2{fill:#C2CCD0;}
	.st3{fill:#7380B9;}
	.st4{fill:#F5C897;}
	.st5{fill:#F1AF63;}
	.st6{fill:#424A60;}
	.st7{opacity:0.93;fill:#354344;}
	.st8{fill:#DEE4E7;}
	.st9{fill:#CDD7DD;}
	.st10{fill:#FFFFFF;}
	.st11{fill:#42BF8D;}
	.st12{fill:#FF6661;}
	.st13{fill:#F7C86B;}
	.st14{fill:#00AFC3;}
	.st15{fill:#2CA500;}
	.st16{fill:#B2A7A7;}
	.st17{fill:#BBB1B1;}
	.st18{fill:#EAE7E7;}
	.st19{fill:#6F3632;}
	.st20{fill:#EB6161;}
	.st21{fill:#6DC22A;}
	.st22{fill:#2C7C00;}
</style>
<g id="XMLID_28_">
	<path id="XMLID_372_" class="st0" d="M402.3,84.2c-1.2,3.6,0.7,7.6,4.3,8.8l2.8,1c0.2,0.1,0.2,0.2,0.2,0.4l-5.3,15.5
		c-1.4,3.9,0.7,8.2,4.7,9.6l0,0c3.8,1.3,7.9-0.7,9.2-4.5l5.4-15.8c0.1-0.2,0.2-0.2,0.4-0.2l15.5,5.3c0.2,0.1,0.2,0.2,0.2,0.4
		l-5.4,15.8c-1.3,3.8,0.7,7.9,4.5,9.2l0.3,0.1c3.8,1.3,7.9-0.7,9.2-4.5l5.4-15.8c0.1-0.2,0.2-0.2,0.4-0.2l3.1,1.1
		c3.4,1.2,7.2-0.6,8.4-4.1l13.9-40.4c1.2-3.6-0.7-7.5-4.3-8.8l-49.3-16.9c-4.1-1.4-8.6,0.8-10.1,4.9L402.3,84.2z M402.2,84.5"/>
	<path id="XMLID_192_" class="st0" d="M484.5,53.6c0.3-0.6,0.5-1.2,0.7-1.8c3.5-10.2,0.1-21.3-7.9-29.3l8.2-6.4
		c0.5-0.4,0.6-1.2,0.2-1.7c-0.4-0.5-1.1-0.6-1.7-0.2l-8.5,6.6c-3.6-3.1-7.9-5.7-12.7-7.3c-4.9-1.7-9.9-2.3-14.6-2.1l-2.6-10.4
		c-0.1-0.7-0.8-1.1-1.5-0.9c-0.6,0.2-1,0.8-0.9,1.4l2.5,10.1c-11.2,1.4-20.8,8.1-24.3,18.2c-0.2,0.6-0.4,1.3-0.5,1.9L484.5,53.6z"/>
</g>
<g id="XMLID_885_">
	<polygon id="XMLID_10_" class="st1" points="279.1,668.7 0,947.7 0,608 109.2,498.8 	"/>
	<g id="XMLID_887_">
		
			<rect id="XMLID_2040_" x="4.5" y="564.8" transform="matrix(-0.7071 -0.7071 0.7071 -0.7071 -193.201 1181.1564)" class="st2" width="287" height="131.5"/>
		<path id="XMLID_2021_" class="st1" d="M135.4,710.9L0.1,575.6l93-93l79.7,79.7c30.7,30.7,30.8,80.5,0,111.2L135.4,710.9z
			 M135.4,710.9"/>
		<path id="XMLID_2012_" class="st3" d="M148,630.6c-11.7,11.7-30.6,11.7-42.3,0c-11.6-11.6-11.7-30.6,0-42.3
			c11.7-11.7,30.6-11.6,42.3,0C159.7,600,159.7,618.9,148,630.6L148,630.6z M148,630.6"/>
		<path id="XMLID_1847_" class="st4" d="M466.9,242.5c15,5.8,32.7,2.7,44.8-9.4c16.4-16.4,16.4-42.9,0-59.2
			c-12.1-12.1-29.8-15.2-44.8-9.4L466.9,242.5z M466.9,242.5"/>
		<path id="XMLID_1776_" class="st4" d="M466.9,327.1c15,5.8,32.7,2.7,44.8-9.4c16.4-16.4,16.4-42.9,0-59.2
			c-12.1-12.1-29.8-15.2-44.8-9.4L466.9,327.1z M466.9,327.1"/>
		<path id="XMLID_1715_" class="st4" d="M466.9,411.6c15,5.8,32.7,2.7,44.8-9.4c16.4-16.4,16.4-42.9,0-59.2
			c-12.1-12.1-29.8-15.2-44.8-9.4L466.9,411.6z M466.9,411.6"/>
		<path id="XMLID_1306_" class="st4" d="M466.9,496.2c15,5.8,32.7,2.7,44.8-9.4c16.4-16.4,16.4-42.9,0-59.2
			c-12.1-12.1-29.8-15.2-44.8-9.4L466.9,496.2z M466.9,496.2"/>
		<path id="XMLID_1287_" class="st5" d="M419.2,547.7l-188,0c-15.2,0-27.5-12.3-27.5-27.5l0.1-163.7l-55.7-55.7
			c-7.3-2.5-12-24.4-11.3-14.9l0.4,182.5c0,1.2,0.3,2.4,0.4,3.7L110,499.5l169.1,169.1l38.2-38.2c26.9,3.8,55.3-4.6,76-25.3
			C409.3,589.2,417.9,568.6,419.2,547.7L419.2,547.7z M419.2,547.7"/>
		<g id="XMLID_958_">
			<path id="XMLID_1238_" class="st6" d="M466.9,85.1l-263.1,0l0,153.7c1.2,0.9,2.4,1.7,3.5,2.8l84.6,84.6
				c16.3,16.3,16.3,42.9,0,59.2c-16.3,16.3-42.9,16.2-59.2,0l-28.9-28.9v142.4h263.1L466.9,85.1z M466.9,110.4"/>
			<path id="XMLID_966_" class="st7" d="M466.9,85.1l0-12.3c0-15.2-12.3-27.5-27.5-27.5H231.2c-15.2,0-27.5,12.3-27.5,27.5l0,12.3
				L466.9,85.1z M466.9,110.4"/>
			<path id="XMLID_962_" class="st7" d="M466.9,520.2l0-21.4H203.8l0,21.4c0,15.2,12.3,27.5,27.5,27.5l208.2,0
				C454.6,547.7,466.9,535.4,466.9,520.2L466.9,520.2z M466.9,520.2"/>
			<g id="XMLID_2310_">
				<polygon id="XMLID_2497_" class="st8" points="448.8,479.5 219.3,479.8 219.3,106 448.8,106.2 				"/>
				<g id="XMLID_2470_">
					<path id="XMLID_2496_" class="st9" d="M405.2,408.5c-8.4,0.1-15.7,4.8-19.4,11.7c-5.8-6.9-14.5-11.2-24.2-11.2
						c-11.7,0.1-21.9,6.6-27.4,16.1c-5.4-9.4-15.7-15.8-27.4-15.7c-9.7,0.1-18.3,4.5-24.1,11.4c-3.8-6.8-11.1-11.3-19.5-11.3
						c-12.3,0.1-22.3,10.1-22.3,22.3c0,12.2,10,22.1,22.3,22c4.9,0,9.4-1.7,13.1-4.4c3.7,13.3,15.9,23,30.5,22.9
						c11.7-0.1,22-6.6,27.4-16.2c5.4,9.4,15.7,15.8,27.4,15.7c14.5-0.1,26.8-10.1,30.4-23.5c3.7,2.7,8.3,4.4,13.3,4.3
						c12.2-0.1,22.1-10.1,22.1-22.2S417.4,408.4,405.2,408.5z"/>
					<g id="XMLID_2471_">
						<g id="XMLID_2493_">
							<path id="XMLID_2495_" class="st10" d="M386.9,440.1c0,13.6-11.1,24.8-24.9,25c-13.8,0.2-24.9-10.8-24.9-24.4
								s11.2-24.8,24.9-25C375.7,415.6,386.9,426.5,386.9,440.1z"/>
							<path id="XMLID_2494_" class="st11" d="M361.6,434.6c0-1.1,2.4-2.7,5-2.7c2.6,0,6.1,2.1,6.1,7c0,4.9-11.1,12.6-11.1,12.6
								s-11.1-7.4-11.1-12.3c0-4.9,3.5-7.1,6.1-7.1C359.2,432,361.6,433.6,361.6,434.6z"/>
						</g>
						<g id="XMLID_2489_">
							<path id="XMLID_2492_" class="st10" d="M331.4,440.8c0,13.6-11.2,24.8-25,25c-13.8,0.2-25-10.8-25-24.4s11.2-24.9,25-25
								C320.2,416.2,331.4,427.1,331.4,440.8z"/>
							<g id="XMLID_2490_">
								<g id="XMLID_39_">
									<g id="XMLID_40_">
										<path id="XMLID_41_" class="st12" d="M315.9,446.7c0.7,0.7,0.7,1.9,0,2.6c-0.4,0.4-0.9,0.6-1.3,0.6c-0.5,0-1-0.2-1.3-0.5
											l-6.1-6l-6.1,6.1c-0.4,0.4-0.8,0.6-1.3,0.6c-0.5,0-1-0.2-1.3-0.5c-0.7-0.7-0.7-1.9,0-2.6l6.1-6.1l-6.1-6
											c-0.7-0.7-0.7-1.9,0-2.6c0.7-0.7,1.9-0.8,2.7,0l6.1,6l6.1-6.1c0.7-0.7,1.9-0.8,2.7,0c0.7,0.7,0.7,1.9,0,2.6l-6.1,6.1
											L315.9,446.7z"/>
									</g>
								</g>
							</g>
						</g>
						<g id="XMLID_2486_">
							<path id="XMLID_2488_" class="st10" d="M277.6,431.7c0,8.5-7,15.4-15.5,15.5c-8.6,0.1-15.6-6.7-15.6-15.2s7-15.4,15.6-15.5
								C270.7,416.4,277.6,423.2,277.6,431.7z"/>
							<path id="XMLID_2487_" class="st13" d="M262.1,425.8C262.1,425.8,262.1,425.8,262.1,425.8l0-1.3c0-0.5-0.6-0.7-0.9-0.4
								l-2.9,2.9c-0.2,0.2-0.2,0.5,0,0.7l2.9,2.8c0.3,0.3,0.9,0.1,0.9-0.4v-2.3c0,0,0,0,0,0c2.2,0,4,1.7,4,3.9s-1.8,4-4,4
								c-2.2,0-4-1.7-4-3.9c0-0.6-0.5-1.1-1.1-1.1c-0.6,0-1.1,0.5-1.1,1.1c0,3.4,2.8,6.1,6.2,6c3.4,0,6.2-2.8,6.2-6.2
								C268.3,428.4,265.6,425.7,262.1,425.8z"/>
						</g>
						<g id="XMLID_2472_">
							<path id="XMLID_2485_" class="st10" d="M421.6,430.2c0,8.4-6.9,15.3-15.4,15.4c-8.5,0.1-15.4-6.7-15.4-15.1
								c0-8.4,6.9-15.3,15.4-15.4C414.7,415,421.6,421.7,421.6,430.2z"/>
							<g id="XMLID_2473_">
								<g id="XMLID_49_">
									<g id="XMLID_50_">
										<path id="XMLID_51_" class="st14" d="M406.2,423.8l1.9,3.9l4.3,0.6l-3.1,3.1l0.7,4.3l-3.9-2l-3.9,2.1l0.7-4.3l-3.1-3
											l4.3-0.7L406.2,423.8z M406.2,423.8"/>
									</g>
								</g>
							</g>
						</g>
					</g>
				</g>
				<g id="XMLID_2314_">
					<path id="XMLID_2400_" class="st10" d="M428.6,393.6l-188.9,0c-3.3,0-5.9-2.6-5.9-5.8V165c0-3.2,2.6-5.8,5.9-5.8l188.9-0.3
						c3.2,0,5.8,2.6,5.8,5.8v223C434.4,390.9,431.8,393.5,428.6,393.6z"/>
					<path id="XMLID_2399_" class="st15" d="M434.4,164.7v188.6L234,352.5V164.9c0-3.2,2-5.8,5.3-5.8l189.3-0.1
						C431.8,159,434.4,161.5,434.4,164.7z"/>
					<g id="XMLID_297_">
						<path id="XMLID_1297_" class="st16" d="M283.3,268.2l50.1,50.1c-13.7,13.5-36.2,13.7-50-0.1
							C269.7,304.4,269.8,281.9,283.3,268.2z"/>
						<g id="XMLID_709_">
							<circle id="XMLID_699_" class="st17" cx="303" cy="326.4" r="20"/>
							<path id="XMLID_700_" class="st17" d="M308.6,352.6h-24.5c-4.7,0-8.5-3.8-8.5-8.5V343c0-4.7,3.8-8.5,8.5-8.5h24.5
								c4.7,0,8.5,3.8,8.5,8.5v1.1C317.1,348.8,313.3,352.6,308.6,352.6z"/>
						</g>
						<g id="XMLID_888_">
							<circle id="XMLID_892_" class="st17" cx="366.4" cy="326.4" r="20"/>
							<path id="XMLID_891_" class="st17" d="M360.8,352.6h24.5c4.7,0,8.5-3.8,8.5-8.5V343c0-4.7-3.8-8.5-8.5-8.5h-24.5
								c-4.7,0-8.5,3.8-8.5,8.5v1.1C352.4,348.8,356.2,352.6,360.8,352.6z"/>
						</g>
						<path id="XMLID_698_" class="st10" d="M336.3,250.1h-4.3c-18.4,0-33.3,14.9-33.3,33.3v69.2h70.9v-69.2
							C369.6,265,354.7,250.1,336.3,250.1z"/>
						<path id="XMLID_906_" class="st18" d="M368.4,276.3c-4.2,14.7-17.7,25.4-33.7,25.4c-16.7,0-30.7-11.7-34.2-27.4
							c4.7-14.1,18-24.2,33.6-24.2C350.5,250.1,364.3,261.2,368.4,276.3z"/>
						<path id="XMLID_265_" class="st17" d="M299.6,251.6v-43.2c0-10.6,11.5-15.9,18.2-8.4l20.3,22.7L299.6,251.6z"/>
						<path id="XMLID_285_" class="st17" d="M369.6,251.6v-43.2c0-10.6-11.5-15.9-18.2-8.4L331,222.6L369.6,251.6z"/>
						<path id="XMLID_2541_" class="st10" d="M336.8,294.5h-4.3c-18.2,0-32.9-14.7-32.9-32.9v-19.7c0-18.2,14.7-32.9,32.9-32.9h4.3
							c18.2,0,32.9,14.7,32.9,32.9v19.7C369.7,279.7,355,294.5,336.8,294.5z"/>
						<path id="XMLID_695_" class="st19" d="M349.9,233c2.2,0,3.9,1.8,3.9,3.9c0,2.2-1.7,3.9-3.9,3.9c-2.2,0-3.9-1.8-3.9-3.9
							C345.9,234.7,347.7,233,349.9,233L349.9,233z"/>
						<path id="XMLID_286_" class="st19" d="M319.5,233.1c2.2,0,3.9,1.7,3.9,3.9c0,2.2-1.7,3.9-3.9,3.9c-2.2,0-3.9-1.7-3.9-3.9
							C315.6,234.8,317.3,233.1,319.5,233.1L319.5,233.1z"/>
						<path id="XMLID_284_" class="st20" d="M335.3,279.6h-0.8c-3.3,0-5.9-2.6-5.9-5.9v-7.3c0-3.3,2.6-5.9,5.9-5.9h0.8
							c3.3,0,5.9,2.6,5.9,5.9v7.3C341.2,276.9,338.6,279.6,335.3,279.6z"/>
						<path id="XMLID_909_" class="st17" d="M354.2,213.7c-11.7,6.7-19.6,19.6-19.6,34.1c0-14.5-7.9-27.5-19.6-34.2
							c5.7-3.3,12.4-5.6,19.5-5.6h0.1C341.8,208,348.5,210.4,354.2,213.7z"/>
						<path id="XMLID_694_" class="st19" d="M336.3,242.9c2,0,3.6,1.6,3.6,3.6c0,2-1.6,3.6-3.6,3.6H333c-2,0-3.6-1.6-3.6-3.6
							c0-2,1.6-3.6,3.6-3.6H336.3L336.3,242.9z"/>
						<g id="XMLID_313_">
							<path id="XMLID_907_" class="st19" d="M349.1,257.3c0,3.8-2.5,7.1-5.9,8.2c0,0,0,0-0.1,0c-0.8,0.3-1.7,0.4-2.6,0.4
								c-2.1,0-4-0.7-5.5-2c-1.5,1.2-3.4,2-5.5,2c-1.1,0-2.2-0.2-3.2-0.6c0,0,0,0-0.1,0c-3.2-1.3-5.4-4.4-5.4-8
								c0-1.7,1.4-3.2,3.2-3.2c1.7,0,3.2,1.4,3.2,3.2c0,0.9,0.5,1.7,1.3,2.1c0.2,0.1,0.5,0.2,0.8,0.2c0.1,0,0.2,0,0.3,0
								c0.1,0,0.2,0,0.2,0c1.2-0.1,2.1-1.1,2.1-2.3c0-0.1,0-0.1,0-0.2c0.1-1.7,1.5-3,3.2-3c1.7,0,3.2,1.4,3.2,3.2c0,0,0,0,0,0.1
								c0,1.3,1.1,2.3,2.3,2.3c0.2,0,0.4,0,0.6-0.1c0,0,0,0,0,0c1-0.3,1.7-1.2,1.7-2.2c0-1.7,1.4-3.2,3.2-3.2
								C347.7,254.1,349.1,255.5,349.1,257.3z"/>
						</g>
					</g>
				</g>
				<path id="XMLID_2311_" class="st21" d="M352.2,145l-36.2,0c-3.6,0-6.4-2.8-6.4-6.4v-8.2c0-3.5,2.9-6.4,6.4-6.4l36.2,0
					c3.5,0,6.4,2.8,6.4,6.4v8.2C358.6,142.1,355.7,145,352.2,145z"/>
			</g>
		</g>
		<path id="XMLID_889_" class="st7" d="M322.9,71.8c-1.3-1.3-2.1-3.1-2.1-5.1c0-4,3.2-7.2,7.2-7.2l20.5,0c4,0,7.2,3.2,7.2,7.2
			c0,4-3.2,7.2-7.2,7.2l-20.5,0C326.1,73.9,324.2,73.1,322.9,71.8L322.9,71.8z M322.9,71.8"/>
	</g>
	<path id="XMLID_1296_" class="st4" d="M232.6,385.3l-84.6-84.6c-16.3-16.3-16.3-42.9-0.1-59.2c16.3-16.3,42.9-16.3,59.2,0
		l84.6,84.6c16.3,16.3,16.3,42.9,0,59.2C275.5,401.6,248.9,401.6,232.6,385.3L232.6,385.3z M232.6,385.3"/>
</g>
<g id="XMLID_55_">
	<path id="XMLID_439_" class="st0" d="M434.8,74.4l0.3-0.1c3.7-1.6,5.4-5.8,3.8-9.5l-8.6-20.4c-1.6-3.6-5.8-5.4-9.5-3.8l-0.3,0.1
		c-3.7,1.6-5.4,5.8-3.8,9.5l8.6,20.4C426.9,74.3,431.1,76,434.8,74.4L434.8,74.4z M434.8,74.4"/>
</g>
<path id="XMLID_58_" class="st15" d="M421,31.7L421,31.7l63.6,21.9l0,0c-4,0.7-8.1,0.3-11.9-1L425,36.2
	C423,35.5,421.4,33.8,421,31.7z"/>
<g id="XMLID_62_">
	<circle id="XMLID_52_" class="st15" cx="440" cy="30.3" r="3.6"/>
	<path id="XMLID_97_" class="st22" d="M443.5,30.2c0,0.2,0,0.5-0.1,0.7c-0.3-1.7-1.8-3-3.6-3c-1.7,0-3.2,1.3-3.5,3
		c0-0.2-0.1-0.4-0.1-0.6c0-2,1.5-3.6,3.5-3.7C441.9,26.7,443.5,28.3,443.5,30.2z"/>
</g>
<g id="XMLID_65_">
	<circle id="XMLID_75_" class="st15" cx="471.5" cy="40.4" r="3.6"/>
	<path id="XMLID_72_" class="st22" d="M475.1,40.4c0,0.2,0,0.5-0.1,0.7c-0.3-1.7-1.8-3-3.6-3c-1.7,0-3.2,1.3-3.5,3
		c0-0.2-0.1-0.4-0.1-0.6c0-2,1.5-3.6,3.5-3.7C473.5,36.8,475.1,38.4,475.1,40.4z"/>
</g>
<path id="XMLID_79_" class="st0" d="M479.2,61.6l-0.1-0.3c-1.6-3.7-5.8-5.4-9.5-3.8l-20.4,8.6c-3.6,1.6-5.4,5.8-3.8,9.5l0.1,0.3
	c1.6,3.7,5.8,5.4,9.5,3.8l20.4-8.6C479.1,69.5,480.8,65.2,479.2,61.6L479.2,61.6z M479.2,61.6"/>
</svg>
