<?xml version="1.0" encoding="utf-8"?>
<!-- Generator: Adobe Illustrator 19.0.0, SVG Export Plug-In . SVG Version: 6.00 Build 0)  -->
<svg version="1.1" id="Layer_1" xmlns="http://www.w3.org/2000/svg" xmlns:xlink="http://www.w3.org/1999/xlink" x="0px" y="0px"
	 viewBox="0 0 58.1 44.5" style="enable-background:new 0 0 58.1 44.5;" xml:space="preserve">
<style type="text/css">
	.st0{fill:#6DC22A;}
	.st1{fill:#38454F;}
	.st2{fill:#FFFFFF;}
</style>
<g id="XMLID_2_">
	<path id="XMLID_8_" class="st0" d="M0,44.5h58.1V0H0V44.5z M0,44.5"/>
	<path id="XMLID_3_" class="st1" d="M2.1,41.6H56V2.9H2.1V41.6z M2.1,41.6"/>
	<path id="XMLID_6_" class="st2" d="M50,41.6H38.1c-0.6,0-1-0.5-1-1V37c0-0.6,0.5-1,1-1H50c0.6,0,1,0.5,1,1v3.6
		C51.1,41.2,50.6,41.6,50,41.6z"/>
	<path id="XMLID_7_" class="st0" d="M51.1,40.1h-14V37c0-0.6,0.5-1.1,1.1-1.1H50c0.6,0,1.1,0.5,1.1,1.1V40.1z"/>
</g>
</svg>
