<?xml version="1.0" encoding="utf-8"?>
<!-- Generator: Adobe Illustrator 19.0.0, SVG Export Plug-In . SVG Version: 6.00 Build 0)  -->
<svg version="1.1" id="Layer_1" xmlns="http://www.w3.org/2000/svg" xmlns:xlink="http://www.w3.org/1999/xlink" x="0px" y="0px"
	 viewBox="0 0 55.3 55.3" style="enable-background:new 0 0 55.3 55.3;" xml:space="preserve">
<style type="text/css">
	.st0{fill:#E1E6E7;}
	.st1{fill:#6DC22A;}
	.st2{fill:#7380B9;}
	.st3{fill:#7380B9;stroke:#6DC22A;stroke-width:1.6;stroke-linecap:round;stroke-linejoin:round;stroke-miterlimit:10;}
</style>
<g id="XMLID_1740_">
	<path id="XMLID_1780_" class="st0" d="M55.3,27.6c0,15.3-12.4,27.6-27.6,27.6C12.4,55.3,0,42.9,0,27.6C0,12.4,12.4,0,27.6,0
		C42.9,0,55.3,12.4,55.3,27.6L55.3,27.6z M55.3,27.6"/>
	<path id="XMLID_1770_" class="st1" d="M27.6,3.8c13.1,0,23.8,10.7,23.8,23.8c0,13.1-10.7,23.8-23.8,23.8
		c-13.1,0-23.8-10.7-23.8-23.8C3.8,14.5,14.5,3.8,27.6,3.8 M27.6,0C12.4,0,0,12.4,0,27.6c0,15.3,12.4,27.6,27.6,27.6
		c15.3,0,27.6-12.4,27.6-27.6C55.3,12.4,42.9,0,27.6,0L27.6,0z M27.6,0"/>
	<path id="XMLID_1767_" class="st2" d="M27.6,5.6c-0.5,0-1,0.4-1,1v1c0,0.5,0.4,0.9,1,0.9c0.5,0,1-0.4,1-0.9v-1
		C28.6,6,28.2,5.6,27.6,5.6L27.6,5.6z M27.6,5.6"/>
	<path id="XMLID_1764_" class="st2" d="M27.6,46.6c-0.5,0-1,0.4-1,1v1c0,0.5,0.4,1,1,1c0.5,0,1-0.4,1-1v-1
		C28.6,47,28.2,46.6,27.6,46.6L27.6,46.6z M27.6,46.6"/>
	<path id="XMLID_1761_" class="st2" d="M48.6,26.6h-1c-0.5,0-1,0.4-1,0.9c0,0.5,0.4,1,1,1h1c0.5,0,1-0.4,1-1
		C49.5,27,49.1,26.6,48.6,26.6L48.6,26.6z M48.6,26.6"/>
	<path id="XMLID_1758_" class="st2" d="M7.6,26.6H6.7c-0.5,0-1,0.4-1,0.9c0,0.5,0.4,1,1,1h0.9c0.5,0,1-0.4,1-1
		C8.6,27,8.1,26.6,7.6,26.6L7.6,26.6z M7.6,26.6"/>
	<path id="XMLID_1755_" class="st2" d="M41.8,12l-0.7,0.7c-0.4,0.4-0.4,1,0,1.3c0.2,0.2,0.4,0.3,0.7,0.3c0.2,0,0.5-0.1,0.7-0.3
		l0.7-0.7c0.4-0.4,0.4-1,0-1.3C42.8,11.6,42.2,11.6,41.8,12L41.8,12z M41.8,12"/>
	<path id="XMLID_1752_" class="st2" d="M12.8,41l-0.7,0.7c-0.4,0.4-0.4,1,0,1.3c0.2,0.2,0.4,0.3,0.7,0.3c0.2,0,0.5-0.1,0.7-0.3
		l0.7-0.7c0.4-0.4,0.4-1,0-1.3C13.8,40.6,13.2,40.6,12.8,41L12.8,41z M12.8,41"/>
	<path id="XMLID_1749_" class="st2" d="M42.5,41c-0.4-0.4-1-0.4-1.3,0c-0.4,0.4-0.4,1,0,1.3l0.7,0.7c0.2,0.2,0.4,0.3,0.7,0.3
		c0.2,0,0.5-0.1,0.7-0.3c0.4-0.4,0.4-1,0-1.3L42.5,41z M42.5,41"/>
	<path id="XMLID_1746_" class="st2" d="M13.5,12c-0.4-0.4-1-0.4-1.3,0c-0.4,0.4-0.4,1,0,1.3l0.7,0.7c0.2,0.2,0.4,0.3,0.7,0.3
		c0.2,0,0.5-0.1,0.7-0.3c0.4-0.4,0.4-1,0-1.3L13.5,12z M13.5,12"/>
	<path id="XMLID_1741_" class="st3" d="M24.8,27.5h-7.6 M27.6,24.7V14.2 M30.5,27.5c0,1.6-1.3,2.9-2.9,2.9c-1.6,0-2.9-1.3-2.9-2.9
		c0-1.6,1.3-2.9,2.9-2.9C29.2,24.7,30.5,25.9,30.5,27.5L30.5,27.5z M30.5,27.5"/>
</g>
</svg>
