<?xml version="1.0" encoding="utf-8"?>
<!-- Generator: Adobe Illustrator 19.0.0, SVG Export Plug-In . SVG Version: 6.00 Build 0)  -->
<svg version="1.1" id="Layer_1" xmlns="http://www.w3.org/2000/svg" xmlns:xlink="http://www.w3.org/1999/xlink" x="0px" y="0px"
	 viewBox="0 0 232.5 46" style="enable-background:new 0 0 232.5 46;" xml:space="preserve">
<style type="text/css">
	.st0{fill:#FFFFFF;}
</style>
<g>
	<g>
		<g>
			<path class="st0" d="M134.7,8.4h5.6v1.2H136v1.9h3.8v1.2H136v2h4.3v1.2h-5.6V8.4z"/>
			<path class="st0" d="M144.6,16c-0.6,0-1.1-0.1-1.7-0.3c-0.5-0.2-1-0.5-1.5-0.9l0.8-0.9c0.4,0.3,0.7,0.6,1.1,0.7
				c0.4,0.2,0.8,0.3,1.3,0.3c0.4,0,0.7-0.1,1-0.3s0.4-0.4,0.4-0.7l0,0c0-0.1,0-0.3-0.1-0.4c0-0.1-0.1-0.2-0.3-0.3
				c-0.1-0.1-0.3-0.2-0.5-0.3s-0.5-0.2-0.9-0.2c-0.4-0.1-0.8-0.2-1.1-0.3s-0.6-0.3-0.8-0.4c-0.2-0.2-0.4-0.4-0.5-0.6
				s-0.2-0.5-0.2-0.9l0,0c0-0.3,0.1-0.6,0.2-0.9c0.1-0.3,0.3-0.5,0.5-0.7s0.5-0.3,0.8-0.4c0.3-0.1,0.7-0.2,1-0.2
				c0.6,0,1,0.1,1.5,0.2c0.4,0.2,0.9,0.4,1.2,0.7l-0.7,1c-0.3-0.3-0.7-0.4-1-0.6c-0.3-0.1-0.7-0.2-1-0.2c-0.4,0-0.7,0.1-0.9,0.3
				s-0.3,0.4-0.3,0.6l0,0c0,0.1,0,0.3,0.1,0.4c0.1,0.1,0.1,0.2,0.3,0.3c0.1,0.1,0.3,0.2,0.5,0.3s0.5,0.2,0.9,0.2
				c0.4,0.1,0.7,0.2,1,0.3s0.6,0.3,0.8,0.4c0.2,0.2,0.4,0.4,0.5,0.6c0.1,0.2,0.2,0.5,0.2,0.8l0,0c0,0.4-0.1,0.7-0.2,0.9
				c-0.1,0.3-0.3,0.5-0.5,0.7s-0.5,0.3-0.8,0.4C145.3,15.9,145,16,144.6,16z"/>
			<path class="st0" d="M152.3,16c-0.6,0-1.1-0.1-1.5-0.3s-0.9-0.5-1.2-0.8s-0.6-0.8-0.8-1.2c-0.2-0.5-0.3-1-0.3-1.5l0,0
				c0-0.5,0.1-1,0.3-1.5s0.5-0.9,0.8-1.2c0.3-0.4,0.8-0.6,1.2-0.8c0.5-0.2,1-0.3,1.6-0.3c0.3,0,0.7,0,0.9,0.1
				c0.3,0.1,0.5,0.1,0.8,0.2c0.2,0.1,0.5,0.2,0.7,0.4c0.2,0.1,0.4,0.3,0.6,0.5l-0.8,1c-0.3-0.3-0.6-0.5-1-0.7
				c-0.3-0.2-0.7-0.3-1.1-0.3c-0.4,0-0.7,0.1-1,0.2c-0.3,0.1-0.6,0.3-0.8,0.6s-0.4,0.5-0.5,0.8s-0.2,0.7-0.2,1l0,0
				c0,0.4,0.1,0.7,0.2,1c0.1,0.3,0.3,0.6,0.5,0.9s0.5,0.4,0.8,0.6c0.3,0.1,0.6,0.2,1,0.2c0.5,0,0.9-0.1,1.2-0.3s0.7-0.4,1-0.7
				l0.8,0.9c-0.2,0.2-0.4,0.4-0.6,0.6c-0.2,0.2-0.4,0.3-0.7,0.4c-0.2,0.1-0.5,0.2-0.8,0.3C153,16,152.6,16,152.3,16z"/>
			<path class="st0" d="M160.3,16c-0.6,0-1.1-0.1-1.6-0.3s-0.9-0.5-1.2-0.8s-0.6-0.8-0.8-1.2s-0.3-1-0.3-1.5l0,0
				c0-0.5,0.1-1,0.3-1.5s0.5-0.9,0.8-1.2c0.3-0.4,0.8-0.6,1.2-0.8c0.5-0.2,1-0.3,1.6-0.3s1.1,0.1,1.6,0.3s0.9,0.5,1.2,0.8
				s0.6,0.8,0.8,1.2c0.2,0.5,0.3,1,0.3,1.5l0,0c0,0.5-0.1,1-0.3,1.5s-0.5,0.9-0.8,1.2s-0.8,0.6-1.2,0.8
				C161.4,15.9,160.9,16,160.3,16z M160.3,14.8c0.4,0,0.7-0.1,1-0.2c0.3-0.1,0.6-0.3,0.8-0.6c0.2-0.2,0.4-0.5,0.5-0.8s0.2-0.7,0.2-1
				l0,0c0-0.4-0.1-0.7-0.2-1c-0.1-0.3-0.3-0.6-0.5-0.8s-0.5-0.4-0.8-0.6c-0.3-0.1-0.7-0.2-1-0.2c-0.4,0-0.7,0.1-1,0.2
				c-0.3,0.1-0.6,0.3-0.8,0.6s-0.4,0.5-0.5,0.8s-0.2,0.7-0.2,1l0,0c0,0.4,0.1,0.7,0.2,1c0.1,0.3,0.3,0.6,0.5,0.8s0.5,0.4,0.8,0.6
				C159.6,14.7,159.9,14.8,160.3,14.8z"/>
			<path class="st0" d="M165.8,8.4h1.3v6.3h3.9v1.2h-5.3V8.4H165.8z"/>
			<path class="st0" d="M175.1,8.3h1.2l3.3,7.6h-1.4l-0.8-1.8h-3.6l-0.8,1.8h-1.4L175.1,8.3z M177,12.9l-1.3-3l-1.3,3H177z"/>
			<path class="st0" d="M186.8,16c-0.6,0-1.1-0.1-1.7-0.3c-0.5-0.2-1-0.5-1.5-0.9l0.8-0.9c0.4,0.3,0.7,0.6,1.1,0.7
				c0.4,0.2,0.8,0.3,1.3,0.3c0.4,0,0.7-0.1,1-0.3s0.4-0.4,0.4-0.7l0,0c0-0.1,0-0.3-0.1-0.4c0-0.1-0.1-0.2-0.3-0.3
				c-0.1-0.1-0.3-0.2-0.5-0.3s-0.5-0.2-0.9-0.2c-0.4-0.1-0.8-0.2-1.1-0.3s-0.6-0.3-0.8-0.4c-0.2-0.2-0.4-0.4-0.5-0.6
				s-0.2-0.5-0.2-0.9l0,0c0-0.3,0.1-0.6,0.2-0.9c0.1-0.3,0.3-0.5,0.5-0.7s0.5-0.3,0.8-0.4c0.3-0.1,0.7-0.2,1-0.2
				c0.6,0,1,0.1,1.5,0.2c0.4,0.2,0.9,0.4,1.2,0.7l-0.7,1c-0.3-0.3-0.7-0.4-1-0.6c-0.3-0.1-0.7-0.2-1-0.2c-0.4,0-0.7,0.1-0.9,0.3
				s-0.3,0.4-0.3,0.6l0,0c0,0.1,0,0.3,0.1,0.4c0.1,0.1,0.1,0.2,0.3,0.3c0.1,0.1,0.3,0.2,0.5,0.3s0.5,0.2,0.9,0.2
				c0.4,0.1,0.7,0.2,1,0.3s0.6,0.3,0.8,0.4c0.2,0.2,0.4,0.4,0.5,0.6c0.1,0.2,0.2,0.5,0.2,0.8l0,0c0,0.4-0.1,0.7-0.2,0.9
				c-0.1,0.3-0.3,0.5-0.5,0.7s-0.5,0.3-0.8,0.4C187.5,15.9,187.2,16,186.8,16z"/>
			<path class="st0" d="M191,8.4h5.6v1.2h-4.2v1.9h3.8v1.2h-3.8v2h4.3v1.2H191V8.4z"/>
			<path class="st0" d="M198.2,8.4h1.2l4,5.2V8.4h1.3v7.5h-1.1l-4.1-5.3v5.3h-1.3L198.2,8.4L198.2,8.4z"/>
			<path class="st0" d="M209.3,8.3h1.2l3.3,7.6h-1.4l-0.8-1.8H208l-0.8,1.8H206L209.3,8.3z M211.2,12.9l-1.3-3l-1.3,3H211.2z"/>
			<path class="st0" d="M215.2,8.4h1.3v7.5h-1.3V8.4z"/>
			<path class="st0" d="M134.7,19.8h2.8c0.6,0,1.1,0.1,1.6,0.3c0.5,0.2,0.9,0.5,1.3,0.8c0.4,0.3,0.6,0.7,0.8,1.2s0.3,0.9,0.3,1.5
				l0,0c0,0.5-0.1,1-0.3,1.5s-0.5,0.9-0.8,1.2c-0.4,0.3-0.8,0.6-1.3,0.8c-0.5,0.2-1,0.3-1.6,0.3h-2.8V19.8z M137.5,26.2
				c0.4,0,0.8-0.1,1.1-0.2s0.6-0.3,0.8-0.5s0.4-0.5,0.5-0.8s0.2-0.7,0.2-1l0,0c0-0.4-0.1-0.7-0.2-1c-0.1-0.3-0.3-0.6-0.5-0.8
				s-0.5-0.4-0.8-0.5s-0.7-0.2-1.1-0.2H136v5.1h1.5V26.2z"/>
			<path class="st0" d="M143.1,19.8h5.6V21h-4.2v2h3.8v1.2h-3.8v2h4.3v1.2h-5.6v-7.6H143.1z"/>
			<path class="st0" d="M153.6,19.8h1.3v7.5h-1.3V19.8z"/>
			<path class="st0" d="M156.9,19.8h1.2l4,5.2v-5.2h1.3v7.5h-1.1l-4.1-5.3v5.3h-1.3L156.9,19.8L156.9,19.8z"/>
			<path class="st0" d="M165.4,19.8h5.6V21h-4.3v2.1h3.8v1.2h-3.8v3.1h-1.3V19.8z"/>
			<path class="st0" d="M176,27.5c-0.6,0-1.1-0.1-1.6-0.3c-0.5-0.2-0.9-0.5-1.2-0.8s-0.6-0.8-0.8-1.2s-0.3-1-0.3-1.5l0,0
				c0-0.5,0.1-1,0.3-1.5s0.5-0.9,0.8-1.2c0.3-0.4,0.8-0.6,1.2-0.8c0.5-0.2,1-0.3,1.6-0.3s1.1,0.1,1.6,0.3c0.5,0.2,0.9,0.5,1.2,0.8
				s0.6,0.8,0.8,1.2c0.2,0.5,0.3,1,0.3,1.5l0,0c0,0.5-0.1,1-0.3,1.5s-0.5,0.9-0.8,1.2s-0.8,0.6-1.2,0.8
				C177.1,27.4,176.6,27.5,176,27.5z M176,26.3c0.4,0,0.7-0.1,1-0.2s0.6-0.3,0.8-0.6c0.2-0.2,0.4-0.5,0.5-0.8s0.2-0.7,0.2-1l0,0
				c0-0.4-0.1-0.7-0.2-1c-0.1-0.3-0.3-0.6-0.5-0.8c-0.2-0.2-0.5-0.4-0.8-0.6c-0.3-0.1-0.7-0.2-1-0.2c-0.4,0-0.7,0.1-1,0.2
				s-0.6,0.3-0.8,0.6s-0.4,0.5-0.5,0.8s-0.2,0.7-0.2,1l0,0c0,0.4,0.1,0.7,0.2,1c0.1,0.3,0.3,0.6,0.5,0.8c0.2,0.2,0.5,0.4,0.8,0.6
				C175.3,26.2,175.7,26.3,176,26.3z"/>
			<path class="st0" d="M181.6,19.8h3.3c0.5,0,0.9,0.1,1.3,0.2c0.4,0.1,0.7,0.3,0.9,0.6c0.2,0.2,0.4,0.4,0.5,0.7
				c0.1,0.3,0.2,0.6,0.2,0.9l0,0c0,0.3,0,0.6-0.1,0.8c-0.1,0.2-0.2,0.5-0.4,0.7s-0.3,0.4-0.6,0.5c-0.2,0.1-0.5,0.2-0.7,0.3l2,2.8
				h-1.6l-1.9-2.6l0,0h-1.6v2.6h-1.3L181.6,19.8L181.6,19.8z M184.8,23.6c0.5,0,0.8-0.1,1.1-0.3c0.3-0.2,0.4-0.5,0.4-0.9l0,0
				c0-0.4-0.1-0.7-0.4-0.9c-0.3-0.2-0.7-0.3-1.2-0.3h-1.9v2.5h2V23.6z"/>
			<path class="st0" d="M189.3,19.8h1.4l2.3,3.6l2.3-3.6h1.4v7.5h-1.3V22l-2.4,3.5l0,0l-2.3-3.5v5.4h-1.3L189.3,19.8L189.3,19.8z"/>
			<path class="st0" d="M201.3,19.8h1.2l3.3,7.6h-1.4l-0.8-1.8h-3.5l-0.8,1.8H198L201.3,19.8z M203.2,24.4l-1.3-3l-1.3,3H203.2z
				 M202.5,17.5l1.2,0.5l-1.3,1.2h-1L202.5,17.5z"/>
			<path class="st0" d="M208.9,21.1h-2.4v-1.2h6.1v1.2h-2.4v6.3h-1.3L208.9,21.1L208.9,21.1z"/>
			<path class="st0" d="M214.1,19.8h1.3v7.5h-1.3V19.8z"/>
			<path class="st0" d="M220.9,27.5c-0.6,0-1.1-0.1-1.5-0.3s-0.9-0.5-1.2-0.8s-0.6-0.8-0.8-1.2c-0.2-0.5-0.3-1-0.3-1.5l0,0
				c0-0.5,0.1-1,0.3-1.5s0.5-0.9,0.8-1.2c0.3-0.4,0.8-0.6,1.2-0.8c0.5-0.2,1-0.3,1.6-0.3c0.3,0,0.7,0,0.9,0.1
				c0.3,0.1,0.5,0.1,0.8,0.2c0.2,0.1,0.5,0.2,0.7,0.4c0.2,0.1,0.4,0.3,0.6,0.5l-0.8,1c-0.3-0.3-0.6-0.5-1-0.7s-0.7-0.3-1.1-0.3
				c-0.4,0-0.7,0.1-1,0.2s-0.6,0.3-0.8,0.6s-0.4,0.5-0.5,0.8s-0.2,0.7-0.2,1l0,0c0,0.4,0.1,0.7,0.2,1c0.1,0.3,0.3,0.6,0.5,0.9
				s0.5,0.4,0.8,0.6c0.3,0.1,0.6,0.2,1,0.2c0.5,0,0.9-0.1,1.2-0.3c0.3-0.2,0.7-0.4,1-0.7l0.8,0.9c-0.2,0.2-0.4,0.4-0.6,0.6
				c-0.2,0.2-0.4,0.3-0.7,0.4s-0.5,0.2-0.8,0.3C221.6,27.4,221.3,27.5,220.9,27.5z"/>
			<path class="st0" d="M228,19.8h1.2l3.3,7.6h-1.4l-0.8-1.8h-3.6l-0.8,1.8h-1.4L228,19.8z M229.9,24.4l-1.3-3l-1.3,3H229.9z"/>
		</g>
		<g>
			<path class="st0" d="M29.5,46c-0.6,0-1.1-0.1-1.7-0.3c-0.5-0.2-1-0.5-1.5-0.9l0.8-0.9c0.4,0.3,0.7,0.6,1.1,0.7
				c0.4,0.2,0.8,0.3,1.3,0.3c0.4,0,0.7-0.1,1-0.3c0.2-0.2,0.4-0.4,0.4-0.7l0,0c0-0.1,0-0.3-0.1-0.4c0-0.1-0.1-0.2-0.3-0.3
				c-0.1-0.1-0.3-0.2-0.5-0.3s-0.5-0.2-0.9-0.2c-0.4-0.1-0.8-0.2-1.1-0.3c-0.3-0.1-0.6-0.3-0.8-0.4s-0.4-0.4-0.5-0.6
				s-0.2-0.5-0.2-0.9l0,0c0-0.3,0.1-0.6,0.2-0.9c0.1-0.3,0.3-0.5,0.5-0.7s0.5-0.3,0.8-0.4s0.7-0.2,1-0.2c0.6,0,1,0.1,1.5,0.2
				c0.4,0.2,0.9,0.4,1.2,0.7l-0.7,1c-0.3-0.3-0.7-0.4-1-0.6c-0.3-0.1-0.7-0.2-1-0.2c-0.4,0-0.7,0.1-0.9,0.3s-0.3,0.4-0.3,0.6l0,0
				c0,0.1,0,0.3,0.1,0.4c0.1,0.1,0.1,0.2,0.3,0.3c0.1,0.1,0.3,0.2,0.5,0.3s0.5,0.2,0.9,0.2c0.4,0.1,0.7,0.2,1,0.3s0.6,0.3,0.8,0.4
				c0.2,0.2,0.4,0.4,0.5,0.6c0.1,0.2,0.2,0.5,0.2,0.8l0,0c0,0.4-0.1,0.7-0.2,0.9c-0.1,0.3-0.3,0.5-0.5,0.7s-0.5,0.3-0.8,0.4
				C30.2,45.9,29.9,46,29.5,46z"/>
			<path class="st0" d="M36.4,38.3h1.2l3.3,7.6h-1.4L38.7,44h-3.6l-0.8,1.8h-1.4L36.4,38.3z M35,37.6c0.1-0.4,0.3-0.8,0.4-1
				c0.2-0.2,0.4-0.3,0.8-0.3c0.1,0,0.3,0,0.4,0.1c0.1,0,0.3,0.1,0.4,0.1s0.3,0.1,0.4,0.1s0.2,0.1,0.3,0.1c0.2,0,0.3,0,0.4-0.1
				s0.2-0.2,0.2-0.4l0.7,0.2c-0.1,0.4-0.3,0.8-0.4,1c-0.2,0.2-0.4,0.3-0.8,0.3c-0.2,0-0.3,0-0.4-0.1s-0.3-0.1-0.4-0.1
				c-0.1-0.1-0.3-0.1-0.4-0.2c-0.1,0-0.2-0.1-0.3-0.1c-0.2,0-0.3,0-0.4,0.1c-0.1,0.1-0.2,0.2-0.2,0.4L35,37.6z M38.3,42.9l-1.3-3
				l-1.3,3H38.3z"/>
			<path class="st0" d="M45.8,46c-0.6,0-1.1-0.1-1.6-0.3s-0.9-0.5-1.2-0.8s-0.6-0.8-0.8-1.2c-0.2-0.5-0.3-1-0.3-1.5l0,0
				c0-0.5,0.1-1,0.3-1.5s0.5-0.9,0.8-1.2c0.4-0.4,0.8-0.6,1.2-0.8s1-0.3,1.6-0.3s1.1,0.1,1.6,0.3s0.9,0.5,1.2,0.8s0.6,0.8,0.8,1.2
				c0.2,0.5,0.3,1,0.3,1.5l0,0c0,0.5-0.1,1-0.3,1.5s-0.5,0.9-0.8,1.2s-0.8,0.6-1.2,0.8C46.9,45.9,46.3,46,45.8,46z M45.8,44.8
				c0.4,0,0.7-0.1,1-0.2c0.3-0.1,0.6-0.3,0.8-0.6c0.2-0.2,0.4-0.5,0.5-0.8s0.2-0.7,0.2-1l0,0c0-0.4-0.1-0.7-0.2-1
				c-0.1-0.3-0.3-0.6-0.5-0.8s-0.5-0.4-0.8-0.6c-0.3-0.1-0.7-0.2-1-0.2c-0.4,0-0.7,0.1-1,0.2c-0.3,0.1-0.6,0.3-0.8,0.6
				s-0.4,0.5-0.5,0.8s-0.2,0.7-0.2,1l0,0c0,0.4,0.1,0.7,0.2,1c0.1,0.3,0.3,0.6,0.5,0.8s0.5,0.4,0.8,0.6
				C45.1,44.7,45.4,44.8,45.8,44.8z"/>
			<path class="st0" d="M54.5,38.3h3c0.4,0,0.8,0.1,1.2,0.2c0.4,0.1,0.7,0.3,0.9,0.5s0.4,0.5,0.6,0.8c0.1,0.3,0.2,0.7,0.2,1l0,0
				c0,0.4-0.1,0.8-0.2,1.1s-0.4,0.6-0.6,0.8c-0.3,0.2-0.6,0.4-1,0.5s-0.8,0.2-1.2,0.2h-1.5v2.4h-1.3v-7.5H54.5z M57.4,42.2
				c0.5,0,0.9-0.1,1.2-0.4c0.3-0.3,0.4-0.6,0.4-1l0,0c0-0.4-0.1-0.8-0.4-1c-0.3-0.2-0.7-0.3-1.2-0.3h-1.5v2.7H57.4z"/>
			<path class="st0" d="M64.3,38.3h1.2l3.3,7.6h-1.4L66.7,44h-3.6l-0.8,1.8H61L64.3,38.3z M66.2,42.9l-1.3-3l-1.3,3H66.2z"/>
			<path class="st0" d="M73.2,46c-0.5,0-0.9-0.1-1.3-0.2c-0.4-0.1-0.7-0.3-1-0.6s-0.5-0.6-0.6-1c-0.2-0.4-0.2-0.9-0.2-1.4v-4.3h1.3
				v4.3c0,0.7,0.2,1.2,0.5,1.6c0.3,0.4,0.8,0.5,1.4,0.5s1.1-0.2,1.4-0.5s0.5-0.9,0.5-1.6v-4.3h1.3v4.3c0,0.6-0.1,1-0.2,1.5
				s-0.4,0.8-0.6,1.1c-0.3,0.3-0.6,0.5-1,0.6C74.2,45.9,73.7,46,73.2,46z"/>
			<path class="st0" d="M78.3,38.3h1.3v6.3h3.9v1.2h-5.3L78.3,38.3L78.3,38.3z"/>
			<path class="st0" d="M88.5,46c-0.6,0-1.1-0.1-1.6-0.3s-0.9-0.5-1.2-0.8c-0.3-0.3-0.6-0.8-0.8-1.2c-0.2-0.5-0.3-1-0.3-1.5l0,0
				c0-0.5,0.1-1,0.3-1.5c0.2-0.5,0.5-0.9,0.8-1.2c0.4-0.4,0.8-0.6,1.2-0.8s1-0.3,1.6-0.3s1.1,0.1,1.6,0.3s0.9,0.5,1.2,0.8
				c0.3,0.3,0.6,0.8,0.8,1.2c0.2,0.5,0.3,1,0.3,1.5l0,0c0,0.5-0.1,1-0.3,1.5c-0.2,0.5-0.5,0.9-0.8,1.2s-0.8,0.6-1.2,0.8
				C89.6,45.9,89.1,46,88.5,46z M88.5,44.8c0.4,0,0.7-0.1,1-0.2c0.3-0.1,0.6-0.3,0.8-0.6c0.2-0.2,0.4-0.5,0.5-0.8s0.2-0.7,0.2-1l0,0
				c0-0.4-0.1-0.7-0.2-1s-0.3-0.6-0.5-0.8s-0.5-0.4-0.8-0.6c-0.3-0.1-0.7-0.2-1-0.2c-0.4,0-0.7,0.1-1,0.2c-0.3,0.1-0.6,0.3-0.8,0.6
				s-0.4,0.5-0.5,0.8s-0.2,0.7-0.2,1l0,0c0,0.4,0.1,0.7,0.2,1s0.3,0.6,0.5,0.8s0.5,0.4,0.8,0.6C87.8,44.7,88.1,44.8,88.5,44.8z"/>
		</g>
		<g>
			<path class="st0" d="M0,28.3h6.3v0.8H0V28.3L0,28.3z M0,23.3h6.3v0.8H0V23.3L0,23.3z M0,18h6.3v0.8H0V18L0,18z M0,12.8h6.3v0.8H0
				V12.8L0,12.8z M0,7.8h6.3v0.8H0V7.8L0,7.8z"/>
			<path class="st0" d="M111.6,28.3h6.3v0.8h-6.3V28.3L111.6,28.3z M111.6,23.3h6.3v0.8h-6.3V23.3L111.6,23.3z M111.6,18h6.3v0.8
				h-6.3V18L111.6,18z M111.6,12.8h6.3v0.8h-6.3V12.8L111.6,12.8z M111.6,7.8h6.3v0.8h-6.3V7.8L111.6,7.8z"/>
			<path class="st0" d="M28.7,14c1.5-5.2-2.8-6.7-7.2-6.7c-4.5,0-9.2,1.4-10.6,6.5c-0.5,2.3,0.2,4.3,2.1,5.2
				c4.2,2.1,8.8,1.4,8.1,4.3c-0.3,1.4-2.2,2.1-3.6,2.1c-2.1,0-3.4-1.1-2.9-3.1H8.8c-1.1,5.8,2.9,7.3,7.9,7.3s9.9-2.1,10.8-6.7
				c1.2-5.8-3.9-6.2-7.3-7.1c-1.5-0.4-3.3-0.9-2.9-2.5c0.2-1.1,1.6-2,3-2c1,0,1.7,0.2,2.1,0.7c0.4,0.4,0.6,1.1,0.4,1.9h5.9V14z
				 M45.9,29.1l0.9-4.2H36.4l1-4.5H47l0.9-4.2h-9.6l0.9-4.4h10.4l0.9-4.2H34.1l-4.6,21.5L45.9,29.1L45.9,29.1z M49.3,29.1h5.3
				l3.5-16.4h0.1L62,29.1h8.2l4.6-21.5h-5.3l-3.5,16v0.1l-3.8-16h-8.3L49.3,29.1L49.3,29.1z M78.3,29.1l2.3-4.2h8.7l0.5,4.2h6.7
				L92.7,7.7h-7.3l-13,21.5h5.9V29.1z M83,20.8l4.8-8.9h0.1l0.8,8.9H83L83,20.8z M104.8,29.1l4.6-21.5h-5.9l-4.6,21.5H104.8
				L104.8,29.1z"/>
		</g>
		<g>
			<rect x="126.1" class="st0" width="0.9" height="35.5"/>
		</g>
	</g>
</g>
</svg>
